<svg width="107" height="59" viewBox="0 0 107 59" fill="none" xmlns="http://www.w3.org/2000/svg">
<path fill-rule="evenodd" clip-rule="evenodd" d="M0 23.7778H6.44622L6.44622 38.7283H6.57091C7.2068 37.4249 7.89257 36.2257 8.54093 35.0135L15.0744 23.7778H23.0543L13.5408 38.1809L23.578 57.5892H15.9722L8.92745 42.9906L6.44622 46.549L6.44622 57.5892H0L0 23.7778H0Z" fill="white"/>
<path fill-rule="evenodd" clip-rule="evenodd" d="M36.1714 52.4158C33.129 52.4158 30.4857 50.9038 30.2738 47.7494H43.7273C43.8146 47.202 43.9392 46.0419 43.9392 44.7385C43.9392 38.6644 41.3707 32.4991 34.6253 32.4991C27.3686 32.4991 24.0769 39.3682 24.0769 45.5857C24.0769 53.263 28.1416 58.1249 35.2238 58.1249C38.0416 58.1249 40.6476 57.5774 42.7797 56.5738L41.9318 51.4121C40.1862 52.0638 38.3908 52.4158 36.1714 52.4158ZM34.2521 37.5695C37.232 37.5695 37.9178 40.6847 37.9178 42.5356H30.2372C30.4117 40.4762 31.5214 37.5695 34.2521 37.5695Z" fill="white"/>
<path fill-rule="evenodd" clip-rule="evenodd" d="M55.9382 26.0351V33.0607H60.6015V38.6785H55.9507V47.555C55.9507 50.5139 56.5492 51.8694 58.5068 51.8694C59.3172 51.8694 59.9531 51.7652 60.4269 51.6739L60.4643 57.4352C59.604 57.8392 58.0704 58.139 56.2375 58.139C54.1428 58.139 52.3972 57.2397 51.3748 55.9883C50.1778 54.5285 49.5793 52.1823 49.5793 48.7151V38.6785H46.7988V33.0607H49.5793V27.7426L55.9382 26.0351Z" fill="white"/>
<path fill-rule="evenodd" clip-rule="evenodd" d="M72.4641 26.0351V33.0607H77.1274V38.6785H72.4766V47.555C72.4766 50.5139 73.0751 51.8694 75.0326 51.8694C75.8431 51.8694 76.479 51.7652 76.9528 51.6739L76.9902 57.4352C76.1299 57.8392 74.5962 58.139 72.7634 58.139C70.6687 58.139 68.9231 57.2397 67.9007 55.9883C66.7037 54.5285 66.1052 52.1823 66.1052 48.7151V38.6785H63.3247V33.0607H66.1052V27.7426L72.4641 26.0351Z" fill="white"/>
<path fill-rule="evenodd" clip-rule="evenodd" d="M90.1093 58.1296C95.3211 58.1296 101.294 54.4669 101.294 45.2907C101.294 37.3787 96.8921 32.5038 90.6205 32.5038C84.4735 32.5038 79.4736 37.0659 79.4736 45.3428C79.4736 53.359 84.1743 58.1296 90.1093 58.1296ZM90.3984 52.6683C87.4932 52.6683 86.1715 49.3054 86.1715 45.395C86.1715 41.9409 87.194 37.9263 90.3984 37.9263C93.6028 37.9263 94.5878 41.8888 94.5878 45.395C94.5878 49.3575 93.2537 52.6683 90.3984 52.6683Z" fill="white"/>
<path fill-rule="evenodd" clip-rule="evenodd" d="M95.5539 20.6206C95.5164 20.5554 95.4666 20.4903 95.4292 20.4381C95.9778 15.7196 102.387 15.3938 102.387 11.2618C102.387 14.0903 96.489 12.9954 93.11 15.2895C92.9978 14.6508 92.9604 13.973 92.9729 13.217C92.9729 6.86922 98.9079 4.43177 98.9079 4.76837e-05C98.9079 4.44481 89.0578 5.35722 87.8857 12.8651C86.776 11.9005 85.5915 11.2488 84.1826 11.2488C81.8884 11.2488 80.7039 13.6211 80.7039 13.6211C80.7039 13.6211 82.7487 12.9303 83.4345 15.4199C84.008 17.5314 85.604 26.6425 107 24.2963C107 24.2963 100.442 23.7359 95.5539 20.6206Z" fill="white"/>
<path fill-rule="evenodd" clip-rule="evenodd" d="M81.9668 28.4031C81.9543 28.3771 81.9419 28.364 81.9294 28.338C82.1289 26.6044 84.4106 26.4219 84.5478 24.9881C84.3608 25.8875 82.266 25.5486 81.0441 26.3828C81.0067 26.1351 80.9818 25.8875 80.9943 25.6007C80.9943 23.1893 83.2511 22.2639 83.2511 20.5824C83.2511 22.2769 79.5105 22.6158 79.0741 25.4704C78.6502 25.1054 78.2013 24.8577 77.6652 24.8577C76.7924 24.8577 76.3435 25.7571 76.3435 25.7571C76.3435 25.7571 77.1166 25.4964 77.3784 26.4349C77.6028 27.2431 78.2013 30.6972 86.3183 29.7978C86.3183 29.7978 83.8246 29.5893 81.9668 28.4031Z" fill="white"/>
<path fill-rule="evenodd" clip-rule="evenodd" d="M84.5846 24.984C84.6029 24.9265 84.6029 24.8498 84.6029 24.7731C84.6029 24.8498 84.6029 24.9265 84.5846 24.984Z" fill="white"/>
</svg>
