<svg width="18" height="15" viewBox="0 0 18 15" fill="none" xmlns="http://www.w3.org/2000/svg">
<path d="M9.68428 1.88363L9.00095 2.56863L8.31428 1.88196C7.47421 1.042 6.33487 0.570158 5.1469 0.570236C3.95894 0.570314 2.81966 1.04231 1.9797 1.88238C1.13973 2.72245 0.667891 3.86179 0.667969 5.04976C0.668047 6.23772 1.14004 7.377 1.98011 8.21696L8.55928 14.7961C8.67647 14.9132 8.83532 14.9789 9.00095 14.9789C9.16657 14.9789 9.32543 14.9132 9.44261 14.7961L16.0276 8.2153C16.8667 7.37515 17.3379 6.23627 17.3378 5.04887C17.3376 3.86148 16.8661 2.72272 16.0268 1.8828C15.6104 1.46616 15.1161 1.13566 14.5719 0.910162C14.0278 0.684667 13.4445 0.568604 12.8555 0.568604C12.2665 0.568604 11.6833 0.684667 11.1391 0.910162C10.595 1.13566 10.1006 1.46616 9.68428 1.8828V1.88363Z" fill="#CF3D3D"/>
</svg>
