<svg width="472" height="102" viewBox="0 0 472 102" fill="none" xmlns="http://www.w3.org/2000/svg">
<path d="M39.0189 101.339C31.6301 101.339 25.0511 100.131 19.2817 97.7129C13.5124 95.2953 8.95765 92.0073 5.61751 87.8491C2.27737 83.594 0.404866 78.8555 0 73.6335H25.6583C25.962 76.4379 27.3284 78.7105 29.7576 80.4511C32.1868 82.1918 35.1727 83.0622 38.7153 83.0622C41.9542 83.0622 44.434 82.4819 46.1547 81.3215C47.9766 80.0643 48.8875 78.4687 48.8875 76.5346C48.8875 74.2137 47.6223 72.5214 45.0919 71.4576C42.5615 70.2971 38.4622 69.04 32.7941 67.6861C26.7211 66.3323 21.6603 64.93 17.6116 63.4795C13.563 61.9322 10.071 59.5629 7.13575 56.3717C4.20048 53.0837 2.73284 48.6837 2.73284 43.1715C2.73284 38.5297 4.04865 34.323 6.68028 30.5515C9.41312 26.6833 13.3606 23.6371 18.5226 21.4129C23.7858 19.1887 30.0107 18.0766 37.197 18.0766C47.8247 18.0766 56.1751 20.5909 62.2481 25.6196C68.4223 30.6482 71.9648 37.3208 72.8758 45.6375H48.8875C48.4826 42.833 47.1668 40.6088 44.9401 38.9648C42.8145 37.3208 39.9805 36.4989 36.4379 36.4989C33.4014 36.4989 31.0734 37.0791 29.454 38.2395C27.8345 39.3033 27.0248 40.8022 27.0248 42.7363C27.0248 45.0572 28.29 46.7979 30.8204 47.9584C33.452 49.1188 37.5007 50.2793 42.9664 51.4397C49.2418 52.987 54.3532 54.5343 58.3006 56.0816C62.2481 57.5321 65.6894 59.9497 68.6247 63.3344C71.6612 66.6224 73.23 71.0708 73.3313 76.6797C73.3313 81.4182 71.9142 85.6732 69.0802 89.4447C66.3473 93.1195 62.3493 96.0206 57.086 98.1481C51.924 100.276 45.9016 101.339 39.0189 101.339Z" fill="white"/>
<path d="M126.155 84.7444V100.179H109.072C99.6587 100.179 92.3206 98.003 87.0573 93.6513C81.7941 89.2029 79.1624 81.9984 79.1624 72.0378V39.8352H79.1474V19.2371H79.1624V0.404728L105.124 0.404728V19.2371H122.129V39.8352H105.124V72.3279C105.124 74.7456 105.732 76.4863 106.946 77.55C108.161 78.6138 110.185 79.1456 113.019 79.1456H119.569H121.037L126.155 79.2296V84.7444Z" fill="white"/>
<path d="M209.01 58.4025C209.01 60.7234 208.859 63.141 208.555 65.6553H149.799C150.204 70.684 151.874 74.5521 154.809 77.2599C157.846 79.8709 161.54 81.1764 165.892 81.1764C172.37 81.1764 176.874 78.5654 179.405 73.3434H207.037C205.62 78.6621 203.039 83.449 199.294 87.704C195.65 91.959 191.044 95.2953 185.478 97.7129C179.911 100.131 173.686 99.6445 166.803 99.6445C158.503 99.6445 151.115 99.647 144.637 96.2624C138.159 92.8777 133.098 88.0425 129.454 81.7567C125.811 75.4708 123.989 68.1213 123.989 59.708C123.989 51.2947 125.76 43.9451 129.302 37.6593C132.946 31.3735 138.007 26.5383 144.485 23.1536C150.963 19.7689 158.402 18.0766 166.803 18.0766C175.002 18.0766 182.289 19.7206 188.666 23.0086C195.043 26.2965 200.002 30.9867 203.545 37.0791C207.188 43.1715 209.01 50.2793 209.01 58.4025ZM182.441 51.8749C182.441 47.6199 180.923 44.2352 177.886 41.7209C174.85 39.2066 171.054 37.9494 166.5 37.9494C162.147 37.9494 158.453 39.1582 155.416 41.5759C152.481 43.9935 150.659 47.4265 149.951 51.8749H182.441Z" fill="white"/>
<path d="M209.953 59.5629C209.953 51.2463 211.573 43.9451 214.812 37.6593C218.152 31.3735 222.656 26.5383 228.324 23.1536C233.992 19.7689 240.318 18.0766 247.302 18.0766C253.274 18.0766 258.487 19.2371 262.94 21.558C267.495 23.8789 270.987 26.9251 273.416 30.6966V19.2371H299.378V100.179H273.416V88.7194C270.886 92.4909 267.343 95.5371 262.788 97.858C258.335 100.179 253.122 101.339 247.15 101.339C240.268 101.339 233.992 99.647 228.324 96.2624C222.656 92.781 218.152 87.8974 214.812 81.6116C211.573 75.2291 209.953 67.8795 209.953 59.5629ZM271.722 59.708C271.722 53.5189 269.9 48.6353 266.257 45.0572C262.714 41.4791 258.362 39.6901 253.2 39.6901C248.038 39.6901 243.635 41.4791 239.991 45.0572C236.448 48.5386 234.677 53.3738 234.677 59.5629C234.677 65.752 236.448 70.684 239.991 74.3587C243.635 77.9368 248.038 79.7259 253.2 79.7259C258.362 79.7259 262.714 77.9368 266.257 74.3587C269.9 70.7807 271.722 65.8971 271.722 59.708Z" fill="white"/>
<path d="M330.908 0V100.179H304.946V0L330.908 0Z" fill="white"/>
<path d="M379.977 79.1456V100.179H366.768C357.355 100.179 350.017 98.003 344.753 93.6513C339.49 89.2029 336.859 81.9984 336.859 72.0378V39.8352H336.844V19.2371H336.859V0.404728L362.821 0.404728V19.2371H379.825V39.8352H362.821V72.3279C362.821 74.7456 363.428 76.4863 364.642 77.55C365.857 78.6138 367.881 79.1456 370.715 79.1456H379.977Z" fill="white"/>
<path d="M438.923 18.3667C448.639 18.3667 456.433 21.4613 462.304 27.6504C468.174 33.7428 471.109 42.1561 471.109 52.8903V100.179H445.299V56.2266C445.299 50.8111 443.832 46.6045 440.896 43.6067C437.961 40.6088 434.014 39.1099 429.054 39.1099C424.094 39.1099 420.147 40.6088 417.212 43.6067C414.276 46.6045 412.809 50.8111 412.809 56.2266V100.179H386.847V0L412.809 0V30.1163C415.44 26.5383 419.034 23.6855 423.588 21.558C428.143 19.4305 433.254 18.3667 438.923 18.3667Z" fill="white"/>
</svg>
