<svg width="145" height="66" viewBox="0 0 145 66" fill="none" xmlns="http://www.w3.org/2000/svg">
<path d="M44.8907 25.0852C44.52 27.2161 43.9292 29.26 43.03 31.2167C41.5701 34.3955 39.4506 37.0643 36.7293 39.2756C35.2628 40.4676 33.6189 41.3404 31.9313 42.1496L31.9196 42.1554L31.7254 42.2476L31.3851 42.4084L31.1749 42.4955V41.7148C31.1733 41.6445 31.1733 41.5733 31.1741 41.5021C31.1749 41.43 31.1758 41.3588 31.1758 41.2868C31.1758 32.2127 31.159 23.1385 31.1901 14.0635C31.196 12.3447 30.743 10.821 29.716 9.46822C28.9655 8.47813 27.9914 7.76446 26.8585 7.2267C25.4937 6.58004 24.0666 6.48455 22.6144 6.62276C21.147 6.76265 19.8544 7.4093 18.614 8.17491C17.687 8.74701 16.7339 9.27557 15.7935 9.82673C14.4774 10.5974 13.1647 11.3755 11.846 12.142C10.6274 12.8506 9.42647 13.5953 8.17423 14.2419C5.23779 15.7581 3.78302 19.3808 4.41166 22.3436C4.75959 23.9795 5.48488 25.3675 6.72702 26.4765C8.05405 27.6609 9.64918 27.8946 11.3754 27.846C12.1394 27.8243 12.6327 27.8 13.6387 27.4373C14.8867 26.8308 14.7211 26.8208 15.2708 26.5293L16.0944 26.082V27.0084C16.0994 30.3355 16.0961 33.6626 16.1078 36.9897C16.1339 44.0468 16.144 51.1048 16.2146 58.1611C16.2356 60.2158 15.4464 61.8852 14.1841 63.4164C13.1092 64.7206 11.6763 65.5097 10.0828 65.8037C8.57764 66.0818 6.98671 66.1614 5.53614 65.3807C4.8596 65.0163 4.1007 64.7256 3.55443 64.2155C2.80645 63.5161 2.15344 62.686 1.58952 61.8274C0.783549 60.6003 0.607901 59.1947 0.615465 57.733C0.64488 52.053 0.627232 46.373 0.627232 40.6929C0.627232 35.0472 0.640677 29.4007 0.620507 23.7542C0.612943 21.743 0.833976 19.7511 1.28864 17.8111C1.67272 16.1744 2.27866 14.5778 2.90142 13.0081C3.94102 10.3863 5.59834 8.13637 7.57081 6.15201C8.61378 5.10244 9.85508 4.23465 11.0678 3.3702C12.4957 2.35163 14.0925 1.6321 15.7633 1.0935C17.513 0.529767 19.3065 0.157855 21.1445 0.0548256C23.1674 -0.0582558 25.1928 -0.0172117 27.1829 0.376479C28.9167 0.719074 30.6194 1.20239 32.2019 2.01993C33.0508 2.45885 33.9122 2.88186 34.7215 3.38528C36.5108 4.49683 38.1269 5.8203 39.5035 7.42606C40.6642 8.77884 41.7861 10.176 42.545 11.7826C43.2779 13.3348 43.9696 14.9447 44.3797 16.6024C45.0663 19.3767 45.3924 22.2003 44.8907 25.0852Z" fill="#A6A9AF"/>
<path d="M53.8323 17.4131C56.141 16.7588 57.919 15.9572 59.1663 15.0085V24.398C59.1663 24.627 59.1827 24.8778 59.2156 25.1504C59.2484 25.4122 59.2922 25.6575 59.3469 25.8865C59.4016 26.1046 59.4508 26.3064 59.4946 26.4918C59.5493 26.6772 59.5931 26.8298 59.6259 26.9498C59.6587 27.0589 59.6751 27.1188 59.6751 27.1297V27.1952H55.3751V27.1297C55.3751 27.1188 55.3915 27.0589 55.4243 26.9498C55.4571 26.8298 55.4954 26.6772 55.5392 26.4918C55.5939 26.3064 55.6486 26.1046 55.7033 25.8865C55.758 25.6575 55.8018 25.4122 55.8346 25.1504C55.8674 24.8778 55.8839 24.627 55.8839 24.398V17.9038H53.8323V17.4131Z" fill="#A6A9AF"/>
<path d="M64.0997 27.1297C64.0997 27.1188 64.1161 27.0589 64.1489 26.9498C64.1817 26.8298 64.2255 26.6772 64.2802 26.4918C64.3349 26.3064 64.3841 26.1046 64.4279 25.8865C64.4826 25.6575 64.5264 25.4122 64.5592 25.1504C64.592 24.8778 64.6084 24.627 64.6084 24.398V18.2146C64.6084 17.9856 64.592 17.7402 64.5592 17.4785C64.5264 17.2059 64.4826 16.9605 64.4279 16.7424C64.3841 16.5134 64.3349 16.3062 64.2802 16.1208C64.2255 15.9354 64.1817 15.7882 64.1489 15.6791C64.1161 15.5592 64.0997 15.4938 64.0997 15.4828V15.4174H70.0409C71.1898 15.4174 72.1308 15.7609 72.8639 16.448C73.5969 17.1241 73.9635 17.9584 73.9635 18.9507C73.9635 19.7468 73.7228 20.4284 73.2413 20.9955C72.7709 21.5517 72.1964 21.9497 71.518 22.1896C70.8506 22.4186 70.1339 22.5331 69.368 22.5331H67.8909V24.398C67.8909 24.627 67.9073 24.8778 67.9401 25.1504C67.973 25.4122 68.0113 25.6575 68.055 25.8865C68.1097 26.1046 68.1645 26.3064 68.2192 26.4918C68.2739 26.6772 68.3176 26.8298 68.3505 26.9498C68.3833 27.0589 68.3997 27.1188 68.3997 27.1297V27.1952H64.0997V27.1297ZM67.8909 21.6989H68.8757C69.2258 21.6989 69.5157 21.6062 69.7455 21.4208C69.9862 21.2354 70.1613 20.99 70.2707 20.6847C70.3801 20.3684 70.4512 20.0794 70.4841 19.8177C70.5278 19.5451 70.5497 19.2561 70.5497 18.9507C70.5497 18.6781 70.5278 18.4109 70.4841 18.1492C70.4512 17.8766 70.3801 17.5876 70.2707 17.2822C70.1613 16.9769 69.9862 16.7315 69.7455 16.5461C69.5157 16.3498 69.2258 16.2517 68.8757 16.2517H67.8909V21.6989Z" fill="#A6A9AF"/>
<path d="M74.5478 15.3193L75.0566 15.2538L78.1913 14.9267V20.1449C78.8478 19.2179 79.7177 18.7544 80.8009 18.7544C81.5887 18.7544 82.2397 18.9998 82.754 19.4906C83.2682 19.9704 83.5254 20.6302 83.5254 21.4699V24.398C83.5254 24.627 83.5418 24.8778 83.5746 25.1504C83.6074 25.4122 83.6512 25.6575 83.7059 25.8865C83.7606 26.1046 83.8098 26.3064 83.8536 26.4918C83.9083 26.6772 83.9521 26.8298 83.9849 26.9498C84.0177 27.0589 84.0341 27.1188 84.0341 27.1297V27.1952H79.931V27.1297C79.931 27.1188 79.9475 27.0589 79.9803 26.9498C80.0131 26.8298 80.0514 26.6772 80.0952 26.4918C80.1499 26.3064 80.2046 26.1046 80.2593 25.8865C80.314 25.6575 80.3578 25.4122 80.3906 25.1504C80.4234 24.8778 80.4398 24.627 80.4398 24.398V21.9115C80.4398 21.0609 80.0076 20.6356 79.1432 20.6356C78.8588 20.6356 78.5415 20.6901 78.1913 20.7992V24.398C78.1913 24.627 78.2077 24.8778 78.2406 25.1504C78.2734 25.4122 78.3117 25.6575 78.3555 25.8865C78.4102 26.1046 78.4649 26.3064 78.5196 26.4918C78.5743 26.6772 78.6181 26.8298 78.6509 26.9498C78.6837 27.0589 78.7001 27.1188 78.7001 27.1297V27.1952H74.597V27.1297C74.597 27.1188 74.6134 27.0589 74.6463 26.9498C74.6791 26.8298 74.7229 26.6772 74.7776 26.4918C74.8323 26.3064 74.8815 26.1046 74.9253 25.8865C74.98 25.6575 75.0238 25.4122 75.0566 25.1504C75.0894 24.8778 75.1058 24.627 75.1058 24.398V18.0511C75.1058 17.822 75.0839 17.5767 75.0402 17.3149C75.0073 17.0423 74.9636 16.8024 74.9089 16.5952C74.8542 16.3771 74.7994 16.1808 74.7447 16.0063C74.701 15.8209 74.6572 15.6737 74.6134 15.5646C74.5806 15.4556 74.5642 15.3956 74.5642 15.3847L74.5478 15.3193Z" fill="#A6A9AF"/>
<path d="M84.6113 24.6597C84.6113 23.8527 84.9176 23.1984 85.5303 22.6967C86.1431 22.1951 86.8762 21.9443 87.7296 21.9443C88.397 21.9443 89.0262 22.0642 89.617 22.3041V21.4044C89.617 21.0555 89.6116 20.7992 89.6006 20.6356C89.6006 20.472 89.5897 20.2921 89.5678 20.0958C89.5459 19.8995 89.5076 19.7632 89.4529 19.6869C89.4091 19.6105 89.3435 19.5723 89.256 19.5723C88.9824 19.5723 88.5229 19.7686 87.8773 20.1612C87.2427 20.5429 86.6737 20.9246 86.1704 21.3063L85.4155 21.8952H85.3334V19.3106C86.9637 18.9398 88.3369 18.7544 89.4529 18.7544C90.6018 18.7544 91.4279 19.0216 91.9312 19.556C92.4454 20.0794 92.7026 20.7774 92.7026 21.6498V24.4634C92.7026 25.0305 92.7518 25.3903 92.8503 25.543C92.9597 25.6848 93.08 25.7557 93.2113 25.7557C93.3536 25.7557 93.5286 25.7011 93.7365 25.5921L93.7858 25.6412C93.7529 26.1428 93.556 26.5572 93.1949 26.8844C92.8448 27.2006 92.3688 27.3588 91.7671 27.3588C90.7167 27.3588 90.0492 26.8844 89.7647 25.9356C89.5569 26.3173 89.2395 26.6499 88.8128 26.9334C88.397 27.217 87.8828 27.3588 87.2701 27.3588C86.4385 27.3588 85.7875 27.0861 85.317 26.5409C84.8465 25.9956 84.6113 25.3685 84.6113 24.6597ZM88.1399 25.2649C88.3478 25.5594 88.6487 25.7066 89.0426 25.7066C89.2724 25.7066 89.4803 25.6357 89.6663 25.4939C89.6334 25.3086 89.617 25.1177 89.617 24.9214V22.8603C89.4748 22.8167 89.3107 22.7949 89.1247 22.7949C88.2493 22.7949 87.8117 23.2529 87.8117 24.1689C87.8117 24.6161 87.9211 24.9814 88.1399 25.2649Z" fill="#A6A9AF"/>
<path d="M94.2298 18.918V18.8526H97.8241V20.6356C98.4149 19.3052 99.252 18.6399 100.335 18.6399C100.663 18.6399 101.014 18.6999 101.386 18.8199L100.893 22.0588H100.811C100.111 21.2518 99.4106 20.8483 98.7104 20.8483C98.4149 20.8483 98.1195 20.9192 97.8241 21.0609V24.398C97.8241 24.627 97.8405 24.8778 97.8733 25.1504C97.9062 25.4122 97.9499 25.6575 98.0046 25.8865C98.0593 26.1046 98.1086 26.3064 98.1524 26.4918C98.2071 26.6772 98.2508 26.8298 98.2837 26.9498C98.3165 27.0589 98.3329 27.1188 98.3329 27.1297V27.1952H94.2298V27.1297C94.2298 27.1188 94.2462 27.0589 94.279 26.9498C94.3119 26.8298 94.3502 26.6772 94.3939 26.4918C94.4486 26.3064 94.5033 26.1046 94.558 25.8865C94.6128 25.6575 94.6565 25.4122 94.6893 25.1504C94.7222 24.8778 94.7386 24.627 94.7386 24.398V21.6498C94.7386 21.4208 94.7222 21.1754 94.6893 20.9137C94.6565 20.6411 94.6128 20.3957 94.558 20.1776C94.5033 19.9486 94.4486 19.7414 94.3939 19.556C94.3502 19.3706 94.3119 19.2234 94.279 19.1143C94.2462 18.9944 94.2298 18.9289 94.2298 18.918Z" fill="#A6A9AF"/>
<path d="M101.955 27.1297C101.955 27.1188 101.972 27.0589 102.004 26.9498C102.037 26.8298 102.076 26.6772 102.119 26.4918C102.174 26.3064 102.229 26.1046 102.283 25.8865C102.338 25.6575 102.382 25.4122 102.415 25.1504C102.448 24.8778 102.464 24.627 102.464 24.398V21.6498C102.464 21.4208 102.448 21.1754 102.415 20.9137C102.382 20.6411 102.338 20.3957 102.283 20.1776C102.229 19.9486 102.174 19.7414 102.119 19.556C102.076 19.3706 102.037 19.2234 102.004 19.1143C101.972 18.9944 101.955 18.9289 101.955 18.918V18.8526H105.517V20.4557C106.184 19.3215 107.12 18.7544 108.323 18.7544C108.936 18.7544 109.45 18.9071 109.866 19.2125C110.293 19.5069 110.588 19.9377 110.752 20.5048C111.398 19.3379 112.339 18.7544 113.575 18.7544C114.352 18.7544 114.97 18.9944 115.43 19.4742C115.889 19.954 116.119 20.6193 116.119 21.4699V24.398C116.119 24.627 116.135 24.8778 116.168 25.1504C116.201 25.4122 116.245 25.6575 116.3 25.8865C116.354 26.1046 116.403 26.3064 116.447 26.4918C116.502 26.6772 116.546 26.8298 116.579 26.9498C116.611 27.0589 116.628 27.1188 116.628 27.1297V27.1952H112.558V27.1297C112.558 27.1188 112.574 27.0589 112.607 26.9498C112.64 26.8298 112.678 26.6772 112.722 26.4918C112.776 26.3064 112.831 26.1046 112.886 25.8865C112.94 25.6575 112.984 25.4122 113.017 25.1504C113.05 24.8778 113.066 24.627 113.066 24.398V21.9115C113.066 21.4971 112.94 21.1918 112.689 20.9955C112.437 20.7992 112.12 20.701 111.737 20.701C111.452 20.701 111.146 20.7556 110.818 20.8646C110.851 21.0609 110.867 21.2627 110.867 21.4699V24.398C110.867 24.627 110.883 24.8778 110.916 25.1504C110.949 25.4122 110.993 25.6575 111.048 25.8865C111.102 26.1046 111.152 26.3064 111.195 26.4918C111.25 26.6772 111.294 26.8298 111.327 26.9498C111.359 27.0589 111.376 27.1188 111.376 27.1297V27.1952H107.306V27.1297C107.306 27.1188 107.322 27.0589 107.355 26.9498C107.388 26.8298 107.426 26.6772 107.47 26.4918C107.524 26.3064 107.579 26.1046 107.634 25.8865C107.689 25.6575 107.732 25.4122 107.765 25.1504C107.798 24.8778 107.814 24.627 107.814 24.398V21.9115C107.814 21.4971 107.683 21.1918 107.42 20.9955C107.169 20.7992 106.846 20.701 106.452 20.701C106.135 20.701 105.823 20.761 105.517 20.881V24.398C105.517 24.627 105.533 24.8778 105.566 25.1504C105.599 25.4122 105.642 25.6575 105.697 25.8865C105.752 26.1046 105.801 26.3064 105.845 26.4918C105.9 26.6772 105.943 26.8298 105.976 26.9498C106.009 27.0589 106.025 27.1188 106.025 27.1297V27.1952H101.955V27.1297Z" fill="#A6A9AF"/>
<path d="M117.228 24.6597C117.228 23.8527 117.534 23.1984 118.147 22.6967C118.759 22.1951 119.493 21.9443 120.346 21.9443C121.013 21.9443 121.643 22.0642 122.233 22.3041V21.4044C122.233 21.0555 122.228 20.7992 122.217 20.6356C122.217 20.472 122.206 20.2921 122.184 20.0958C122.162 19.8995 122.124 19.7632 122.069 19.6869C122.026 19.6105 121.96 19.5723 121.872 19.5723C121.599 19.5723 121.139 19.7686 120.494 20.1612C119.859 20.5429 119.29 20.9246 118.787 21.3063L118.032 21.8952H117.95V19.3106C119.58 18.9398 120.953 18.7544 122.069 18.7544C123.218 18.7544 124.044 19.0216 124.548 19.556C125.062 20.0794 125.319 20.7774 125.319 21.6498V24.4634C125.319 25.0305 125.368 25.3903 125.467 25.543C125.576 25.6848 125.696 25.7557 125.828 25.7557C125.97 25.7557 126.145 25.7011 126.353 25.5921L126.402 25.6412C126.369 26.1428 126.172 26.5572 125.811 26.8844C125.461 27.2006 124.985 27.3588 124.383 27.3588C123.333 27.3588 122.666 26.8844 122.381 25.9356C122.173 26.3173 121.856 26.6499 121.429 26.9334C121.013 27.217 120.499 27.3588 119.886 27.3588C119.055 27.3588 118.404 27.0861 117.933 26.5409C117.463 25.9956 117.228 25.3685 117.228 24.6597ZM120.756 25.2649C120.964 25.5594 121.265 25.7066 121.659 25.7066C121.889 25.7066 122.097 25.6357 122.283 25.4939C122.25 25.3086 122.233 25.1177 122.233 24.9214V22.8603C122.091 22.8167 121.927 22.7949 121.741 22.7949C120.866 22.7949 120.428 23.2529 120.428 24.1689C120.428 24.6161 120.537 24.9814 120.756 25.2649Z" fill="#A6A9AF"/>
<path d="M127.946 19.8831C128.755 19.1307 129.833 18.7544 131.179 18.7544C131.518 18.7544 131.874 18.7872 132.246 18.8526C132.629 18.918 132.941 18.9835 133.181 19.0489C133.422 19.1143 133.696 19.2016 134.002 19.3106C134.319 19.4088 134.516 19.4687 134.593 19.4906L134.642 22.3532H134.56C134.133 21.688 133.608 21.05 132.984 20.4393C132.361 19.8177 131.786 19.5069 131.261 19.5069C130.462 19.5069 130.063 20.303 130.063 21.8952C130.063 21.9388 130.063 21.9824 130.063 22.026C130.096 24.2835 130.916 25.4122 132.525 25.4122C133.28 25.4122 134.084 25.1722 134.937 24.6924L135.003 24.7415C134.795 25.3958 134.347 26.001 133.657 26.5572C132.979 27.1134 132.125 27.3915 131.097 27.3915C130.681 27.3915 130.271 27.3369 129.866 27.2279C129.461 27.1297 129.067 26.9662 128.684 26.7372C128.301 26.5081 127.962 26.2301 127.667 25.9029C127.382 25.5757 127.153 25.1668 126.977 24.676C126.802 24.1853 126.715 23.6455 126.715 23.0566C126.715 21.7043 127.125 20.6465 127.946 19.8831Z" fill="#A6A9AF"/>
<path d="M135.156 18.918V18.8526H139.981V18.918L139.915 19.0652C139.882 19.1634 139.844 19.2888 139.8 19.4415C139.757 19.5942 139.724 19.7414 139.702 19.8831C139.68 20.0249 139.669 20.1449 139.669 20.243C139.669 20.3412 139.68 20.4775 139.702 20.652C139.724 20.8156 139.779 20.99 139.866 21.1754L141.163 23.8745L142.279 21.2081C142.366 21.0119 142.415 20.8428 142.426 20.701C142.437 20.5484 142.443 20.4448 142.443 20.3902C142.443 20.2376 142.426 20.0849 142.394 19.9322C142.361 19.7686 142.322 19.6105 142.279 19.4578C142.235 19.3052 142.191 19.1798 142.147 19.0816L142.082 18.918V18.8526H144.462V18.918C144.462 18.9289 144.423 18.9889 144.347 19.098C144.281 19.207 144.193 19.3488 144.084 19.5233C143.986 19.6978 143.876 19.8886 143.756 20.0958C143.646 20.303 143.526 20.532 143.395 20.7828C143.263 21.0228 143.154 21.2518 143.066 21.4699L140.112 28.373C139.686 29.409 139.22 30.0142 138.717 30.1887C138.225 30.3741 137.809 30.4668 137.47 30.4668C136.923 30.4668 136.294 30.3414 135.582 30.0905L136.173 27.3097L136.222 27.2933C136.551 27.6423 136.868 27.9258 137.174 28.1439C137.492 28.373 137.754 28.5147 137.962 28.5692C138.17 28.6347 138.323 28.6674 138.422 28.6674C138.597 28.6674 138.783 28.6129 138.98 28.5038C139.177 28.3948 139.352 28.1548 139.505 27.7841L139.587 27.5878L136.616 21.3717C136.518 21.1645 136.398 20.941 136.255 20.701C136.124 20.4502 135.998 20.2267 135.878 20.0304C135.757 19.8341 135.643 19.6541 135.533 19.4906C135.424 19.327 135.331 19.1961 135.254 19.098C135.189 18.9889 135.156 18.9289 135.156 18.918Z" fill="#A6A9AF"/>
<path d="M54.2754 42.7353V42.6371C54.2754 42.6262 54.3083 42.5335 54.3739 42.359C54.4505 42.1846 54.538 41.961 54.6365 41.6884C54.735 41.4048 54.8335 41.0995 54.9319 40.7723C55.0304 40.4342 55.1125 40.0635 55.1781 39.66C55.2547 39.2565 55.293 38.8802 55.293 38.5313V33.7547C55.293 33.5257 55.2657 33.2804 55.211 33.0186C55.1672 32.746 55.107 32.5006 55.0304 32.2825C54.9538 32.0535 54.8772 31.8463 54.8006 31.6609C54.7241 31.4755 54.6584 31.3283 54.6037 31.2192C54.5599 31.0993 54.538 31.0339 54.538 31.0229V30.9575H58.477L63.7454 38.7276V35.1452C63.7454 34.7962 63.7071 34.42 63.6305 34.0165C63.5648 33.613 63.4828 33.2476 63.3843 32.9205C63.2858 32.5933 63.1874 32.2934 63.0889 32.0208C62.9904 31.7372 62.9029 31.5082 62.8263 31.3338C62.7606 31.1593 62.7278 31.0666 62.7278 31.0557V30.9575H65.6V31.0557C65.6 31.0666 65.5617 31.1593 65.4851 31.3338C65.4194 31.5082 65.3374 31.7372 65.2389 32.0208C65.1404 32.2934 65.042 32.5933 64.9435 32.9205C64.845 33.2476 64.7575 33.613 64.6809 34.0165C64.6152 34.42 64.5824 34.7962 64.5824 35.1452V42.7353H62.5309L56.13 33.3949V38.5313C56.13 38.8802 56.1629 39.2565 56.2285 39.66C56.3051 40.0635 56.3926 40.4342 56.4911 40.7723C56.5896 41.0995 56.6881 41.4048 56.7865 41.6884C56.885 41.961 56.9671 42.1846 57.0327 42.359C57.1093 42.5335 57.1476 42.6262 57.1476 42.6371V42.7353H54.2754Z" fill="#A6A9AF"/>
<path d="M67.0886 35.4233C67.8983 34.6708 68.9761 34.2945 70.3219 34.2945C71.0659 34.2945 71.7114 34.42 72.2585 34.6708C72.8056 34.9216 73.2214 35.2597 73.5059 35.685C73.8013 36.0994 74.0146 36.541 74.146 37.01C74.2772 37.468 74.3429 37.9533 74.3429 38.4658H69.2879C69.5067 40.1234 70.3 40.9523 71.6677 40.9523C72.4226 40.9523 73.2269 40.7123 74.0803 40.2325L74.146 40.2816C73.949 40.925 73.5059 41.5302 72.8165 42.0973C72.1272 42.6535 71.2683 42.9316 70.2398 42.9316C69.7146 42.9316 69.2004 42.8498 68.697 42.6862C68.1937 42.5117 67.7232 42.2554 67.2856 41.9174C66.8589 41.5793 66.5142 41.1267 66.2516 40.5597C65.989 39.9817 65.8577 39.3274 65.8577 38.5967C65.8577 37.2444 66.268 36.1866 67.0886 35.4233ZM69.2058 37.4026C69.2058 37.5443 69.2168 37.757 69.2386 38.0405L71.323 37.3862C71.323 35.8267 70.9729 35.047 70.2726 35.047C69.5614 35.047 69.2058 35.7886 69.2058 37.2717C69.2058 37.3153 69.2058 37.3589 69.2058 37.4026Z" fill="#A6A9AF"/>
<path d="M74.6511 34.3927C76.2924 33.5421 77.7148 32.5061 78.9184 31.2847V34.3927H81.1176V35.2106H78.9184L78.9348 39.7745C78.9348 40.5379 79.2849 40.9195 79.9852 40.9195C80.2587 40.9195 80.6088 40.8432 81.0355 40.6905C80.5432 42.1846 79.6241 42.9316 78.2783 42.9316C77.5233 42.9316 76.927 42.6862 76.4893 42.1955C76.0626 41.7047 75.8492 40.9904 75.8492 40.0526V35.2106H74.6511V34.3927Z" fill="#A6A9AF"/>
<path d="M81.3667 34.3927H85.995V34.4581L85.9458 34.6217C85.913 34.7199 85.8801 34.8507 85.8473 35.0143C85.8254 35.167 85.8036 35.3196 85.7817 35.4723C85.7707 35.625 85.7653 35.7668 85.7653 35.8976C85.7653 35.9849 85.7707 36.1103 85.7817 36.2739C85.7926 36.4374 85.8309 36.6174 85.8966 36.8137L86.7992 39.5618L87.8332 36.6992C87.7019 36.3938 87.5378 36.0558 87.3408 35.685C87.1439 35.3142 86.9852 35.0198 86.8649 34.8016C86.7445 34.5835 86.6843 34.469 86.6843 34.4581V34.3927H91.3126V34.4581L91.2634 34.6217C91.2306 34.7199 91.1977 34.8507 91.1649 35.0143C91.143 35.167 91.1212 35.3196 91.0993 35.4723C91.0883 35.625 91.0829 35.7668 91.0829 35.8976C91.0829 35.9849 91.0883 36.1103 91.0993 36.2739C91.1102 36.4374 91.1485 36.6174 91.2142 36.8137L92.1168 39.5618L93.118 36.781C93.1836 36.5847 93.2219 36.4102 93.2329 36.2575C93.2438 36.0939 93.2493 35.974 93.2493 35.8976C93.2493 35.7559 93.2383 35.6086 93.2165 35.456C93.1946 35.3033 93.1618 35.1506 93.118 34.9979C93.0852 34.8453 93.0523 34.7199 93.0195 34.6217L92.9539 34.4581V34.3927H95.1695V34.4745C94.6334 35.3469 94.2122 36.203 93.9058 37.0427L91.8378 42.7353H90.0817L88.2435 37.8115L86.3561 42.7353H84.7641L82.6469 37.0427C82.5266 36.7046 82.357 36.3229 82.1381 35.8976C81.9193 35.4723 81.7333 35.1288 81.5801 34.8671C81.4379 34.6054 81.3667 34.469 81.3667 34.4581V34.3927Z" fill="#A6A9AF"/>
<path d="M96.4529 35.3578C97.3173 34.649 98.4005 34.2945 99.7026 34.2945C101.005 34.2945 102.088 34.6544 102.952 35.3742C103.828 36.083 104.265 37.1408 104.265 38.5476C104.265 39.9762 103.822 41.0668 102.936 41.8192C102.06 42.5608 100.983 42.9316 99.7026 42.9316C98.4114 42.9316 97.3282 42.5608 96.4529 41.8192C95.5885 41.0668 95.1563 39.9762 95.1563 38.5476C95.1563 37.1299 95.5885 36.0667 96.4529 35.3578ZM98.6029 38.5476C98.6029 40.9686 98.9695 42.1791 99.7026 42.1791C100.447 42.1791 100.819 40.9686 100.819 38.5476C100.819 36.203 100.447 35.0307 99.7026 35.0307C98.9695 35.0307 98.6029 36.203 98.6029 38.5476Z" fill="#A6A9AF"/>
<path d="M104.792 34.4581V34.3927H108.386V36.1757C108.977 34.8453 109.814 34.18 110.897 34.18C111.226 34.18 111.576 34.24 111.948 34.36L111.455 37.5989H111.373C110.673 36.7919 109.973 36.3884 109.273 36.3884C108.977 36.3884 108.682 36.4593 108.386 36.601V39.9381C108.386 40.1671 108.403 40.4179 108.436 40.6905C108.468 40.9523 108.512 41.1976 108.567 41.4266C108.622 41.6447 108.671 41.8465 108.715 42.0319C108.769 42.2173 108.813 42.3699 108.846 42.4899C108.879 42.599 108.895 42.6589 108.895 42.6698V42.7353H104.792V42.6698C104.792 42.6589 104.808 42.599 104.841 42.4899C104.874 42.3699 104.912 42.2173 104.956 42.0319C105.011 41.8465 105.066 41.6447 105.12 41.4266C105.175 41.1976 105.219 40.9523 105.252 40.6905C105.284 40.4179 105.301 40.1671 105.301 39.9381V37.1899C105.301 36.9609 105.284 36.7155 105.252 36.4538C105.219 36.1812 105.175 35.9358 105.12 35.7177C105.066 35.4887 105.011 35.2815 104.956 35.0961C104.912 34.9107 104.874 34.7635 104.841 34.6544C104.808 34.5345 104.792 34.469 104.792 34.4581Z" fill="#A6A9AF"/>
<path d="M112.277 30.8594L112.786 30.7939L115.921 30.4668V39.9381C115.921 40.1671 115.937 40.4179 115.97 40.6905C116.003 40.9523 116.041 41.1976 116.085 41.4266C116.139 41.6447 116.194 41.8465 116.249 42.0319C116.303 42.2173 116.347 42.3699 116.38 42.4899C116.413 42.599 116.429 42.6589 116.429 42.6698V42.7353H112.326V42.6698C112.326 42.6589 112.343 42.599 112.375 42.4899C112.408 42.3699 112.452 42.2173 112.507 42.0319C112.561 41.8465 112.611 41.6447 112.654 41.4266C112.709 41.1976 112.753 40.9523 112.786 40.6905C112.819 40.4179 112.835 40.1671 112.835 39.9381V33.5912C112.835 33.3621 112.813 33.1168 112.769 32.855C112.737 32.5824 112.693 32.3425 112.638 32.1353C112.583 31.9172 112.529 31.7209 112.474 31.5464C112.43 31.361 112.386 31.2138 112.343 31.1047C112.31 30.9957 112.293 30.9357 112.293 30.9248L112.277 30.8594ZM117.939 36.8137C118.147 36.6283 118.295 36.432 118.382 36.2248C118.481 36.0176 118.53 35.8267 118.53 35.6523C118.53 35.6305 118.525 35.565 118.514 35.456C118.514 35.3469 118.492 35.216 118.448 35.0634C118.415 34.8998 118.377 34.7635 118.333 34.6544L118.251 34.4745V34.3927H121.796V34.4745L118.727 37.1572L121.845 42.6535V42.7353H118.284L116.134 38.4331L117.939 36.8137Z" fill="#A6A9AF"/>
</svg>
