<svg width="110" height="50" viewBox="0 0 110 50" fill="none" xmlns="http://www.w3.org/2000/svg">
<path d="M32.4449 49.1869C59.3139 49.1869 51.1118 41.4578 51.1118 31.5492C51.1118 23.7303 44.8329 16.9897 34.8207 16.9897C32.8854 16.9897 30.8375 17.2134 28.9521 17.6607C28.4742 17.774 28.0165 17.3925 28.2104 17.0274L31.4505 10.9283C31.5389 10.7619 31.7442 10.6537 31.9717 10.6537H51.9264C52.1935 10.6537 52.4242 10.5052 52.4797 10.2976L54.8698 1.3552C54.9445 1.07569 54.6762 0.8125 54.3165 0.8125H23.8295C23.6003 0.8125 23.3938 0.922295 23.3065 1.09056L9.60312 27.4909C9.44959 27.7867 9.72332 28.1116 10.1261 28.1116H23.2556C23.3821 28.1116 23.5038 28.0786 23.6065 28.0199C24.2828 27.6334 27.0789 26.1568 30.3237 26.1568C36.1783 26.1568 38.2995 29.3923 38.2995 32.3581C38.2995 36.4024 33.9722 39.3682 29.0509 39.3682C24.9984 39.3682 8.34813 39.3682 5.66018 39.3682C5.43099 39.3682 5.23604 39.4781 5.14875 39.6465L0.523771 48.5664C0.370415 48.8622 0.633365 49.1869 1.03602 49.1869C5.13281 49.1869 23.2959 49.1869 32.4449 49.1869Z" fill="#A6A9AF"/>
<path d="M31.3532 48.3518C30.9957 48.6346 31.2478 49.1195 31.7523 49.1195H52.16C52.3108 49.1195 52.4553 49.0717 52.5615 48.9867L68.411 36.3032C68.6746 36.0922 69.1188 36.1391 69.304 36.3975L78.259 48.8925C78.3596 49.0328 78.5473 49.1195 78.7506 49.1195H97.1439C97.5794 49.1195 97.8515 48.745 97.6337 48.4454L82.0356 26.992C81.9116 26.8214 81.9419 26.6065 82.1104 26.4619L100.647 10.5545C100.982 10.2668 100.725 9.79985 100.232 9.79985H79.898C79.7313 9.79985 79.5731 9.85825 79.4656 9.95945L73.6171 15.4663C73.3569 15.7113 72.867 15.6674 72.682 15.3826L63.3776 1.05583C63.2805 0.90639 63.0866 0.8125 62.8749 0.8125L44.6985 0.8125C44.2726 0.8125 43.9995 1.17223 44.1981 1.47148L59.9841 25.252C60.1 25.4265 60.059 25.6407 59.8829 25.78L31.3532 48.3518Z" fill="#A6A9AF"/>
<path d="M80.9118 7.92484C80.7983 8.11785 80.9757 8.33918 81.2438 8.33918H101.93C102.079 8.33918 102.223 8.29201 102.329 8.208L109.832 2.25388C110.189 1.97098 109.937 1.48633 109.433 1.48633L88.6126 1.48633C88.4427 1.48633 88.2818 1.547 88.1744 1.65156L80.9599 7.86402C80.9408 7.88264 80.9247 7.90307 80.9118 7.92484Z" fill="#A6A9AF"/>
</svg>
