<svg width="157" height="40" viewBox="0 0 157 40" fill="none" xmlns="http://www.w3.org/2000/svg">
<g clip-path="url(#clip0_261_20963)">
<path d="M122.882 22.4001C122.947 22.8163 123.001 23.1652 123.053 23.4987C122.742 23.6977 122.461 23.8916 122.166 24.0648C122.065 24.1242 121.936 24.163 121.82 24.1708C121.551 24.1863 121.282 24.1811 121.013 24.1759C120.677 24.1682 120.395 24.2767 120.155 24.512C119.511 25.1453 118.886 25.7837 118.402 26.5644C117.986 27.2338 117.469 27.8413 117.004 28.4797C116.846 28.6943 116.686 28.914 116.565 29.1492C115.849 30.5606 115.145 31.9797 114.437 33.3962C114.052 34.1665 113.393 34.58 112.576 34.717C112.041 34.8075 111.521 34.6524 111.147 34.2388C110.808 33.8666 110.436 33.634 109.919 33.6392C109.583 33.6417 109.342 33.4582 109.107 33.2204C107.357 31.4549 105.587 29.7076 103.842 27.9343C103.519 27.6061 103.219 27.5104 102.792 27.6888C102.415 27.8465 102.017 27.9628 101.624 28.0817C101.461 28.1308 101.285 28.1592 101.115 28.1618C100.624 28.1721 100.133 28.1721 99.6414 28.1618C99.4863 28.1592 99.3234 28.1385 99.1761 28.0894C98.7108 27.9292 98.243 27.9964 97.7803 28.0145C97.5683 29.3586 96.9996 30.5657 96.6223 31.8323C96.5706 32.0029 96.4387 32.1632 96.3095 32.295C95.7124 32.9076 95.1153 33.5202 94.4923 34.1044C94.2054 34.3733 93.8668 34.5878 93.5359 34.7998C92.5485 35.4305 91.4654 35.8466 90.3048 35.9552C89.1856 36.0612 88.0612 35.9914 86.9755 35.6243C86.5878 35.4925 86.1923 35.3891 85.8046 35.2521C85.0756 34.9936 84.5923 34.4094 84.0365 33.9183C83.8142 33.7219 83.579 33.5099 83.3102 33.4013C82.6588 33.1377 82.1909 32.6388 81.6713 32.2097C81.2423 31.8556 80.7718 31.7548 80.2755 32.0288C79.5001 32.4553 78.722 32.887 77.9853 33.3729C76.8635 34.1096 75.6408 34.6266 74.3846 35.0505C73.5807 35.3245 72.738 35.4692 71.8721 35.4873C70.8356 35.5106 69.8145 35.4046 68.8064 35.2082C68.1912 35.0893 67.5941 34.8566 67.0099 34.6188C66.4826 34.4043 65.9863 34.1174 65.4771 33.8615C65.4073 33.8253 65.3117 33.8046 65.2729 33.7477C64.9912 33.3419 64.5698 33.4143 64.1614 33.3884C63.2464 33.329 62.3856 33.497 61.5248 33.8098C60.0825 34.3345 58.6091 34.7687 57.1642 35.2831C55.8614 35.7484 54.5095 36.0017 53.1705 36.3145C50.9837 36.8237 48.7943 37.3226 46.605 37.8241C46.0957 37.9404 45.5865 38.0515 45.0747 38.1627C44.9506 38.1885 44.8266 38.2118 44.7025 38.2247C43.1438 38.3721 41.5826 38.5065 40.0239 38.6641C38.6849 38.7986 37.3459 38.933 36.0147 39.1191C35.0506 39.2535 34.089 39.2354 33.1249 39.238C31.0492 39.2406 28.9735 39.2096 26.8979 39.2483C25.3392 39.2768 23.7986 39.132 22.258 38.9614C20.4176 38.7546 18.5746 38.5737 16.7393 38.3281C15.8501 38.2092 14.9713 37.9869 14.0924 37.7879C11.9263 37.2967 9.82739 36.5937 7.84221 35.5933C6.91424 35.1255 5.98886 34.6111 5.16687 33.9804C3.86409 32.9774 2.63369 31.8711 1.76259 30.4417C1.22494 29.5628 0.769999 28.6374 0.475323 27.65C-0.111443 25.6803 -0.152801 23.6771 0.333155 21.6919C0.764829 19.929 1.50669 18.2953 2.64662 16.8504C3.59268 15.6536 4.57235 14.493 5.83635 13.6193C6.75915 12.9808 7.72331 12.4018 8.66162 11.7866C9.85324 11.006 11.2155 10.6183 12.526 10.1116C14.2992 9.42923 16.1371 8.95362 17.9465 8.39011C19.4431 7.92484 20.9734 7.75165 22.5088 7.55261C24.4242 7.30705 26.337 7.05632 28.2524 6.82368C28.7849 6.75906 29.3251 6.72804 29.8602 6.72545C32.0159 6.71512 34.1691 6.71253 36.3249 6.73062C36.6635 6.73321 37.0125 6.82368 37.3382 6.92707C37.7027 7.04339 37.9431 7.41562 37.9198 7.71288C37.8914 8.04632 37.5527 8.39011 37.1728 8.46249C37.0177 8.49092 36.86 8.52453 36.7049 8.52711C35.2005 8.55813 33.6987 8.60724 32.1943 8.59949C31.0182 8.59173 29.8602 8.66152 28.7021 8.87607C26.6808 9.24829 24.6465 9.55072 22.6277 9.93845C20.079 10.4296 17.5613 11.0577 15.1471 12.0244C14.444 12.3062 13.7874 12.6991 13.0973 13.0145C11.6833 13.6581 10.334 14.4155 9.04418 15.2866C8.16791 15.8785 7.41829 16.5997 6.73072 17.3855C6.07416 18.1351 5.4693 18.9261 4.96525 19.7946C4.10707 21.2731 3.67023 22.8396 3.82015 24.5559C3.99334 26.5411 4.76363 28.2497 6.19823 29.6429C6.73072 30.1599 7.28388 30.6588 7.84997 31.1396C8.12396 31.3722 8.44449 31.5557 8.76243 31.7315C9.74468 32.2743 10.7243 32.8172 11.7221 33.3316C12.7974 33.8873 13.9865 34.1199 15.1316 34.4741C17.1555 35.0996 19.2518 35.2935 21.3327 35.5804C22.7595 35.7768 24.1889 35.95 25.6158 36.1258C25.82 36.1516 26.0268 36.1568 26.231 36.1568C30.4598 36.1568 34.6913 36.1723 38.9201 36.1465C39.7706 36.1413 40.6184 35.9888 41.4662 35.8906C42.5028 35.7717 43.5419 35.6528 44.5758 35.5028C45.0411 35.4356 45.4883 35.2366 45.9536 35.1875C48.9133 34.8799 51.7359 33.9829 54.587 33.2152C55.7011 32.9154 56.81 32.5819 57.906 32.2226C58.6246 31.9848 59.3406 31.7134 60.0179 31.38C60.7003 31.0439 61.194 30.4804 61.4938 29.7722C61.5585 29.6197 61.5533 29.4336 61.5636 29.2604C61.6593 27.5595 61.3956 25.8819 61.194 24.2018C61.057 23.0722 60.9536 21.9374 60.8321 20.8053C60.7882 20.3968 60.7287 19.9884 60.6796 19.58C60.6641 19.456 60.6357 19.3215 60.6615 19.2026C60.8088 18.484 60.5865 17.7887 60.54 17.0805C60.5219 16.7806 60.478 16.4834 60.478 16.1835C60.4728 14.157 60.4909 12.1278 60.4676 10.1013C60.4547 8.9898 60.5374 7.88865 60.7106 6.79266C60.8786 5.73803 60.8192 4.67565 60.8114 3.61585C60.8088 3.15833 60.8864 2.74733 61.1113 2.34668C61.3904 1.85038 61.6567 1.34375 61.8738 0.819019C62.3132 -0.245948 63.5488 -0.132214 64.1562 0.317554C64.2829 0.413194 64.3889 0.588966 64.4251 0.744058C64.4949 1.05424 64.6267 1.30756 64.8723 1.50143C65.2884 1.8297 65.4771 2.27947 65.6555 2.76543C66.2061 4.26207 66.4439 5.82333 66.7075 7.38201C66.7825 7.81886 66.8471 8.25828 66.9272 8.69254C67.0901 9.56882 67.1133 10.4528 67.1082 11.3395C67.0953 13.0817 67.103 14.8239 67.1082 16.5661C67.1082 17.4527 67.1159 18.3367 66.9402 19.213C66.6171 20.8363 66.5705 22.4803 66.6248 24.1294C66.6377 24.4887 66.5602 24.8092 66.3922 25.1272C66.0019 25.869 65.627 26.6212 65.2677 27.3786C65.1773 27.5699 65.1256 27.7973 65.1204 28.0119C65.1023 28.7253 65.1204 29.4361 65.1101 30.1496C65.1049 30.3874 65.1824 30.558 65.3401 30.7389C66.007 31.5066 66.8393 31.9254 67.819 32.2071C69.0649 32.5664 70.3134 32.5975 71.5774 32.5535C71.9962 32.538 72.4123 32.3855 72.8285 32.2976C74.93 31.8478 76.742 30.7932 78.4816 29.5938C79.1175 29.1544 79.5647 28.5289 79.8232 27.7948C80.1644 26.8254 80.4823 25.8483 80.7977 24.8687C80.9217 24.4835 81.1156 24.1578 81.4129 23.8735C82.0306 23.2842 82.6174 22.6586 83.2352 22.0693C83.411 21.9012 83.6359 21.7565 83.8633 21.6712C84.4992 21.4334 85.1506 21.2318 85.7968 21.0224C85.9442 20.9759 86.1044 20.9629 86.2595 20.9397C86.306 20.9319 86.3551 20.9397 86.4017 20.9397C87.2728 20.9448 88.1542 20.8647 89.0098 20.9836C89.8473 21.0973 90.6486 21.4515 91.4809 21.6298C92.5924 21.8651 93.6238 22.2864 94.6138 22.824C95.1282 23.1032 95.6555 23.3617 96.188 23.6073C96.3819 23.6977 96.6068 23.7624 96.8187 23.7649C97.863 23.7804 98.9099 23.7624 99.9542 23.7779C100.355 23.783 100.624 23.6409 100.766 23.2635C100.805 23.1601 100.849 23.0567 100.892 22.9585C101.205 22.2683 102.229 21.5962 102.963 21.7125C103.604 21.8159 104.214 22.0744 104.522 22.7362C104.56 22.8215 104.599 22.9119 104.61 23.005C104.71 23.8916 105.111 24.6309 105.749 25.228C106.359 25.7966 106.83 26.4455 107.187 27.2054C107.812 28.5366 108.497 29.842 109.151 31.1628C109.28 31.4239 109.441 31.6514 109.704 31.791C110.087 31.9926 110.371 31.9383 110.601 31.5816C110.824 31.2378 111.038 30.8863 111.222 30.5218C111.987 29.0096 112.742 27.4923 113.499 25.9776C113.54 25.8923 113.564 25.7811 113.631 25.7269C114.013 25.4218 113.951 25.0005 113.951 24.5921C113.951 24.3543 113.951 24.1165 113.951 23.8787C113.949 23.5762 114.057 23.2997 114.282 23.1187C114.931 22.594 115.701 22.3458 116.51 22.8525C116.627 22.9249 116.717 23.0412 116.802 23.1497C116.999 23.4005 117.221 23.5633 117.567 23.522C117.787 23.4961 118.012 23.5065 118.232 23.5194C118.524 23.5349 118.79 23.478 119.051 23.3358C119.214 23.248 119.408 23.2195 119.589 23.1652C119.902 23.0696 119.961 22.8447 119.71 22.6198C119.385 22.3277 119.149 21.9736 118.997 21.5704C118.607 20.539 119.121 19.3267 120.137 18.802C121.119 18.2928 122.404 18.5564 123.047 19.5257C123.606 20.3658 123.652 21.2188 123.047 22.1468C122.978 22.2528 122.905 22.3562 122.882 22.3924V22.4001ZM87.8647 31.8246C88.33 31.8246 88.7281 31.853 89.1184 31.8142C89.3794 31.7884 89.6353 31.6695 89.8887 31.5868C90.1885 31.4885 90.4935 31.3981 90.7856 31.2792C91.5688 30.9664 92.0806 30.3486 92.5201 29.6688C92.6622 29.4491 92.7966 29.1777 92.807 28.9243C92.838 28.1282 92.9543 27.314 92.4554 26.5824C92.2435 26.2723 92.1194 25.9026 91.9359 25.5692C91.8377 25.3934 91.7291 25.1944 91.5714 25.0832C91.1992 24.8222 90.7856 24.6205 90.4031 24.375C89.6017 23.8632 88.7384 23.7003 87.7872 23.7339C87.1177 23.7572 86.5077 23.8451 85.939 24.1992C85.7244 24.331 85.5021 24.4344 85.223 24.3801C85.1041 24.3569 84.9567 24.4422 84.8326 24.5042C84.1399 24.848 83.641 25.4012 83.3179 26.0836C83.0904 26.5618 82.925 27.0839 82.832 27.6061C82.7518 28.0507 82.819 28.5211 82.8139 28.9786C82.8113 29.263 82.9095 29.5085 83.1008 29.7101C83.5661 30.2064 84.0313 30.7053 84.6957 30.9457C84.874 31.0103 85.0394 31.106 85.2049 31.199C86.0527 31.6747 86.9393 31.9693 87.857 31.822L87.8647 31.8246Z" fill="#A6A9AF"/>
<path d="M143.679 21.126C144.163 21.126 144.623 21.1053 145.08 21.1312C145.667 21.1622 146.161 21.4207 146.618 21.7903C147.66 22.6304 148.143 23.8272 148.704 24.9775C148.769 25.1119 148.766 25.2851 148.766 25.4401C148.772 26.3268 148.712 27.2185 148.785 28.1C148.872 29.1649 149.221 30.1446 150.196 30.7546C150.625 31.0235 151.07 31.2639 151.519 31.4939C151.667 31.5689 151.853 31.5896 152.021 31.5921C153.019 31.5999 154.016 31.6025 155.014 31.5921C155.229 31.5896 155.443 31.512 155.66 31.4732C156.071 31.3983 156.475 31.3466 156.823 31.6671C156.994 31.8248 157.054 31.9928 156.945 32.2177C156.749 32.6313 156.449 32.9595 156.053 33.1715C155.428 33.5101 154.784 33.8203 154.143 34.1279C153.993 34.2003 153.812 34.2339 153.644 34.2365C152.566 34.2468 151.488 34.2649 150.413 34.2287C150.08 34.2184 149.754 34.0426 149.42 33.9521C148.627 33.735 147.854 33.6962 147.079 34.084C146.288 34.4794 145.468 34.8155 144.656 35.1644C144.532 35.2187 144.38 35.2213 144.238 35.2213C142.576 35.2239 140.911 35.2368 139.249 35.2136C138.895 35.2084 138.541 35.0766 138.194 34.9809C137.814 34.8749 137.434 34.7638 137.07 34.6113C135.801 34.0814 134.759 33.3111 134.325 31.9204C134.227 31.6077 134.105 31.3001 133.976 30.9356C133.774 31.0442 133.616 31.1346 133.454 31.2173C131.797 32.0471 130.15 32.8923 128.48 33.6936C128.018 33.9159 127.498 34.0685 126.989 34.1408C126.04 34.2752 125.296 33.8642 124.75 33.0965C124.559 32.8277 124.404 32.5305 124.251 32.2358C123.931 31.618 123.621 30.995 123.318 30.3669C123.246 30.2144 123.192 30.0386 123.192 29.8706C123.184 28.0173 123.187 26.1665 123.189 24.3131C123.189 24.2666 123.202 24.2201 123.223 24.0908C123.298 24.264 123.352 24.3674 123.388 24.4786C124.014 26.3526 124.631 28.2318 125.265 30.1033C125.43 30.597 125.616 31.0881 126.009 31.4629C126.275 31.7162 126.674 31.7757 127.004 31.6077C128.361 30.9227 129.726 30.2532 131.073 29.5501C131.939 29.0952 132.792 28.6144 133.624 28.0974C133.953 27.8932 134.216 27.5753 134.485 27.2857C134.837 26.9109 135.24 26.6266 135.705 26.4043C136.69 25.9339 137.662 25.4298 138.641 24.9464C138.877 24.8301 139.058 24.6802 139.189 24.4476C139.443 24.0081 139.737 23.5945 139.988 23.1551C140.154 22.8656 140.389 22.695 140.676 22.5373C141.513 22.0772 142.415 21.78 143.312 21.475C143.55 21.3948 143.548 21.3897 143.679 21.1286V21.126ZM142.371 24.2873C142.281 24.3597 142.229 24.3959 142.185 24.4398C141.144 25.4815 140.102 26.5206 139.06 27.5649C138.983 27.6425 138.903 27.7252 138.853 27.8234C138.38 28.7565 137.894 29.6819 137.458 30.6306C137.284 31.0054 137.274 31.4603 137.471 31.8222C137.62 32.0988 137.9 32.3495 138.179 32.5072C139.065 33.0061 139.983 33.43 141.048 33.3369C141.33 33.3111 141.619 33.3473 141.904 33.3318C142.692 33.2878 143.398 32.957 144.114 32.67C144.171 32.6468 144.217 32.5951 144.261 32.5511C144.62 32.1944 144.985 31.8429 145.334 31.4758C145.44 31.3647 145.522 31.2199 145.584 31.0778C145.858 30.4522 146.042 29.8112 145.977 29.1081C145.933 28.6376 145.975 28.1594 145.964 27.6838C145.962 27.5287 145.957 27.3581 145.892 27.2211C145.522 26.4508 145.135 25.6883 144.752 24.9232C144.644 24.706 144.46 24.5949 144.222 24.582C143.951 24.5665 143.69 24.5716 143.442 24.7241C143.243 24.8456 143.025 24.9335 142.795 25.0472C142.653 24.7939 142.521 24.5639 142.366 24.2899L142.371 24.2873Z" fill="#A6A9AF"/>
<path d="M127.736 18.5669C129.008 18.5643 130.027 19.5724 130.029 20.8416C130.034 22.1108 129.021 23.1292 127.754 23.1344C126.475 23.1395 125.477 22.1366 125.467 20.8597C125.457 19.5672 126.506 18.5488 127.736 18.5695V18.5669Z" fill="#A6A9AF"/>
</g>
<defs>
<clipPath id="clip0_261_20963">
<rect width="157" height="39.2565" fill="white"/>
</clipPath>
</defs>
</svg>
