<svg width="162" height="84" viewBox="0 0 162 84" fill="none" xmlns="http://www.w3.org/2000/svg">
<path d="M16.9448 65.9062C16.9448 65.9062 16.931 65.8833 16.9219 65.8741C16.0046 65.1587 15.014 64.6083 13.95 64.2323C12.886 63.8562 11.7624 63.6636 10.5884 63.6636C9.57026 63.6636 8.57966 63.8103 7.61656 64.0947C7.29553 64.191 6.98826 64.3056 6.68558 64.4341C6.66723 64.4432 6.64889 64.4478 6.63054 64.4524C6.60761 64.4616 6.58927 64.4753 6.56634 64.4845C5.98848 64.7322 5.43814 65.0302 4.91074 65.3971C4.88781 65.4109 4.87405 65.4338 4.85112 65.4522C4.33747 65.8053 3.84675 66.1905 3.39731 66.6354C2.51218 67.5205 1.8105 68.5524 1.28768 69.7127C1.27851 69.731 1.26934 69.7402 1.26016 69.7586C1.25099 69.7815 1.24182 69.8044 1.23265 69.8228C1.22806 69.8365 1.21889 69.8503 1.2143 69.8595C1.19137 69.9145 1.17303 69.9741 1.1501 70.0292C1.10423 70.153 1.05379 70.2768 1.01251 70.4006C0.810721 70.9601 0.663964 71.538 0.563069 72.1342C0.540138 72.2672 0.521794 72.3956 0.503449 72.5286C0.489691 72.657 0.471346 72.7854 0.462174 72.9138C0.434657 73.2165 0.420898 73.5146 0.420898 73.8173C0.420898 74.4548 0.480518 75.0647 0.590586 75.6655C0.604344 75.7343 0.608931 75.8031 0.622689 75.8719C0.631861 75.9178 0.64562 75.959 0.654792 76.0049C0.78779 76.6149 0.971236 77.2111 1.2143 77.7797C1.22347 77.7981 1.23265 77.8118 1.24182 77.8302C1.24182 77.8302 1.25099 77.8669 1.26016 77.8806C1.26934 77.899 1.27851 77.9082 1.28768 77.9265C1.28768 77.9311 1.29227 77.9357 1.29685 77.9448C1.55368 78.5181 1.85636 79.0593 2.20032 79.5638C2.22784 79.605 2.25994 79.6417 2.28746 79.6784C2.4388 79.8894 2.59015 80.1003 2.75525 80.3021C2.95704 80.5452 3.168 80.7791 3.39272 81.0038C3.39731 81.0038 3.40189 81.013 3.40648 81.0176C3.65872 81.2698 3.92013 81.4991 4.1953 81.7193C4.20906 81.7284 4.21823 81.7376 4.23199 81.7468C4.50257 81.9623 4.78691 82.1641 5.08043 82.3567C5.28222 82.4897 5.48859 82.6181 5.69955 82.7374C5.72707 82.7557 5.75459 82.7695 5.78211 82.7832C6.03434 82.9208 6.29117 83.0446 6.55258 83.1593C6.57551 83.1685 6.59844 83.1822 6.62137 83.1914C6.63972 83.2006 6.65806 83.2052 6.6764 83.2143C6.90571 83.3106 7.13961 83.3978 7.38267 83.4757C7.49274 83.5124 7.60281 83.5491 7.71287 83.5812C7.93301 83.6454 8.15314 83.7051 8.37786 83.7509C8.52004 83.783 8.66679 83.8059 8.81355 83.8289C8.97406 83.8564 9.13917 83.8793 9.30427 83.9022C9.42351 83.916 9.54275 83.9298 9.66657 83.9435C9.96467 83.971 10.2628 83.9848 10.5655 83.9848C11.7395 83.9848 12.8631 83.7968 13.9271 83.4161C14.9911 83.0355 15.9817 82.4897 16.8989 81.7743C16.9998 81.6734 17.0594 81.5541 17.0778 81.4166C17.0961 81.279 17.0594 81.1552 16.9585 81.0588C16.8806 80.9213 16.7476 80.8479 16.5687 80.8479C16.4311 80.8479 16.3211 80.8892 16.2385 80.9671C14.5829 82.2833 12.6934 82.9392 10.5609 82.9392C10.2719 82.9392 9.99219 82.9208 9.71243 82.8979C9.64823 82.8933 9.58861 82.8841 9.5244 82.8795C9.27216 82.852 9.02451 82.8153 8.77686 82.7695C8.75393 82.7695 8.731 82.7603 8.70807 82.7557C8.66679 82.7465 8.6301 82.7328 8.58883 82.7236C8.34118 82.6686 8.09352 82.609 7.85046 82.531C7.63491 82.4622 7.41936 82.3797 7.2084 82.2925C7.14419 82.265 7.07999 82.2467 7.01578 82.2191C6.8782 82.1595 6.75437 82.0907 6.62137 82.0265C5.68121 81.5679 4.84195 80.9855 4.11733 80.2608C3.70458 79.8481 3.3331 79.3987 3.00749 78.9171C2.79652 78.6007 2.60849 78.2659 2.43422 77.9219C2.33791 77.7385 2.24619 77.555 2.15905 77.3624C1.68209 76.2571 1.44361 75.0785 1.44361 73.8219C1.44361 73.776 1.4482 73.7256 1.4482 73.6797C1.46654 72.4782 1.70043 71.3454 2.15905 70.2814C2.63601 69.1761 3.29183 68.2085 4.11733 67.3829C4.94284 66.5574 5.91052 65.9016 7.01578 65.4247C7.56153 65.1908 8.12563 65.0119 8.70807 64.8927C8.73559 64.8881 8.75852 64.8835 8.78603 64.8789C9.0291 64.8331 9.27216 64.7964 9.51982 64.7688C9.58402 64.7643 9.64823 64.7551 9.71243 64.7505C9.9876 64.7276 10.2674 64.7092 10.5517 64.7092H10.5609C12.6934 64.7092 14.5875 65.365 16.2385 66.6813C16.3165 66.7592 16.4266 66.8005 16.5687 66.8005C16.5687 66.8005 16.5962 66.8005 16.61 66.8005C16.7659 66.7913 16.8806 66.7225 16.954 66.5941C17.0044 66.5437 17.0365 66.4886 17.0594 66.429C17.0732 66.3877 17.0686 66.3419 17.0686 66.296C17.0686 66.2731 17.0778 66.2548 17.0732 66.2318C17.0549 66.1034 16.9998 65.9979 16.9173 65.9016L16.9448 65.9062Z" fill="#A6A9AF"/>
<path d="M37.4405 65.9472C36.7343 65.2409 35.9042 64.6814 34.9594 64.2732C34.0147 63.8651 33.0012 63.6587 31.928 63.6587H24.636C24.4984 63.6587 24.3792 63.7091 24.2783 63.81C24.1774 63.9109 24.127 64.0302 24.127 64.1677C24.127 64.3283 24.1774 64.4567 24.2783 64.5576C24.3792 64.6585 24.4984 64.7089 24.636 64.7089H31.928C32.8636 64.7089 33.7395 64.8832 34.5559 65.2317C35.3722 65.5803 36.0876 66.0618 36.7068 66.681C37.3259 67.3001 37.8074 68.0155 38.156 68.8319C38.5045 69.6482 38.6788 70.5241 38.6788 71.4597C38.6788 72.3953 38.5045 73.2804 38.156 74.1059C37.8074 74.9314 37.3259 75.6515 36.7068 76.2568C36.0876 76.8668 35.3722 77.3483 34.5559 77.7061C33.7395 78.0638 32.8636 78.2426 31.928 78.2426C31.4877 78.2426 31.0612 78.1738 30.6439 78.0317C30.2265 77.8941 29.8551 77.6923 29.5386 77.4355L25.1772 74.0601V68.3228C25.1772 68.1623 25.1267 68.0385 25.0258 67.9513C24.9249 67.8596 24.7965 67.8183 24.636 67.8183C24.4984 67.8183 24.3792 67.8642 24.2783 67.9513C24.1774 68.043 24.127 68.1669 24.127 68.3228V83.4754C24.127 83.613 24.1774 83.7323 24.2783 83.8332C24.3792 83.934 24.4984 83.9845 24.636 83.9845C24.7965 83.9845 24.9249 83.934 25.0258 83.8332C25.1267 83.7323 25.1772 83.613 25.1772 83.4754V75.3763L36.0555 83.7735C36.1335 83.8515 36.2344 83.8928 36.3536 83.8928C36.5508 83.8928 36.693 83.824 36.771 83.6818C36.8719 83.5809 36.9085 83.4617 36.8902 83.3241C36.8719 83.1865 36.7985 83.0673 36.6792 82.9664L31.8959 79.2608H31.928C33.0057 79.2608 34.0147 79.059 34.9594 78.6462C35.9042 78.2381 36.7343 77.6785 37.4405 76.9723C38.1468 76.266 38.7063 75.4359 39.1145 74.4912C39.5227 73.5464 39.729 72.5329 39.729 71.4597C39.729 70.3866 39.5227 69.373 39.1145 68.4283C38.7063 67.4835 38.1468 66.6534 37.4405 65.9472Z" fill="#A6A9AF"/>
<path d="M60.0774 63.6636C59.9169 63.6636 59.7931 63.714 59.706 63.8149C59.6142 63.9158 59.573 64.0351 59.573 64.1726V79.7426C59.573 80.1829 59.4858 80.5956 59.3207 80.9809C59.151 81.3707 58.9171 81.7101 58.619 81.999C58.3209 82.2879 57.977 82.5172 57.5872 82.6869C57.1973 82.8566 56.7846 82.9392 56.3489 82.9392C56.2113 82.9392 56.0921 82.9896 55.9912 83.0905C55.8903 83.1914 55.8398 83.3198 55.8398 83.4803C55.8398 83.6179 55.8903 83.7372 55.9912 83.838C56.0921 83.9389 56.2113 83.9894 56.3489 83.9894C56.9268 83.9894 57.4725 83.8793 57.9907 83.6592C58.509 83.439 58.963 83.1364 59.3528 82.7465C59.7427 82.3567 60.0453 81.9073 60.2655 81.389C60.4856 80.8708 60.5957 80.3251 60.5957 79.7472V64.1772C60.5957 64.0397 60.5452 63.9204 60.4443 63.8195C60.3434 63.7186 60.2242 63.6682 60.0866 63.6682L60.0774 63.6636Z" fill="#A6A9AF"/>
<path d="M51.0251 82.9392C50.5848 82.9392 50.1721 82.8566 49.7868 82.6869C49.397 82.5172 49.0576 82.2879 48.7687 81.999C48.4798 81.7101 48.2505 81.3707 48.0808 80.9809C47.9111 80.5911 47.8285 80.1783 47.8285 79.7426V64.1726C47.8285 64.0351 47.7781 63.9158 47.6772 63.8149C47.5763 63.714 47.4479 63.6636 47.2874 63.6636C47.1498 63.6636 47.0306 63.714 46.9297 63.8149C46.8288 63.9158 46.7783 64.0351 46.7783 64.1726V79.7426C46.7783 80.3205 46.8884 80.8708 47.1085 81.3845C47.3287 81.9027 47.6313 82.3567 48.0212 82.742C48.411 83.1318 48.8604 83.4345 49.3833 83.6546C49.9015 83.8747 50.4472 83.9848 51.0251 83.9848C51.1627 83.9848 51.2819 83.9344 51.3828 83.8335C51.4837 83.7326 51.5342 83.6133 51.5342 83.4757C51.5342 83.3152 51.4837 83.1868 51.3828 83.0859C51.2819 82.985 51.1627 82.9346 51.0251 82.9346V82.9392Z" fill="#A6A9AF"/>
<path d="M81.0138 65.9467C80.3075 65.2404 79.4774 64.6809 78.5327 64.2727C77.5879 63.8646 76.5744 63.6582 75.5012 63.6582H68.2093C68.0717 63.6582 67.9524 63.7086 67.8515 63.8095C67.7506 63.9104 67.7002 64.0297 67.7002 64.1673C67.7002 64.3278 67.7506 64.4562 67.8515 64.5571C67.9524 64.658 68.0717 64.7084 68.2093 64.7084H75.5012C76.4368 64.7084 77.3128 64.8827 78.1291 65.2312C78.9454 65.5798 79.6609 66.0613 80.28 66.6805C80.8991 67.2996 81.3807 68.015 81.7292 68.8314C82.0778 69.6477 82.252 70.5237 82.252 71.4592C82.252 72.3948 82.0778 73.2799 81.7292 74.1054C81.3807 74.931 80.8991 75.651 80.28 76.2564C79.6609 76.8663 78.9454 77.3479 78.1291 77.7056C77.3128 78.0633 76.4368 78.2421 75.5012 78.2421C75.061 78.2421 74.6344 78.1734 74.2171 78.0312C73.7998 77.8936 73.4283 77.6918 73.1119 77.435L68.7504 74.0596V68.3223C68.7504 68.1618 68.7 68.038 68.5991 67.9508C68.4982 67.8591 68.3698 67.8178 68.2093 67.8178C68.0717 67.8178 67.9524 67.8637 67.8515 67.9508C67.7506 68.0426 67.7002 68.1664 67.7002 68.3223V83.4749C67.7002 83.6125 67.7506 83.7318 67.8515 83.8327C67.9524 83.9336 68.0717 83.984 68.2093 83.984C68.3698 83.984 68.4982 83.9336 68.5991 83.8327C68.7 83.7318 68.7504 83.6125 68.7504 83.4749V75.3758L79.6288 83.773C79.7067 83.851 79.8076 83.8923 79.9269 83.8923C80.1241 83.8923 80.2662 83.8235 80.3442 83.6813C80.4451 83.5804 80.4818 83.4612 80.4634 83.3236C80.4451 83.186 80.3717 83.0668 80.2525 82.9659L75.4691 79.2603H75.4966C76.5744 79.2603 77.5833 79.0585 78.5281 78.6457C79.4728 78.2376 80.3029 77.6781 81.0092 76.9718C81.7155 76.2655 82.275 75.4354 82.6831 74.4907C83.0913 73.5459 83.2977 72.5324 83.2977 71.4592C83.2977 70.3861 83.0913 69.3725 82.6831 68.4278C82.275 67.483 81.7155 66.653 81.0092 65.9467H81.0138Z" fill="#A6A9AF"/>
<path d="M96.9865 63.9617C96.8856 63.7645 96.7251 63.6636 96.5095 63.6636C96.2711 63.6636 96.1014 63.7645 96.0005 63.9617L90.7402 75.7985L87.3923 83.2694C87.351 83.3886 87.351 83.517 87.3923 83.6592C87.4336 83.7968 87.5207 83.8977 87.6629 83.9573C87.7225 83.9756 87.7913 83.9848 87.8738 83.9848C88.094 83.9848 88.2499 83.8839 88.3508 83.6867L91.5473 76.514H97.0186C97.1791 76.514 97.3075 76.4635 97.4084 76.3626C97.5093 76.2617 97.5598 76.1425 97.5598 76.0049C97.5598 75.8444 97.5093 75.716 97.4084 75.6151C97.3075 75.5142 97.1791 75.4637 97.0186 75.4637H92.0289L96.5141 65.3926L104.645 83.6821C104.746 83.8839 104.902 83.9802 105.122 83.9802C105.223 83.9802 105.292 83.971 105.333 83.9527C105.471 83.8931 105.567 83.7922 105.618 83.6546C105.668 83.517 105.663 83.384 105.604 83.2648L96.9957 63.9571L96.9865 63.9617Z" fill="#A6A9AF"/>
<path d="M123.078 63.6636H106.549C106.412 63.6636 106.292 63.714 106.191 63.8149C106.09 63.9158 106.04 64.0351 106.04 64.1726C106.04 64.3332 106.09 64.4616 106.191 64.5625C106.292 64.6634 106.412 64.7138 106.549 64.7138H123.078C123.215 64.7138 123.334 64.6634 123.435 64.5625C123.536 64.4616 123.587 64.3332 123.587 64.1726C123.587 64.0351 123.536 63.9158 123.435 63.8149C123.334 63.714 123.215 63.6636 123.078 63.6636Z" fill="#A6A9AF"/>
<path d="M114.831 67.7861C114.671 67.7861 114.542 67.8366 114.441 67.9375C114.34 68.0384 114.29 68.1668 114.29 68.3273V83.4799C114.29 83.6175 114.34 83.7368 114.441 83.8377C114.542 83.9385 114.671 83.989 114.831 83.989C114.969 83.989 115.088 83.9385 115.189 83.8377C115.29 83.7368 115.34 83.6175 115.34 83.4799V68.3273C115.34 68.1668 115.29 68.0384 115.189 67.9375C115.088 67.8366 114.969 67.7861 114.831 67.7861Z" fill="#A6A9AF"/>
<path d="M130.489 64.7089H139.184C139.344 64.7089 139.468 64.6585 139.555 64.5576C139.647 64.4567 139.688 64.3283 139.688 64.1677C139.688 64.0302 139.643 63.9109 139.555 63.81C139.464 63.7091 139.34 63.6587 139.184 63.6587H130.489C130.351 63.6587 130.232 63.7091 130.131 63.81C130.03 63.9109 129.979 64.0302 129.979 64.1677C129.979 64.3283 130.03 64.4567 130.131 64.5576C130.232 64.6585 130.351 64.7089 130.489 64.7089Z" fill="#A6A9AF"/>
<path d="M140.294 82.9391H133.63C132.915 82.9391 132.3 82.6869 131.791 82.1779C131.282 81.6688 131.03 81.0588 131.03 80.3388V74.331H135.391C135.731 74.331 135.9 74.1613 135.9 73.8219C135.9 73.4825 135.731 73.3128 135.391 73.3128H131.03V68.0525C131.03 67.9149 130.979 67.7957 130.878 67.6948C130.777 67.5939 130.649 67.5435 130.489 67.5435C130.351 67.5435 130.232 67.5939 130.131 67.6948C130.03 67.7957 129.979 67.9149 129.979 68.0525V80.4535C129.998 80.9304 130.103 81.3844 130.291 81.8155C130.479 82.2421 130.741 82.6181 131.066 82.9346C131.397 83.2556 131.773 83.5078 132.204 83.6959C132.63 83.8839 133.084 83.9802 133.566 83.9802H140.289C140.427 83.9802 140.546 83.9298 140.647 83.8289C140.748 83.728 140.798 83.6087 140.798 83.4711C140.798 83.3106 140.748 83.1822 140.647 83.0813C140.546 82.9804 140.427 82.93 140.289 82.93L140.294 82.9391Z" fill="#A6A9AF"/>
<path d="M161.184 69.8908C160.647 68.6479 159.918 67.5656 159.001 66.6484C158.084 65.7311 157.001 65.0065 155.758 64.4654C154.511 63.9288 153.195 63.6582 151.796 63.6582C151.2 63.6582 150.636 63.7729 150.108 64.0022C149.581 64.2315 149.118 64.5433 148.719 64.9423C148.32 65.3413 148.008 65.8045 147.779 66.3319C147.549 66.8593 147.435 67.4234 147.435 68.0196V79.407C147.435 79.5675 147.485 79.696 147.586 79.7969C147.687 79.8978 147.806 79.9482 147.944 79.9482C148.104 79.9482 148.233 79.8978 148.333 79.7969C148.434 79.696 148.485 79.5675 148.485 79.407V68.0196C148.485 67.561 148.577 67.1345 148.755 66.7355C148.934 66.3365 149.173 65.988 149.471 65.6899C149.769 65.3918 150.117 65.1533 150.516 64.9744C150.915 64.7956 151.342 64.7038 151.801 64.7038C153.057 64.7038 154.24 64.9423 155.359 65.4193C156.474 65.8962 157.446 66.5521 158.272 67.3776C159.097 68.2031 159.753 69.1753 160.23 70.2898C160.707 71.4042 160.945 72.592 160.945 73.844C160.945 74.9218 160.767 75.9491 160.409 76.9397C160.051 77.9257 159.547 78.82 158.9 79.6134C158.253 80.4114 157.483 81.0902 156.598 81.6451C155.713 82.2046 154.74 82.5898 153.685 82.8099C153.488 82.8512 153.287 82.8787 153.089 82.9017C152.892 82.92 152.69 82.9338 152.493 82.9338H147.948C147.811 82.9338 147.691 82.9842 147.59 83.0851C147.49 83.186 147.439 83.3144 147.439 83.4749C147.439 83.6125 147.49 83.7318 147.59 83.8327C147.691 83.9336 147.811 83.984 147.948 83.984H152.493C152.933 83.984 153.401 83.9336 153.896 83.8327H153.929C155.084 83.5942 156.153 83.1585 157.143 82.5348C158.129 81.9065 158.983 81.1544 159.698 80.2784C160.413 79.4024 160.977 78.4118 161.386 77.3066C161.794 76.2013 162 75.0502 162 73.8532C162 72.459 161.73 71.1382 161.193 69.8954L161.184 69.8908Z" fill="#A6A9AF"/>
<path d="M76.3999 15.0873C78.0877 14.1288 79.9955 13.6426 82.073 13.6426C85.0265 13.6426 87.4801 14.5278 89.3604 16.2705L89.6218 15.9861C87.6681 14.1746 85.1274 13.2528 82.073 13.2528C79.9267 13.2528 77.9547 13.7573 76.2073 14.7479C76.1936 14.7571 76.1798 14.7662 76.1615 14.7754L75.8313 14.3351C75.868 14.3168 75.9001 14.2893 75.9367 14.2709C77.7666 13.2345 79.8304 12.7071 82.073 12.7071C85.2696 12.7071 87.9341 13.6747 89.9979 15.5872L90.2593 15.3028C88.1267 13.3262 85.3705 12.3218 82.073 12.3218C79.7616 12.3218 77.6336 12.8676 75.7487 13.9361C75.6983 13.9637 75.6524 13.9958 75.602 14.0279L72.9007 10.4277H72.5201L75.3405 14.1838C73.6437 15.234 72.2724 16.6328 71.268 18.3618C70.4563 19.7605 69.9427 21.3015 69.7409 22.9525L68.0898 24.6035L69.75 26.2637C69.9564 27.8964 70.4655 29.4236 71.2726 30.8086C72.3595 32.6751 73.8638 34.1656 75.7533 35.2342C77.6382 36.3074 79.7708 36.8485 82.0776 36.8485C85.3017 36.8485 88.0167 35.8579 90.1584 33.918L90.7867 34.7572H91.1673L76.3999 15.0827V15.0873ZM71.5983 18.559C72.5751 16.8759 73.9143 15.5138 75.5699 14.4956L75.9001 14.9359C74.2995 15.9082 73.0108 17.2152 72.0706 18.8341C71.291 20.1687 70.8094 21.6546 70.6397 23.246L70.6122 23.5074L70.1169 23.0121C70.3141 21.4116 70.8094 19.9165 71.5983 18.559ZM68.6402 24.6081L69.9014 23.3469L71.1626 24.6081L69.9014 25.8693L68.6402 24.6081ZM89.9245 33.6153C87.8516 35.5048 85.2145 36.4679 82.0776 36.4679C79.835 36.4679 77.7712 35.9405 75.9413 34.904C74.1115 33.8675 72.6531 32.4229 71.6028 30.6205C70.8232 29.2768 70.3279 27.7955 70.1261 26.2087L70.6168 25.718L70.6489 25.9564C70.8232 27.5387 71.3047 29.0154 72.0798 30.3454C73.0796 32.0652 74.4692 33.441 76.2165 34.427C77.9592 35.4177 79.9359 35.9221 82.0822 35.9221C85.0999 35.9221 87.6268 35.0003 89.5989 33.1796L89.9291 33.6199L89.9245 33.6153ZM89.365 32.8678C87.4617 34.6334 85.0081 35.5277 82.0776 35.5277C80.0001 35.5277 78.0876 35.0416 76.4045 34.0831C74.7214 33.1292 73.3777 31.7992 72.4146 30.139C71.667 28.8549 71.2038 27.4286 71.0341 25.8968L70.9654 25.3602L71.7267 24.5989L70.9699 23.8422L71.0341 23.2735C71.1993 21.7372 71.667 20.3063 72.4146 19.0176C73.1438 17.761 74.0931 16.697 75.2397 15.8394L86.9481 31.4185H87.3287L75.4873 15.6651C75.6983 15.5138 75.9184 15.3716 76.1431 15.234L89.3696 32.8586L89.365 32.8678Z" fill="#A6A9AF"/>
<path d="M105.495 24.6076C105.495 11.3262 94.685 0.516602 81.4035 0.516602C68.1221 0.516602 57.3125 11.3262 57.3125 24.6076C57.3125 37.8891 68.1221 48.6987 81.4035 48.6987C94.685 48.6987 105.495 37.8891 105.495 24.6076ZM105.054 24.6076C105.054 31.0191 102.486 36.8389 98.3264 41.104L96.9552 39.7328C100.762 35.8208 103.114 30.4825 103.114 24.6076C103.114 18.7328 100.72 13.2936 96.8497 9.36787L98.2209 7.99661C102.445 12.2709 105.054 18.1412 105.054 24.6076ZM81.4035 45.8782C69.6768 45.8782 60.133 36.3344 60.133 24.6076C60.133 12.8809 69.6768 3.33708 81.4035 3.33708C93.1303 3.33708 102.674 12.8809 102.674 24.6076C102.674 36.3344 93.1303 45.8782 81.4035 45.8782ZM81.4035 0.956875C87.8196 0.956875 93.644 3.5297 97.9091 7.68934L96.5378 9.0606C92.6258 5.24951 87.2876 2.89681 81.4081 2.89681C75.5287 2.89681 70.195 5.2495 66.283 9.05601L64.9118 7.68475C69.1769 3.52512 74.9967 0.956875 81.4081 0.956875H81.4035ZM57.7528 24.6076C57.7528 18.1366 60.3669 12.2663 64.5953 7.99202L65.9666 9.36328C62.0913 13.2844 59.6973 18.6732 59.6973 24.6076C59.6973 30.5421 62.05 35.8254 65.8611 39.7373L64.4898 41.1086C60.3302 36.8435 57.7574 31.0191 57.7574 24.6031L57.7528 24.6076ZM66.1638 40.0538C70.0849 43.9245 75.4691 46.3185 81.4035 46.3185C87.338 46.3185 92.7267 43.9199 96.6479 40.0446L98.0192 41.4159C93.7449 45.6397 87.8746 48.2584 81.4035 48.2584C74.9325 48.2584 69.0668 45.6443 64.7925 41.425L66.1638 40.0538Z" fill="#A6A9AF"/>
</svg>
