<svg width="176" height="60" viewBox="0 0 176 60" fill="none" xmlns="http://www.w3.org/2000/svg">
<path d="M27.4629 59.0695C25.4819 59.0695 23.5009 58.5597 21.733 57.5391L6.47207 48.7282C2.93839 46.688 0.742188 42.8849 0.742188 38.8046V21.1836C0.742188 17.1023 2.93742 13.3002 6.47207 11.26L21.733 2.44906C25.2667 0.408906 29.6582 0.408906 33.1918 2.44906L48.4528 11.2591C51.9865 13.2992 54.1827 17.1023 54.1827 21.1827V38.8046C54.1827 42.8859 51.9875 46.688 48.4528 48.7282L33.1918 57.5391C31.425 58.5597 29.444 59.0695 27.4629 59.0695ZM27.4629 4.73637C26.1419 4.73637 24.8209 5.07655 23.6433 5.75693L8.38236 14.5679C6.02625 15.9286 4.56276 18.4631 4.56276 21.1836V38.8055C4.56276 41.5261 6.02625 44.0615 8.38236 45.4213L23.6433 54.2322C25.9994 55.592 28.9264 55.592 31.2825 54.2322L46.5435 45.4213C48.8996 44.0605 50.3631 41.5261 50.3631 38.8055V21.1836C50.3631 18.4631 48.8996 15.9277 46.5435 14.5679L31.2825 5.75693C30.104 5.07655 28.7839 4.73637 27.4629 4.73637Z" fill="#A6A9AF"/>
<path d="M12.1556 21.0334C11.4956 21.0334 10.854 20.6912 10.5002 20.0777C9.97298 19.1638 10.286 17.9959 11.199 17.4687L25.4026 9.26829C26.3156 8.74105 27.4844 9.0541 28.0117 9.96708C28.5389 10.881 28.2259 12.0489 27.3129 12.5762L13.1093 20.7765C12.8079 20.951 12.4793 21.0334 12.1556 21.0334Z" fill="#A6A9AF"/>
<path d="M81.7343 18.6095C79.9531 18.6095 78.3248 19.0683 76.8495 19.9859C75.3921 20.8855 74.2316 22.1 73.368 23.6294C72.5223 25.1407 72.0995 26.769 72.0995 28.5143C72.0995 30.2775 72.5313 31.9148 73.3949 33.4261C74.2586 34.9375 75.4011 36.143 76.8225 37.0426C78.2618 37.9242 79.8092 38.365 81.4645 38.365C82.436 38.365 83.2997 38.2751 84.0553 38.0951C84.829 37.9152 85.5667 37.6273 86.2684 37.2315V30.8892H79.5753V30.1066H87.159V36.6647L87.213 36.6378V37.6363C86.3494 38.1581 85.4587 38.5359 84.5411 38.7698C83.6415 39.0217 82.652 39.1477 81.5724 39.1477C79.6832 39.1477 77.947 38.6889 76.3637 37.7713C74.7803 36.8357 73.5209 35.5582 72.5853 33.9389C71.6677 32.3016 71.2089 30.4664 71.2089 28.4333C71.2089 26.4721 71.6857 24.6819 72.6393 23.0626C73.6108 21.4433 74.8973 20.1659 76.4986 19.2303C78.1179 18.2947 79.8362 17.8269 81.6534 17.8269C82.9128 17.8269 83.9114 17.9438 84.6491 18.1777C85.3868 18.3936 86.2414 18.7805 87.213 19.3382V20.3368C86.2954 19.7071 85.4408 19.2662 84.6491 19.0144C83.8754 18.7445 82.9038 18.6095 81.7343 18.6095ZM96.1539 38.9048C95.0024 38.9048 93.9319 38.6169 92.9423 38.0412C91.9528 37.4654 91.1701 36.6917 90.5943 35.7202C90.0186 34.7306 89.7307 33.669 89.7307 32.5355C89.7307 31.402 90.0186 30.3495 90.5943 29.3779C91.1701 28.3883 91.9528 27.6057 92.9423 27.0299C93.9319 26.4541 95.0024 26.1663 96.1539 26.1663C97.3234 26.1663 98.43 26.4811 99.4735 27.1109C100.517 27.7226 101.246 28.5233 101.66 29.5128V26.4631H102.523V38.6079H101.66V35.5852C101.174 36.5928 100.418 37.4024 99.3925 38.0142C98.385 38.6079 97.3054 38.9048 96.1539 38.9048ZM96.2079 38.1491C97.1975 38.1491 98.1151 37.8972 98.9607 37.3934C99.8064 36.8717 100.472 36.188 100.958 35.3423C101.462 34.4787 101.714 33.5431 101.714 32.5355C101.714 31.546 101.462 30.6194 100.958 29.7557C100.454 28.8921 99.7794 28.2084 98.9337 27.7046C98.0881 27.1828 97.1705 26.9219 96.1809 26.9219C95.1914 26.9219 94.2648 27.1828 93.4011 27.7046C92.5555 28.2264 91.8718 28.9191 91.35 29.7827C90.8462 30.6463 90.5943 31.5729 90.5943 32.5625C90.5943 33.5521 90.8462 34.4787 91.35 35.3423C91.8718 36.188 92.5645 36.8717 93.4281 37.3934C94.2917 37.8972 95.2183 38.1491 96.2079 38.1491ZM110.275 38.7698C108.943 38.7698 107.837 38.365 106.955 37.5554C106.092 36.7457 105.66 35.6302 105.66 34.2088V21.5782H106.523V26.4631H110.248V27.2188H106.523V34.2088C106.523 35.3963 106.874 36.3319 107.576 37.0156C108.296 37.6813 109.195 38.0142 110.275 38.0142V38.7698ZM112.545 18.3666H113.409V28.9731C113.786 28.1634 114.425 27.4977 115.325 26.9759C116.242 26.4362 117.169 26.1663 118.105 26.1663C119.814 26.1663 121.127 26.6341 122.045 27.5697C122.98 28.5053 123.448 29.8277 123.448 31.537V38.6079H122.585V31.537C122.585 30.0616 122.189 28.9281 121.397 28.1364C120.623 27.3268 119.526 26.9219 118.105 26.9219C117.241 26.9219 116.449 27.1289 115.73 27.5427C115.01 27.9385 114.443 28.4963 114.029 29.216C113.615 29.9177 113.409 30.6913 113.409 31.537V38.6079H112.545V18.3666ZM132.767 38.1761C133.702 38.1761 134.593 37.9332 135.438 37.4474C136.284 36.9616 136.986 36.2959 137.544 35.4503V36.8267C136.878 37.5644 136.149 38.1041 135.357 38.446C134.566 38.7698 133.666 38.9318 132.659 38.9318C131.543 38.9318 130.491 38.6349 129.501 38.0412C128.529 37.4474 127.747 36.6558 127.153 35.6662C126.577 34.6766 126.289 33.6241 126.289 32.5085C126.289 31.3031 126.577 30.2235 127.153 29.2699C127.729 28.2984 128.511 27.5427 129.501 27.0029C130.509 26.4631 131.624 26.1933 132.848 26.1933C134.719 26.1933 136.311 26.9309 137.625 28.4063L129.15 36.7727C129.744 37.2585 130.32 37.6183 130.877 37.8522C131.435 38.0681 132.065 38.1761 132.767 38.1761ZM127.153 32.4276C127.153 33.9209 127.648 35.1984 128.637 36.2599L136.545 28.4063C135.951 27.8845 135.375 27.5157 134.818 27.2998C134.26 27.0659 133.594 26.9489 132.821 26.9489C131.723 26.9489 130.742 27.1918 129.879 27.6776C129.033 28.1454 128.368 28.7931 127.882 29.6208C127.396 30.4484 127.153 31.384 127.153 32.4276ZM140.324 26.4631H141.188V29.2699C141.547 28.3883 142.069 27.6956 142.753 27.1918C143.455 26.688 144.246 26.4362 145.128 26.4362C145.686 26.4362 146.252 26.5531 146.828 26.787V27.7856C146.306 27.3897 145.722 27.1918 145.074 27.1918C144.426 27.1918 143.796 27.3897 143.185 27.7856C142.591 28.1814 142.105 28.7122 141.727 29.3779C141.368 30.0436 141.188 30.7543 141.188 31.51V38.6079H140.324V26.4631Z" fill="#A6A9AF"/>
<path d="M76.8495 19.9859L77.104 20.3983L77.1054 20.3974L76.8495 19.9859ZM73.368 23.6294L72.946 23.3911L72.9451 23.3927L73.368 23.6294ZM73.3949 33.4261L72.9742 33.6666L73.3949 33.4261ZM76.8225 37.0426L76.5633 37.4521L76.5694 37.4558L76.8225 37.0426ZM84.0553 38.0951L83.9456 37.6231L83.9431 37.6237L84.0553 38.0951ZM86.2684 37.2315L86.5065 37.6536L86.753 37.5145V37.2315H86.2684ZM86.2684 30.8892H86.753V30.4046H86.2684V30.8892ZM79.5753 30.8892H79.0907V31.3738H79.5753V30.8892ZM79.5753 30.1066V29.622H79.0907V30.1066H79.5753ZM87.159 30.1066H87.6436V29.622H87.159V30.1066ZM87.159 36.6647H86.6744V37.4488L87.3757 37.0982L87.159 36.6647ZM87.213 36.6378H87.6976V35.8537L86.9963 36.2043L87.213 36.6378ZM87.213 37.6363L87.4636 38.0511L87.6976 37.9097V37.6363H87.213ZM84.5411 38.7698L84.4214 38.3001L84.4105 38.3032L84.5411 38.7698ZM76.3637 37.7713L76.1171 38.1885L76.1207 38.1905L76.3637 37.7713ZM72.5853 33.9389L72.1625 34.1759L72.1657 34.1814L72.5853 33.9389ZM72.6393 23.0626L72.2237 22.8133L72.2217 22.8167L72.6393 23.0626ZM76.4986 19.2303L76.2562 18.8107L76.2541 18.8118L76.4986 19.2303ZM84.6491 18.1777L84.5026 18.6398L84.513 18.6428L84.6491 18.1777ZM87.213 19.3382H87.6976V19.0576L87.4543 18.9179L87.213 19.3382ZM87.213 20.3368L86.9388 20.7363L87.6976 21.2571V20.3368H87.213ZM84.6491 19.0144L84.4894 19.4721L84.5022 19.4761L84.6491 19.0144ZM81.7343 18.1249C79.8651 18.1249 78.1477 18.6078 76.5935 19.5744L77.1054 20.3974C78.5019 19.5289 80.0412 19.0941 81.7343 19.0941V18.1249ZM76.5949 19.5736C75.0661 20.5173 73.8488 21.7924 72.946 23.3911L73.7899 23.8677C74.6144 22.4076 75.7181 21.2538 77.104 20.3983L76.5949 19.5736ZM72.9451 23.3927C72.0586 24.977 71.6149 26.6868 71.6149 28.5143H72.5841C72.5841 26.8512 72.986 25.3044 73.7909 23.866L72.9451 23.3927ZM71.6149 28.5143C71.6149 30.3607 72.0682 32.081 72.9742 33.6666L73.8157 33.1857C72.9945 31.7486 72.5841 30.1943 72.5841 28.5143H71.6149ZM72.9742 33.6666C73.8757 35.2441 75.0727 36.5086 76.5633 37.4521L77.0816 36.6331C75.7295 35.7773 74.6415 34.6308 73.8157 33.1857L72.9742 33.6666ZM76.5694 37.4558C78.0833 38.3831 79.718 38.8496 81.4645 38.8496V37.8804C79.9004 37.8804 78.4404 37.4653 77.0756 36.6293L76.5694 37.4558ZM81.4645 38.8496C82.4649 38.8496 83.3673 38.7571 84.1676 38.5666L83.9431 37.6237C83.232 37.793 82.4072 37.8804 81.4645 37.8804V38.8496ZM84.1651 38.5671C84.9844 38.3766 85.7652 38.0717 86.5065 37.6536L86.0303 36.8094C85.3682 37.1829 84.6737 37.4538 83.9456 37.6231L84.1651 38.5671ZM86.753 37.2315V30.8892H85.7838V37.2315H86.753ZM86.2684 30.4046H79.5753V31.3738H86.2684V30.4046ZM80.0599 30.8892V30.1066H79.0907V30.8892H80.0599ZM79.5753 30.5912H87.159V29.622H79.5753V30.5912ZM86.6744 30.1066V36.6647H87.6436V30.1066H86.6744ZM87.3757 37.0982L87.4297 37.0712L86.9963 36.2043L86.9423 36.2313L87.3757 37.0982ZM86.7284 36.6378V37.6363H87.6976V36.6378H86.7284ZM86.9624 37.2216C86.1368 37.7203 85.29 38.0789 84.4214 38.3003L84.6608 39.2394C85.6275 38.993 86.5619 38.5959 87.4636 38.0511L86.9624 37.2216ZM84.4105 38.3032C83.5594 38.5415 82.6145 38.6631 81.5724 38.6631V39.6323C82.6894 39.6323 83.7237 39.502 84.6718 39.2365L84.4105 38.3032ZM81.5724 38.6631C79.7657 38.6631 78.1137 38.2254 76.6067 37.352L76.1207 38.1905C77.7803 39.1524 79.6008 39.6323 81.5724 39.6323V38.6631ZM76.6102 37.3541C75.0999 36.4616 73.8995 35.2449 73.0049 33.6965L72.1657 34.1814C73.1423 35.8716 74.4608 37.2097 76.1171 38.1885L76.6102 37.3541ZM73.008 33.702C72.1343 32.143 71.6935 30.3906 71.6935 28.4333H70.7243C70.7243 30.5423 71.2011 32.4602 72.1626 34.1758L73.008 33.702ZM71.6935 28.4333C71.6935 26.5547 72.1491 24.85 73.0568 23.3085L72.2217 22.8167C71.2223 24.5138 70.7243 26.3896 70.7243 28.4333H71.6935ZM73.0548 23.3119C73.9853 21.7611 75.2134 20.5424 76.7431 19.6487L76.2541 18.8118C74.5812 19.7893 73.2364 21.1255 72.2237 22.8133L73.0548 23.3119ZM76.741 19.6499C78.2889 18.7555 79.9238 18.3115 81.6534 18.3115V17.3423C79.7485 17.3423 77.9469 17.8338 76.2562 18.8107L76.741 19.6499ZM81.6534 18.3115C82.8902 18.3115 83.8326 18.4272 84.5026 18.6396L84.7956 17.7158C83.9902 17.4604 82.9355 17.3423 81.6534 17.3423V18.3115ZM84.513 18.6428C85.2014 18.8443 86.0197 19.2119 86.9717 19.7585L87.4543 18.9179C86.4632 18.349 85.5721 17.9429 84.7852 17.7126L84.513 18.6428ZM86.7284 19.3382V20.3368H87.6976V19.3382H86.7284ZM87.4872 19.9372C86.5428 19.2891 85.6453 18.8228 84.796 18.5526L84.5022 19.4761C85.2362 19.7097 86.0479 20.125 86.9388 20.7363L87.4872 19.9372ZM84.8087 18.5568C83.9669 18.2631 82.9369 18.1249 81.7343 18.1249V19.0941C82.8708 19.0941 83.7839 19.2258 84.4895 19.4719L84.8087 18.5568ZM92.9423 38.0412L92.6986 38.46L92.9423 38.0412ZM90.5943 35.7202L90.1755 35.9639L90.1774 35.9672L90.5943 35.7202ZM90.5943 29.3779L91.0112 29.6249L91.0132 29.6216L90.5943 29.3779ZM92.9423 27.0299L92.6986 26.611L92.9423 27.0299ZM99.4735 27.1109L99.2231 27.5258L99.2284 27.5289L99.4735 27.1109ZM101.66 29.5128L101.212 29.6998L102.144 31.9277V29.5128H101.66ZM101.66 26.4631V25.9785H101.175V26.4631H101.66ZM102.523 26.4631H103.008V25.9785H102.523V26.4631ZM102.523 38.6079V39.0925H103.008V38.6079H102.523ZM101.66 38.6079H101.175V39.0925H101.66V38.6079ZM101.66 35.5852H102.144V33.4643L101.223 35.3748L101.66 35.5852ZM99.3925 38.0142L99.6386 38.4317L99.6408 38.4303L99.3925 38.0142ZM98.9607 37.3934L99.2088 37.8098L99.2152 37.8058L98.9607 37.3934ZM100.958 35.3423L100.539 35.0981L100.538 35.1009L100.958 35.3423ZM100.958 29.7557L100.539 29.9999L100.958 29.7557ZM98.9337 27.7046L98.6792 28.1171L98.6857 28.1209L98.9337 27.7046ZM93.4011 27.7046L93.1505 27.2898L93.1467 27.2922L93.4011 27.7046ZM91.35 29.7827L90.9352 29.5321L90.9314 29.5385L91.35 29.7827ZM91.35 35.3423L90.9313 35.5866L90.9376 35.5968L91.35 35.3423ZM93.4281 37.3934L93.1775 37.8083L93.1839 37.812L93.4281 37.3934ZM96.1539 38.4202C95.0875 38.4202 94.1011 38.1547 93.186 37.6223L92.6986 38.46C93.7626 39.0791 94.9173 39.3894 96.1539 39.3894V38.4202ZM93.186 37.6223C92.2669 37.0875 91.5442 36.3726 91.0112 35.4731L90.1774 35.9672C90.7959 37.0109 91.6386 37.8433 92.6986 38.46L93.186 37.6223ZM91.0132 35.4765C90.48 34.5601 90.2153 33.5825 90.2153 32.5355H89.2461C89.2461 33.7556 89.5571 34.9011 90.1755 35.9639L91.0132 35.4765ZM90.2153 32.5355C90.2153 31.4886 90.48 30.5214 91.0112 29.6249L90.1774 29.1308C89.5572 30.1775 89.2461 31.3154 89.2461 32.5355H90.2153ZM91.0132 29.6216C91.5467 28.7046 92.269 27.9823 93.186 27.4488L92.6986 26.611C91.6365 27.229 90.7935 28.072 90.1755 29.1342L91.0132 29.6216ZM93.186 27.4488C94.1011 26.9163 95.0875 26.6509 96.1539 26.6509V25.6817C94.9173 25.6817 93.7626 25.992 92.6986 26.611L93.186 27.4488ZM96.1539 26.6509C97.2314 26.6509 98.2518 26.9396 99.2231 27.5258L99.7239 26.696C98.6081 26.0226 97.4155 25.6817 96.1539 25.6817V26.6509ZM99.2284 27.5289C100.194 28.0947 100.844 28.8193 101.212 29.6998L102.107 29.3259C101.647 28.2272 100.841 27.3505 99.7186 26.6928L99.2284 27.5289ZM102.144 29.5128V26.4631H101.175V29.5128H102.144ZM101.66 26.9477H102.523V25.9785H101.66V26.9477ZM102.039 26.4631V38.6079H103.008V26.4631H102.039ZM102.523 38.1233H101.66V39.0925H102.523V38.1233ZM102.144 38.6079V35.5852H101.175V38.6079H102.144ZM101.223 35.3748C100.781 36.2909 100.094 37.0314 99.1443 37.598L99.6408 38.4303C100.742 37.7734 101.566 36.8946 102.096 35.7957L101.223 35.3748ZM99.1465 37.5967C98.2123 38.1472 97.2175 38.4202 96.1539 38.4202V39.3894C97.3934 39.3894 98.5577 39.0686 99.6386 38.4317L99.1465 37.5967ZM96.2079 38.6337C97.2843 38.6337 98.2877 38.3585 99.2087 37.8098L98.7127 36.9771C97.9425 37.436 97.1107 37.6645 96.2079 37.6645V38.6337ZM99.2152 37.8058C100.128 37.2426 100.851 36.5006 101.378 35.5837L100.538 35.1009C100.093 35.8753 99.4846 36.5007 98.7063 36.981L99.2152 37.8058ZM101.376 35.5865C101.924 34.6481 102.198 33.6282 102.198 32.5355H101.229C101.229 33.458 100.999 34.3092 100.539 35.0981L101.376 35.5865ZM102.198 32.5355C102.198 31.4592 101.923 30.4485 101.376 29.5115L100.539 29.9999C101 30.7902 101.229 31.6327 101.229 32.5355H102.198ZM101.376 29.5115C100.832 28.5782 100.099 27.8348 99.1818 27.2883L98.6857 28.1209C99.4597 28.582 100.076 29.206 100.539 29.9999L101.376 29.5115ZM99.1882 27.2922C98.2664 26.7234 97.2608 26.4373 96.1809 26.4373V27.4065C97.0802 27.4065 97.9098 27.6422 98.6793 28.117L99.1882 27.2922ZM96.1809 26.4373C95.1012 26.4373 94.0882 26.7233 93.1505 27.2898L93.6517 28.1194C94.4413 27.6423 95.2815 27.4065 96.1809 27.4065V26.4373ZM93.1467 27.2922C92.2344 27.8551 91.4962 28.6036 90.9352 29.5321L91.7648 30.0333C92.2474 29.2345 92.8765 28.5977 93.6556 28.117L93.1467 27.2922ZM90.9314 29.5385C90.3849 30.4755 90.1097 31.4862 90.1097 32.5625H91.0789C91.0789 31.6597 91.3076 30.8172 91.7686 30.0269L90.9314 29.5385ZM90.1097 32.5625C90.1097 33.6388 90.3849 34.6496 90.9314 35.5865L91.7686 35.0981C91.3076 34.3078 91.0789 33.4654 91.0789 32.5625H90.1097ZM90.9376 35.5968C91.5005 36.509 92.249 37.2473 93.1775 37.8082L93.6787 36.9787C92.8799 36.4961 92.2431 35.8669 91.7624 35.0879L90.9376 35.5968ZM93.1839 37.812C94.1209 38.3586 95.1316 38.6337 96.2079 38.6337V37.6645C95.3051 37.6645 94.4626 37.4359 93.6723 36.9748L93.1839 37.812ZM110.275 38.7698V39.2544H110.759V38.7698H110.275ZM106.955 37.5554L106.624 37.9089L106.627 37.9123L106.955 37.5554ZM105.66 21.5782V21.0936H105.175V21.5782H105.66ZM106.523 21.5782H107.008V21.0936H106.523V21.5782ZM106.523 26.4631H106.039V26.9477H106.523V26.4631ZM110.248 26.4631H110.732V25.9785H110.248V26.4631ZM110.248 27.2188V27.7034H110.732V27.2188H110.248ZM106.523 27.2188V26.7342H106.039V27.2188H106.523ZM107.576 37.0156L107.238 37.3628L107.247 37.3713L107.576 37.0156ZM110.275 38.0142H110.759V37.5296H110.275V38.0142ZM110.275 38.2852C109.05 38.2852 108.065 37.9165 107.283 37.1984L106.627 37.9123C107.609 38.8135 108.837 39.2544 110.275 39.2544V38.2852ZM107.287 37.2018C106.54 36.5019 106.144 35.5253 106.144 34.2088H105.175C105.175 35.7351 105.643 36.9895 106.624 37.9089L107.287 37.2018ZM106.144 34.2088V21.5782H105.175V34.2088H106.144ZM105.66 22.0628H106.523V21.0936H105.66V22.0628ZM106.039 21.5782V26.4631H107.008V21.5782H106.039ZM106.523 26.9477H110.248V25.9785H106.523V26.9477ZM109.763 26.4631V27.2188H110.732V26.4631H109.763ZM110.248 26.7342H106.523V27.7034H110.248V26.7342ZM106.039 27.2188V34.2088H107.008V27.2188H106.039ZM106.039 34.2088C106.039 35.4973 106.423 36.5689 107.238 37.3627L107.914 36.6685C107.325 36.0949 107.008 35.2953 107.008 34.2088H106.039ZM107.247 37.3713C108.065 38.1286 109.087 38.4988 110.275 38.4988V37.5296C109.304 37.5296 108.526 37.2341 107.905 36.6599L107.247 37.3713ZM109.79 38.0142V38.7698H110.759V38.0142H109.79ZM112.545 18.3666V17.882H112.06V18.3666H112.545ZM113.409 18.3666H113.893V17.882H113.409V18.3666ZM113.409 28.9731H112.924V31.1574L113.848 29.178L113.409 28.9731ZM115.325 26.9759L115.568 27.3951L115.57 27.3936L115.325 26.9759ZM122.045 27.5697L121.699 27.909L121.702 27.9123L122.045 27.5697ZM123.448 38.6079V39.0925H123.933V38.6079H123.448ZM122.585 38.6079H122.1V39.0925H122.585V38.6079ZM121.397 28.1364L121.047 28.4713L121.054 28.4791L121.397 28.1364ZM115.73 27.5427L115.963 27.9674L115.971 27.9628L115.73 27.5427ZM114.029 29.216L114.447 29.4621L114.449 29.4575L114.029 29.216ZM113.409 38.6079V39.0925H113.893V38.6079H113.409ZM112.545 38.6079H112.06V39.0925H112.545V38.6079ZM112.545 18.8512H113.409V17.882H112.545V18.8512ZM112.924 18.3666V28.9731H113.893V18.3666H112.924ZM113.848 29.178C114.177 28.4722 114.74 27.8756 115.568 27.3951L115.082 26.5567C114.111 27.1198 113.396 27.8547 112.969 28.7681L113.848 29.178ZM115.57 27.3936C116.424 26.8915 117.267 26.6509 118.105 26.6509V25.6817C117.071 25.6817 116.061 25.9808 115.079 26.5582L115.57 27.3936ZM118.105 26.6509C119.725 26.6509 120.898 27.0922 121.699 27.909L122.391 27.2303C121.357 26.176 119.903 25.6817 118.105 25.6817V26.6509ZM121.702 27.9123C122.523 28.7327 122.964 29.917 122.964 31.537H123.933C123.933 29.7383 123.438 28.2779 122.388 27.227L121.702 27.9123ZM122.964 31.537V38.6079H123.933V31.537H122.964ZM123.448 38.1233H122.585V39.0925H123.448V38.1233ZM123.069 38.6079V31.537H122.1V38.6079H123.069ZM123.069 31.537C123.069 29.9754 122.648 28.7024 121.74 27.7938L121.054 28.4791C121.729 29.1537 122.1 30.1477 122.1 31.537H123.069ZM121.747 27.8016C120.859 26.8721 119.621 26.4373 118.105 26.4373V27.4065C119.431 27.4065 120.388 27.7815 121.047 28.4712L121.747 27.8016ZM118.105 26.4373C117.16 26.4373 116.284 26.6648 115.488 27.1226L115.971 27.9628C116.614 27.593 117.322 27.4065 118.105 27.4065V26.4373ZM115.496 27.1181C114.698 27.5572 114.067 28.1786 113.609 28.9744L114.449 29.4575C114.819 28.8139 115.322 28.3199 115.963 27.9673L115.496 27.1181ZM113.612 28.9698C113.152 29.749 112.924 30.6082 112.924 31.537H113.893C113.893 30.7745 114.079 30.0863 114.447 29.4621L113.612 28.9698ZM112.924 31.537V38.6079H113.893V31.537H112.924ZM113.409 38.1233H112.545V39.0925H113.409V38.1233ZM113.03 38.6079V18.3666H112.06V38.6079H113.03ZM135.438 37.4474L135.197 37.0272L135.438 37.4474ZM137.544 35.4503H138.028V33.8354L137.139 35.1835L137.544 35.4503ZM137.544 36.8267L137.903 37.1513L138.028 37.013V36.8267H137.544ZM135.357 38.446L135.541 38.8946L135.55 38.8909L135.357 38.446ZM129.501 38.0412L129.248 38.4547L129.252 38.4567L129.501 38.0412ZM127.153 35.6662L126.734 35.9099L126.737 35.9155L127.153 35.6662ZM127.153 29.2699L127.568 29.5204L127.57 29.517L127.153 29.2699ZM129.501 27.0029L129.272 26.5757L129.269 26.5775L129.501 27.0029ZM137.625 28.4063L137.965 28.7512L138.292 28.4278L137.986 28.0841L137.625 28.4063ZM129.15 36.7727L128.81 36.4278L128.426 36.8065L128.843 37.1478L129.15 36.7727ZM130.877 37.8522L130.69 38.2993L130.702 38.3042L130.877 37.8522ZM128.637 36.2599L128.283 36.5904L128.624 36.9562L128.979 36.6038L128.637 36.2599ZM136.545 28.4063L136.886 28.7501L137.254 28.3847L136.865 28.0423L136.545 28.4063ZM134.818 27.2998L134.63 27.7468L134.643 27.7517L134.818 27.2998ZM129.879 27.6776L130.113 28.1017L130.116 28.1L129.879 27.6776ZM132.767 38.6607C133.791 38.6607 134.764 38.3937 135.68 37.8676L135.197 37.0272C134.422 37.4727 133.614 37.6915 132.767 37.6915V38.6607ZM135.68 37.8676C136.594 37.3426 137.35 36.6234 137.948 35.7171L137.139 35.1835C136.621 35.9685 135.975 36.5806 135.197 37.0272L135.68 37.8676ZM137.059 35.4503V36.8267H138.028V35.4503H137.059ZM137.184 36.502C136.558 37.1959 135.884 37.6907 135.165 38.0011L135.55 38.8909C136.414 38.5175 137.198 37.9328 137.903 37.1513L137.184 36.502ZM135.174 37.9975C134.45 38.2937 133.614 38.4472 132.659 38.4472V39.4164C133.718 39.4164 134.682 39.246 135.541 38.8945L135.174 37.9975ZM132.659 38.4472C131.634 38.4472 130.667 38.1758 129.75 37.6256L129.252 38.4567C130.314 39.094 131.452 39.4164 132.659 39.4164V38.4472ZM129.754 37.6277C128.85 37.0753 128.123 36.3403 127.569 35.4169L126.737 35.9155C127.371 36.9712 128.209 37.8196 129.248 38.4547L129.754 37.6277ZM127.572 35.4225C127.038 34.5049 126.774 33.5361 126.774 32.5085H125.805C125.805 33.712 126.117 34.8483 126.734 35.9099L127.572 35.4225ZM126.774 32.5085C126.774 31.3838 127.041 30.3922 127.568 29.5204L126.738 29.0195C126.113 30.0548 125.805 31.2223 125.805 32.5085H126.774ZM127.57 29.517C128.101 28.6203 128.82 27.9263 129.733 27.4283L129.269 26.5775C128.203 27.1591 127.356 27.9764 126.736 29.0229L127.57 29.517ZM129.73 27.4301C130.662 26.9306 131.698 26.6779 132.848 26.6779V25.7087C131.55 25.7087 130.355 25.9956 129.272 26.5757L129.73 27.4301ZM132.848 26.6779C134.572 26.6779 136.035 27.3499 137.263 28.7285L137.986 28.0841C136.587 26.5119 134.866 25.7087 132.848 25.7087V26.6779ZM137.284 28.0615L128.81 36.4278L129.491 37.1176L137.965 28.7512L137.284 28.0615ZM128.843 37.1478C129.464 37.6556 130.079 38.0431 130.69 38.2991L131.065 37.4053C130.56 37.1936 130.024 36.8614 129.457 36.3976L128.843 37.1478ZM130.702 38.3042C131.325 38.5451 132.015 38.6607 132.767 38.6607V37.6915C132.115 37.6915 131.546 37.5912 131.052 37.4003L130.702 38.3042ZM126.668 32.4276C126.668 34.0396 127.207 35.4363 128.283 36.5904L128.992 35.9295C128.089 34.9605 127.638 33.8022 127.638 32.4276H126.668ZM128.979 36.6038L136.886 28.7501L136.203 28.0625L128.296 35.9161L128.979 36.6038ZM136.865 28.0423C136.241 27.4943 135.618 27.0898 134.993 26.8479L134.643 27.7517C135.133 27.9416 135.661 28.2747 136.225 28.7703L136.865 28.0423ZM135.005 26.8529C134.374 26.5882 133.641 26.4643 132.821 26.4643V27.4335C133.547 27.4335 134.146 27.5436 134.63 27.7467L135.005 26.8529ZM132.821 26.4643C131.649 26.4643 130.585 26.7244 129.641 27.2553L130.116 28.1C130.9 27.6593 131.797 27.4335 132.821 27.4335V26.4643ZM129.644 27.2536C128.723 27.7631 127.994 28.4723 127.464 29.3755L128.3 29.8661C128.741 29.1139 129.343 28.5277 130.113 28.1017L129.644 27.2536ZM127.464 29.3755C126.931 30.2839 126.668 31.3056 126.668 32.4276H127.638C127.638 31.4625 127.861 30.6129 128.3 29.8661L127.464 29.3755ZM140.324 26.4631V25.9785H139.839V26.4631H140.324ZM141.188 26.4631H141.672V25.9785H141.188V26.4631ZM141.188 29.2699H140.703V31.7396L141.636 29.4531L141.188 29.2699ZM142.753 27.1918L142.47 26.7981L142.465 26.8017L142.753 27.1918ZM146.828 26.787H147.313V26.4608L147.011 26.338L146.828 26.787ZM146.828 27.7856L146.535 28.1716L147.313 28.7615V27.7856H146.828ZM143.185 27.7856L142.921 27.3787L142.916 27.3824L143.185 27.7856ZM141.727 29.3779L141.306 29.1386L141.301 29.1475L141.727 29.3779ZM141.188 38.6079V39.0925H141.672V38.6079H141.188ZM140.324 38.6079H139.839V39.0925H140.324V38.6079ZM140.324 26.9477H141.188V25.9785H140.324V26.9477ZM140.703 26.4631V29.2699H141.672V26.4631H140.703ZM141.636 29.4531C141.967 28.6437 142.437 28.0267 143.04 27.582L142.465 26.8017C141.702 27.3646 141.128 28.1329 140.739 29.0868L141.636 29.4531ZM143.036 27.5855C143.653 27.1421 144.345 26.9208 145.128 26.9208V25.9516C144.147 25.9516 143.256 26.234 142.47 26.7982L143.036 27.5855ZM145.128 26.9208C145.616 26.9208 146.121 27.0229 146.646 27.236L147.011 26.338C146.384 26.0833 145.755 25.9516 145.128 25.9516V26.9208ZM146.344 26.787V27.7856H147.313V26.787H146.344ZM147.121 27.3995C146.516 26.9405 145.829 26.7072 145.074 26.7072V27.6764C145.615 27.6764 146.097 27.839 146.535 28.1716L147.121 27.3995ZM145.074 26.7072C144.321 26.7072 143.602 26.9387 142.922 27.3787L143.448 28.1924C143.991 27.8408 144.531 27.6764 145.074 27.6764V26.7072ZM142.916 27.3824C142.255 27.8232 141.718 28.412 141.306 29.1387L142.149 29.6171C142.492 29.0123 142.927 28.5396 143.454 28.1888L142.916 27.3824ZM141.301 29.1475C140.903 29.8838 140.703 30.6737 140.703 31.51H141.672C141.672 30.8349 141.832 30.2034 142.154 29.6083L141.301 29.1475ZM140.703 31.51V38.6079H141.672V31.51H140.703ZM141.188 38.1233H140.324V39.0925H141.188V38.1233ZM140.809 38.6079V26.4631H139.839V38.6079H140.809Z" fill="#A6A9AF"/>
<path d="M167.433 19.2192C168.356 19.2192 169.278 19.2192 170.2 19.2192C170.173 19.2532 170.148 19.288 170.119 19.32C168.681 20.9289 167.242 22.5368 165.804 24.1457C165.664 24.3027 165.524 24.4607 165.362 24.6419C165.436 24.6303 165.477 24.6244 165.519 24.6167C166.419 24.4519 167.321 24.4306 168.222 24.5905C169.977 24.9026 171.455 25.74 172.667 27.03C174.012 28.4625 174.791 30.1624 174.959 32.1299C174.972 32.2772 174.986 32.4236 175 32.5699C175 32.7434 175 32.9169 175 33.0894C174.993 33.1146 174.983 33.1398 174.98 33.166C174.92 33.6448 174.901 34.1332 174.794 34.6023C174.319 36.6997 173.176 38.358 171.42 39.5946C170.328 40.3632 169.117 40.8284 167.789 40.9884C167.599 41.0116 167.408 41.0329 167.218 41.0552C166.895 41.0552 166.572 41.0552 166.249 41.0552C166.216 41.0484 166.183 41.0378 166.149 41.0339C165.856 40.999 165.56 40.9806 165.27 40.9283C163.49 40.6065 161.968 39.7895 160.713 38.4927C159.387 37.1222 158.606 35.4911 158.439 33.5808C158.427 33.4335 158.411 33.2861 158.397 33.1379C158.397 32.9566 158.397 32.7754 158.397 32.5941C158.404 32.5651 158.415 32.536 158.417 32.5069C158.462 31.5251 158.704 30.5898 159.087 29.6895C159.607 28.4644 160.34 27.3721 161.209 26.3709C163.148 24.1389 165.097 21.9146 167.041 19.6864C167.175 19.5342 167.302 19.3753 167.433 19.2192ZM166.596 26.5396C166.34 26.5725 165.933 26.5977 165.538 26.6811C164.145 26.9738 163.002 27.6968 162.092 28.7775C160.884 30.2128 160.388 31.8702 160.653 33.732C160.859 35.1838 161.513 36.4225 162.607 37.3955C164.344 38.9424 166.365 39.4095 168.586 38.7156C171.205 37.8976 172.93 35.3224 172.807 32.5738C172.749 31.2673 172.347 30.0868 171.562 29.0469C170.358 27.4526 168.76 26.5938 166.596 26.5396Z" fill="#A6A9AF" stroke="#A6A9AF" stroke-width="1.35687" stroke-miterlimit="10"/>
</svg>
