<svg width="132" height="60" viewBox="0 0 132 60" fill="none" xmlns="http://www.w3.org/2000/svg">
<path d="M58.5703 18.4608C58.5703 16.9384 57.7483 16.4211 56.4399 16.4211C55.1913 16.4211 54.5522 17.0602 54.0954 17.5775V26.649H48.6162V6.34521H54.0954V13.622C54.9478 12.648 56.5616 11.5824 59.1489 11.5824C62.5582 11.5824 64.0481 13.5918 64.0481 16.1488V26.649H58.5725L58.5703 18.4608Z" fill="#A6A9AF"/>
<path d="M74.2464 25.2483C73.4243 26.2836 71.6289 27.0178 69.8025 27.0178C67.6108 27.0178 64.749 25.5264 64.749 22.1776C64.749 18.5248 67.6108 17.6422 69.8025 17.6422C71.7197 17.6422 73.4553 18.251 74.2464 19.2554V17.5795C74.2464 16.5449 73.3025 15.7531 71.5086 15.7531C70.1396 15.7531 68.5863 16.3014 67.4292 17.184L65.5725 13.805C67.551 12.2199 70.2909 11.583 72.5129 11.583C76.1657 11.583 79.727 12.8619 79.727 17.7625V26.6489H74.2514L74.2464 25.2483ZM74.2464 21.839C73.8811 21.3217 72.9373 21.0465 72.0849 21.0465C71.1721 21.0465 70.1677 21.3505 70.1677 22.2641C70.1677 23.1777 71.1721 23.4514 72.0849 23.4514C72.9373 23.4514 73.8811 23.1769 74.2464 22.6589V21.839Z" fill="#A6A9AF"/>
<path d="M80.71 32.2501V11.9463H86.1856V13.499C87.3722 12.0984 88.8031 11.5811 90.3255 11.5811C93.9783 11.5811 96.7788 14.2598 96.7788 19.2822C96.7788 24.3357 93.9783 27.0144 90.3255 27.0144C88.8031 27.0144 87.4032 26.4971 86.1856 25.0965V32.2501H80.71ZM88.4414 16.4212C87.7411 16.4212 86.7065 16.7865 86.1892 17.4256V21.1721C86.6762 21.7809 87.7411 22.1764 88.4414 22.1764C89.9025 22.1764 91.1792 21.1418 91.1792 19.2844C91.1814 17.4558 89.9025 16.4212 88.4414 16.4212Z" fill="#A6A9AF"/>
<path d="M99.3288 22.3875V16.6957H96.8936V11.9463H99.3288V7.92529H104.804V11.9434H107.787V16.6921H104.804V20.7988C104.804 21.5596 105.291 22.1677 106.022 22.1677C106.509 22.1677 106.996 22.0157 107.118 21.8939L108.092 26.0338C107.516 26.5511 106.235 27.0079 104.378 27.0079C101.125 27.018 99.3288 25.4617 99.3288 22.3875Z" fill="#A6A9AF"/>
<path d="M108.588 7.34895C108.588 6.74095 108.768 6.14664 109.106 5.64117C109.444 5.1357 109.924 4.74178 110.486 4.5092C111.048 4.27663 111.666 4.21585 112.262 4.33455C112.859 4.45325 113.406 4.74611 113.836 5.17608C114.266 5.60606 114.559 6.15384 114.677 6.75018C114.796 7.34651 114.735 7.96461 114.502 8.52632C114.27 9.08803 113.876 9.56812 113.37 9.90589C112.865 10.2437 112.27 10.424 111.662 10.424C111.258 10.4251 110.858 10.3463 110.484 10.1922C110.111 10.0381 109.771 9.81159 109.486 9.52581C109.2 9.24003 108.973 8.90059 108.819 8.527C108.665 8.15341 108.587 7.75305 108.588 7.34895ZM108.922 11.9456H114.398V26.6491H108.922V11.9456Z" fill="#A6A9AF"/>
<path d="M122.219 21.9025L121.153 23.3334V26.6512H115.678V6.34521H121.153V17.1819L124.532 11.9462H131.138L126.084 18.6431L131.471 26.649H124.744L122.219 21.9025Z" fill="#A6A9AF"/>
<path d="M41.0913 46.6364C41.2469 46.4519 41.4141 46.2761 41.5812 46.1047C41.8968 45.7819 42.1943 45.4433 42.4883 45.1032C42.7277 44.8449 42.9492 44.5705 43.1511 44.2819C43.3023 44.0734 43.4647 43.8733 43.6375 43.6824C44.2138 42.9771 44.742 42.235 45.2485 41.4785C45.6916 40.8171 46.139 40.1586 46.5309 39.4611C46.7773 39.0238 47.041 38.5966 47.2809 38.1549C47.4711 37.8062 47.652 37.451 47.8335 37.0973C48.1794 36.4243 48.5216 35.7492 48.8264 35.0576C49.2032 34.2009 49.567 33.3385 49.8934 32.4639C50.3566 32.1843 50.8739 32.0424 51.3819 31.8788C51.8153 31.7385 52.2577 31.6277 52.7061 31.5474C52.9511 31.5049 53.1989 31.4754 53.4439 31.4401C53.4439 31.4401 54.0981 31.399 54.7155 31.4242C55.038 31.446 55.3561 31.5117 55.6608 31.6195C56.0684 31.753 56.4418 31.9743 56.7545 32.2679C57.0153 32.5215 57.225 32.8075 57.3165 33.1692C57.3165 33.1692 57.4109 33.6281 57.2653 33.974C57.1703 34.244 57.0379 34.4994 56.8719 34.7326C56.4728 35.34 55.9202 35.7853 55.3452 36.2096C54.9129 36.5295 54.4338 36.786 53.985 37.0821C53.142 37.6412 52.2594 38.1376 51.423 38.7082C51.0389 38.9691 50.6369 39.2054 50.2651 39.4828C49.3725 40.1456 48.4402 40.7515 47.559 41.428C47.3393 41.5966 47.1066 41.7501 46.8933 41.9259C46.4005 42.3315 45.8774 42.6975 45.3803 43.0981C45.0921 43.333 44.8039 43.5715 44.533 43.8301C44.0359 44.3092 43.5452 44.7948 43.0697 45.2941C42.6418 45.7437 42.2181 46.1998 41.8291 46.6818C41.3759 47.2423 40.9011 47.7848 40.4457 48.3432C40.0855 48.7885 39.7253 49.2395 39.36 49.6818C39.1438 49.9405 38.909 50.1811 38.695 50.4398C38.3456 50.8634 37.9478 51.2438 37.597 51.6646C37.3607 51.9528 37.0775 52.1985 36.8124 52.4571C36.486 52.7777 36.1639 53.1056 35.8253 53.4103C35.3376 53.8491 34.8714 54.3109 34.3541 54.7158C33.8908 55.0761 33.4312 55.445 32.9441 55.7749C32.4218 56.1287 31.9153 56.5084 31.3627 56.8175C31.0802 56.976 30.7985 57.1366 30.514 57.2908C29.8415 57.6563 29.1602 58.0051 28.47 58.337C28.2127 58.4609 27.9404 58.5531 27.6904 58.6922C27.0629 59.0337 26.3856 59.2426 25.7112 59.4587C25.1013 59.6577 24.4742 59.7997 23.838 59.8831C23.008 60.0232 22.1612 60.0341 21.3279 59.9155C20.7396 59.8332 20.1619 59.6883 19.6045 59.4832C19.5137 59.4494 19.4265 59.4112 19.3379 59.3694C19.3582 59.3577 19.3794 59.3476 19.4013 59.3391C20.1059 59.1331 20.8127 58.94 21.5044 58.6864C22.2695 58.4054 23.0491 58.1662 23.8099 57.8737C25.0441 57.4011 26.2783 56.9306 27.4591 56.329C28.042 56.0314 28.645 55.7721 29.2243 55.4644C29.5701 55.2814 29.9232 55.1128 30.2632 54.9204C30.8555 54.5861 31.4578 54.272 32.0262 53.8938C32.4866 53.5876 32.9715 53.3174 33.4333 53.0133C34.192 52.514 34.955 52.0212 35.6632 51.4492C36.0472 51.1394 36.4557 50.8598 36.8405 50.55C37.4824 50.0313 38.1193 49.5068 38.7238 48.9419C39.4544 48.2589 40.1929 47.5845 40.8946 46.8705" fill="#A6A9AF"/>
<path d="M25.1494 30.7758L25.1624 30.7656C25.1624 30.7656 25.1552 30.7692 25.1494 30.7758Z" fill="#A6A9AF"/>
<path d="M25.1494 30.7758C25.1552 30.7692 25.1596 30.7656 25.1624 30.7656L25.1494 30.7758Z" fill="#A6A9AF"/>
<path d="M10.9016 8.19412C10.9434 8.50825 10.9426 8.6156 10.9628 8.82526C10.9852 9.05437 11.0169 9.28565 11.0514 9.51476C11.1278 10.0191 11.1862 10.5321 11.2676 11.0386C11.3721 11.7093 11.4967 12.3772 11.5983 13.0487C11.7352 13.95 11.9074 14.8456 12.0724 15.7426C12.2705 16.8233 12.5046 17.904 12.7035 18.9847C12.7755 19.368 12.8692 19.7477 12.9506 20.1288C13.0486 20.5885 13.1552 21.046 13.2554 21.505C13.3274 21.8198 13.3995 22.1339 13.4715 22.4473C13.5991 22.9812 13.7201 23.5173 13.8757 24.0454C14.0148 24.5166 14.1257 24.9964 14.2475 25.4734C14.2966 25.6853 14.3348 25.8995 14.362 26.1153C14.3976 26.3204 14.4198 26.5276 14.4283 26.7356C14.4384 27.24 14.4622 27.7515 14.3628 28.2573C14.3267 28.4374 14.3123 28.6233 14.2806 28.807C14.2361 29.0956 14.1492 29.376 14.0227 29.6392C13.9254 29.8337 13.8253 30.0419 13.6293 30.1363C13.1797 30.3524 12.4045 30.3366 12.0299 29.9302C11.8137 29.6961 11.5925 29.4727 11.4283 29.2033C11.0817 28.6363 10.7654 28.0505 10.4045 27.4921C9.8187 26.5879 9.29131 25.6513 8.79851 24.6945C8.4534 24.0238 8.07803 23.3681 7.71779 22.7082C7.14141 21.6615 6.54605 20.6248 5.93172 19.5979C5.45044 18.7988 4.95836 18.0006 4.34955 17.2916C3.88124 16.744 3.34088 16.2743 2.63193 16.0581C2.29763 15.9558 1.96405 15.8838 1.60381 15.9342C0.891256 16.0344 0.440236 16.4688 0.192392 17.0618C-0.0338384 17.5978 -0.0331179 18.1699 0.0547804 18.7326C0.222652 19.7996 0.685919 20.7499 1.27311 21.644C1.54905 22.0648 1.85598 22.4639 2.11895 22.8948C2.37472 23.3126 2.65571 23.7154 2.90715 24.1362C3.14419 24.5324 3.37835 24.9287 3.5844 25.3458C3.81856 25.8163 4.07721 26.2724 4.32289 26.7342C4.56858 27.196 4.7768 27.6744 5.00375 28.1442C5.14784 28.4403 5.29194 28.7364 5.42234 29.0376C5.57509 29.3978 5.73359 29.7523 5.87769 30.1183C6.04124 30.5304 6.2264 30.936 6.38995 31.3474C6.54269 31.7336 6.69831 32.1198 6.83088 32.5146C6.93031 32.8129 7.04702 33.1061 7.16662 33.3965C7.30279 33.7214 7.39862 34.0622 7.52686 34.39C7.63205 34.6587 7.67888 34.9484 7.81866 35.2049C8.09172 35.0478 8.34893 34.8662 8.61118 34.689C9.75458 33.9102 10.9246 33.1709 11.9931 32.2869C12.393 31.9569 12.8195 31.6594 13.2179 31.3316C13.7223 30.9187 14.2345 30.5145 14.7122 30.0693C14.7122 30.0693 15.442 29.4079 15.692 29.1572C15.8397 29.0451 15.9766 28.9197 16.1013 28.7825C16.5336 28.3236 17.0199 27.9179 17.4428 27.441C17.9601 26.8596 18.5113 26.3055 19.0279 25.7219C19.172 25.562 19.316 25.4071 19.4443 25.2356C19.5999 25.0195 19.7663 24.8184 19.9421 24.6218C19.9405 24.6075 19.9373 24.5935 19.9328 24.58C19.7721 24.2226 19.6592 23.8457 19.597 23.4589C19.525 23.0324 19.4767 22.6008 19.3859 22.1786C19.2541 21.5633 19.0977 20.9538 18.945 20.3421C18.7397 19.5265 18.4868 18.7232 18.3131 17.8997C18.2332 17.5229 18.146 17.1468 18.0797 16.7671C17.9918 16.2628 17.9032 15.7584 17.8412 15.2469C17.7793 14.7353 17.6907 14.2325 17.6193 13.7245C17.5552 13.2677 17.5055 12.8081 17.4378 12.352C17.2893 11.3563 17.1337 10.3628 16.9017 9.38219C16.5998 8.10478 16.1899 6.86772 15.5328 5.72576C15.1632 5.08382 14.7504 4.46997 14.076 4.0946C13.7028 3.8871 13.3073 3.78191 12.8829 3.88566C12.3065 4.02976 11.8858 4.40657 11.5493 4.86984C11.2862 5.23454 11.0889 5.64248 10.9664 6.0752C10.9139 6.24969 10.8735 6.42758 10.8454 6.60763C10.8217 7.13711 10.8404 7.66765 10.9016 8.19412Z" fill="#A6A9AF"/>
<path d="M35.127 35.8554C34.9756 36.0349 34.8376 36.2254 34.7142 36.4253C34.5701 36.6414 34.408 36.8417 34.2747 37.0607C34.1414 37.2798 33.9944 37.4844 33.8467 37.6919C33.6142 38.019 33.3741 38.3417 33.1262 38.6602C32.9259 38.9181 32.7408 39.1876 32.5441 39.4477C32.3474 39.7078 32.137 39.9715 31.9317 40.2316C31.7364 40.4794 31.5325 40.7208 31.3337 40.965C31.2105 41.117 31.088 41.2748 30.9482 41.4167C30.8039 41.5598 30.6705 41.7135 30.5491 41.8764C30.4165 42.0616 30.2609 42.2208 30.1132 42.3915C29.897 42.6408 29.6586 42.8649 29.4518 43.1171C29.2702 43.339 29.0526 43.5191 28.8567 43.7237C28.6866 43.9017 28.5526 44.1099 28.366 44.2742C28.1691 44.4415 27.9835 44.6217 27.8105 44.8138C27.6182 45.0364 27.3862 45.2158 27.1758 45.4154C26.9805 45.6006 26.7774 45.7864 26.5612 45.9543C26.4477 46.0433 26.3401 46.1395 26.2392 46.2425C26.1072 46.3683 25.9653 46.4833 25.8148 46.5862C25.693 46.6748 25.6023 46.7944 25.4812 46.8852C25.2456 47.0617 25.028 47.2627 24.791 47.4371C24.4401 47.6964 24.0842 47.9522 23.7197 48.1914C23.3227 48.4515 22.9098 48.6864 22.5093 48.9414C22.0747 49.2215 21.6217 49.4719 21.1533 49.6907C20.8269 49.8413 20.5049 49.9998 20.1691 50.1295C19.7786 50.2822 19.3809 50.4177 18.9789 50.5416C18.3851 50.726 17.7771 50.8612 17.1611 50.9458C16.6584 51.0176 16.151 51.0525 15.6431 51.0503C14.7039 51.0434 13.7709 50.8978 12.8743 50.618C12.8383 50.6064 12.8022 50.6 12.7633 50.5913C12.7077 50.5509 12.6437 50.5236 12.576 50.5113C12.4218 50.0661 12.264 49.6223 12.1365 49.1676C12.0133 48.7274 11.8483 48.298 11.7136 47.8607C11.4321 46.9553 11.1538 46.0487 10.8786 45.1409C10.5159 43.9463 10.1557 42.7513 9.79785 41.5558C9.79785 41.5479 9.79785 41.5378 9.79785 41.5284C10.7078 41.1992 11.6055 40.8368 12.4845 40.4326C13.0486 40.1739 13.6142 39.9124 14.1539 39.6069C15.053 39.0982 15.9637 38.6069 16.8276 38.0363C17.2375 37.7654 17.6561 37.5074 18.0524 37.2127C18.7159 36.7163 19.3781 36.217 20.0322 35.7084C20.3917 35.4393 20.7362 35.1507 21.064 34.8438C21.3471 34.5693 21.649 34.3186 21.9321 34.0462C22.3738 33.6197 22.8371 33.2134 23.2578 32.7667C23.8205 32.1694 24.3875 31.5743 24.9207 30.9489C24.9947 30.8814 25.0748 30.8209 25.1599 30.7681C25.1527 30.7681 25.126 30.8005 25.1102 30.8351C24.8883 31.3012 24.6375 31.753 24.4027 32.2126C23.961 33.0772 23.4365 33.8885 22.9293 34.712C22.4221 35.5355 21.8414 36.297 21.2794 37.078C20.9444 37.5434 20.5726 37.9757 20.2124 38.4195C20.0034 38.6768 19.7743 38.9188 19.5546 39.1674C19.1446 39.6314 18.721 40.0824 18.2707 40.5075C17.7663 40.983 17.2368 41.4275 16.713 41.8764C16.0742 42.4132 15.3979 42.9036 14.6892 43.344C14.1625 43.6812 13.6085 43.9622 13.0566 44.2605C12.5047 44.5587 11.9103 44.7807 11.3224 45.0134C11.3577 45.0588 11.4052 45.0566 11.4535 45.0602C11.5018 45.0638 11.5544 45.0825 11.6055 45.0869C11.929 45.1113 12.254 45.1517 12.5739 45.1827C13.3664 45.2547 14.1589 45.2461 14.9558 45.2259C15.4687 45.2129 15.9817 45.1603 16.494 45.0991C16.9661 45.0424 17.4361 44.973 17.904 44.8909C18.6352 44.7729 19.3574 44.6044 20.0654 44.3865C20.6929 44.1834 21.3334 44.0126 21.9386 43.754C22.1469 43.6653 22.3666 43.6149 22.5698 43.5191C22.7931 43.4146 23.033 43.3512 23.2549 43.2504C23.5179 43.1315 23.7838 43.0169 24.0475 42.898C24.2579 42.8029 24.4711 42.7078 24.6786 42.6098C24.9899 42.4658 25.2982 42.3044 25.6023 42.1415C25.9344 41.9629 26.2579 41.7683 26.5864 41.5817C26.8883 41.411 27.1945 41.2481 27.4914 41.0709C27.8134 40.8785 28.1268 40.6739 28.4438 40.4744C28.6895 40.3195 28.9345 40.1645 29.1787 40.0068C29.4054 39.8664 29.6231 39.7122 29.8308 39.5449C30.0469 39.3627 30.2911 39.215 30.5224 39.0507C30.7537 38.8864 30.9986 38.7106 31.2342 38.5377C31.5505 38.3064 31.8748 38.0852 32.1752 37.8338C32.369 37.671 32.5765 37.524 32.766 37.3554C33.0852 37.0715 33.4144 36.7992 33.7408 36.5232C33.9188 36.3712 34.0924 36.2127 34.2783 36.0715C34.5117 35.8943 34.7012 35.6644 34.957 35.5146C35.0196 35.627 35.073 35.7415 35.127 35.8554Z" fill="#A6A9AF"/>
<path d="M21.5522 20.4357C21.5572 21.0841 21.5097 21.7376 21.5795 22.3875C21.7431 22.2203 21.8533 22.0143 21.9816 21.8226C22.3245 21.3111 22.6538 20.7909 22.9607 20.2556C23.465 19.3744 23.9651 18.4926 24.3901 17.5682C24.7741 16.7317 25.1373 15.8888 25.4615 15.0271C25.8131 14.0904 26.1027 13.1365 26.3614 12.1718C26.463 11.795 26.5516 11.4146 26.6496 11.0356C26.6529 10.5976 26.6563 10.1595 26.6596 9.72147C26.6773 9.52988 26.6828 9.33737 26.6762 9.14508C26.6856 8.61409 26.6762 8.08526 26.6726 7.55355L26.6791 6.0672C26.6438 5.60537 26.7072 5.14067 26.6539 4.67884C26.6121 4.31284 26.5898 3.94323 26.5314 3.57939C26.4659 3.09172 26.3623 2.60994 26.2216 2.13843C26.0155 1.49793 25.8152 0.853819 25.3008 0.370378C25.176 0.245127 25.0263 0.147452 24.8613 0.0836639C24.6964 0.0198756 24.5199 -0.00860813 24.3433 5.26126e-05C23.9803 0.0268452 23.6307 0.148592 23.3296 0.353087C22.7467 0.725574 22.4405 1.30844 22.2042 1.92589C22.0825 2.23026 21.9913 2.54593 21.9319 2.86828C21.9002 3.05488 21.8346 3.25013 21.8238 3.43241C21.8101 3.67089 21.7798 3.91153 21.7633 4.15289C21.7453 4.40434 21.7467 4.65723 21.7445 4.90435C21.7445 5.31718 21.7532 5.73074 21.7582 6.14429L21.5522 20.4357Z" fill="#A6A9AF"/>
<path d="M28.6177 25.6071C28.2579 26.197 27.8088 26.7276 27.2863 27.1799C26.8602 27.5641 26.3854 27.8907 25.8741 28.1511C24.9996 28.5699 24.0605 28.8378 23.0967 28.9436C24.7639 27.7728 26.0996 26.3002 27.1753 24.584C27.2983 24.8026 27.4447 25.0073 27.6119 25.1942C27.7138 25.3143 27.8391 25.4122 27.9802 25.482C28.1214 25.5518 28.2753 25.5919 28.4325 25.5999C28.4938 25.6063 28.5557 25.6063 28.6177 25.6071Z" fill="#A6A9AF"/>
<path d="M39.2451 7.56487V6.41211C39.266 6.79901 39.2545 7.18302 39.2451 7.56487Z" fill="#A6A9AF"/>
<path d="M49.8929 32.4639C49.5665 33.3414 49.2027 34.2038 48.8259 35.0576C48.5211 35.7492 48.1774 36.4265 47.833 37.098C47.6515 37.4517 47.4728 37.8062 47.2804 38.1556C47.0405 38.5966 46.7761 39.0245 46.5304 39.4619C46.1385 40.1564 45.6911 40.8149 45.248 41.4792C44.7436 42.2357 44.2148 42.9778 43.637 43.6824C43.4734 43.882 43.2883 44.0715 43.1507 44.2826C42.9487 44.5712 42.7272 44.8456 42.4878 45.1039C42.1939 45.444 41.8963 45.7826 41.5807 46.1047C41.4136 46.2762 41.2464 46.4527 41.0908 46.6371L40.8956 46.877C40.1938 47.591 39.4546 48.2654 38.7248 48.9484C38.1203 49.5133 37.4834 50.0378 36.8414 50.5565C36.4567 50.8663 36.0489 51.1452 35.6642 51.4557C34.9559 52.0277 34.1929 52.5198 33.4343 53.0191C32.9725 53.3239 32.4876 53.5955 32.0272 53.8995C31.4587 54.2778 30.8564 54.5926 30.2642 54.9269C29.9241 55.1193 29.5711 55.2872 29.2252 55.4702C28.6489 55.7764 28.0429 56.0358 27.4601 56.3348C26.2792 56.9364 25.045 57.4075 23.8108 57.8802C23.0493 58.1684 22.2697 58.4119 21.5053 58.6929C20.8137 58.9465 20.1069 59.1396 19.4022 59.3456C19.3804 59.3541 19.3592 59.3642 19.3388 59.3759C19.22 59.3723 19.1227 59.3038 19.0211 59.2592C18.736 59.1392 18.463 58.9926 18.2055 58.8211C17.797 58.5329 17.3741 58.257 17.0009 57.9169C16.797 57.7318 16.5888 57.5516 16.3892 57.3614C15.8661 56.8614 15.4317 56.2879 15.008 55.7043C14.64 55.2055 14.3114 54.6786 14.0253 54.1287C13.6259 53.3715 13.2839 52.5854 13.0022 51.777C12.8769 51.4009 12.7493 51.0256 12.6233 50.6509C12.6106 50.6035 12.5952 50.5568 12.5771 50.5111C12.6175 50.5192 12.6567 50.5323 12.6939 50.55C12.742 50.5749 12.7924 50.5949 12.8444 50.6098L12.8754 50.6185C13.772 50.8983 14.705 51.044 15.6442 51.0508C16.1521 51.0533 16.6595 51.0186 17.1623 50.947C17.7782 50.8621 18.3861 50.7269 18.98 50.5428C19.3821 50.4211 19.7798 50.2827 20.1703 50.1307C20.5046 50.0003 20.8281 49.8425 21.1544 49.6919C21.6228 49.4731 22.0758 49.2228 22.5104 48.9426C22.911 48.6876 23.3238 48.4527 23.7208 48.1926C24.0853 47.9527 24.4413 47.6977 24.7921 47.4383C25.0292 47.2632 25.2468 47.0629 25.4824 46.8857C25.6034 46.7956 25.6942 46.676 25.8159 46.5874C25.9664 46.4845 26.1084 46.3696 26.2403 46.2437C26.3413 46.1408 26.4488 46.0445 26.5624 45.9555C26.7785 45.787 26.9817 45.6018 27.1762 45.4166C27.3873 45.2163 27.6193 45.0369 27.8117 44.815C27.9851 44.6227 28.1714 44.4424 28.3693 44.2754C28.5559 44.1104 28.6899 43.9029 28.86 43.7249C29.0559 43.5203 29.2735 43.3402 29.4551 43.1183C29.6619 42.8661 29.9032 42.6421 30.1165 42.3928C30.2606 42.222 30.4198 42.0628 30.5524 41.8776C30.6738 41.7147 30.8072 41.5611 30.9515 41.418C31.1158 41.2515 31.2563 41.0577 31.4025 40.887C31.5733 40.6831 31.7426 40.4777 31.9069 40.2688C32.123 39.9957 32.3392 39.7256 32.5474 39.4489C32.7441 39.1881 32.9292 38.9194 33.1295 38.6614C33.3759 38.3435 33.6161 38.0204 33.85 37.6924C33.9977 37.4856 34.1454 37.2803 34.278 37.062C34.4105 36.8437 34.5741 36.6405 34.7175 36.4258C34.841 36.2264 34.9788 36.0362 35.1296 35.8566C35.3299 36.2111 35.5143 36.5735 35.7391 36.9143C36.131 37.5094 36.6217 37.9878 37.2665 38.299C37.8671 38.5816 38.5336 38.6945 39.1938 38.6254C40.3076 38.5303 41.3106 38.1009 42.2803 37.5785C42.4691 37.477 42.6571 37.3739 42.8351 37.2551C43.7054 36.6743 44.5642 36.0807 45.369 35.407C45.5851 35.2233 45.8179 35.0468 46.0239 34.853C46.9404 33.979 48.0196 33.3522 49.1393 32.7859C49.3597 32.6742 49.4692 32.6555 49.694 32.5525L49.8929 32.4639Z" fill="#A6A9AF"/>
<path d="M21.5802 22.3872C21.7438 22.2201 21.854 22.014 21.9822 21.8224C22.3252 21.3108 22.6544 20.7906 22.9614 20.2553C23.4657 19.3742 23.9657 18.4923 24.3908 17.5672C24.7748 16.7315 25.1379 15.8885 25.4621 15.0261C25.8137 14.0895 26.1034 13.1363 26.362 12.1716C26.4636 11.7947 26.5522 11.4143 26.6502 11.0354L26.6589 11.5937C26.6589 11.5937 26.8613 17.6933 26.7662 19.7351C26.7345 20.4153 26.6942 21.0947 26.6711 21.7741C26.6358 22.7453 26.7345 23.7014 27.179 24.5904C26.1034 26.3066 24.7676 27.7793 23.1004 28.9501C24.0646 28.8432 25.0037 28.5738 25.8779 28.1532C26.3893 27.8933 26.8641 27.567 27.29 27.1827C27.8123 26.7303 28.2615 26.1998 28.6214 25.6099C28.9699 25.587 29.3007 25.4486 29.5617 25.2165C29.8282 24.9724 30.0535 24.6868 30.2288 24.3707C30.6107 23.6891 30.811 22.9434 31.0041 22.1941C31.1546 21.6113 31.3009 21.027 31.4155 20.4354C31.5848 19.5709 31.7462 18.702 31.8672 17.8273C31.9637 17.127 32.0725 16.4281 32.1712 15.7278C32.2433 15.2055 32.3074 14.6817 32.3809 14.1594C32.4846 13.4266 32.5848 12.6925 32.7116 11.9626C32.8514 11.155 32.9911 10.3466 33.1835 9.54901C33.2801 9.1477 33.386 8.74928 33.4876 8.34942C33.688 7.58108 33.9415 6.82757 34.2462 6.09432C34.4841 5.49183 34.8078 4.9269 35.2073 4.41704C35.2365 4.3787 35.2688 4.34279 35.3039 4.30969L35.3284 4.27655C35.4883 4.09433 35.672 3.93439 35.8745 3.80104C35.8745 3.80104 36.0906 3.68288 36.1468 3.65694C36.5633 3.48402 36.9531 3.39324 37.3623 3.52725C38.0828 3.76285 38.6728 4.17568 38.9531 4.92282C39.1087 5.32999 39.1954 5.76024 39.2096 6.19591C39.2163 6.2704 39.2283 6.34433 39.2456 6.41709V7.56986C39.2046 8.03529 39.1736 8.50144 39.1195 8.9647C39.0518 9.53172 38.9632 10.0959 38.8767 10.66C38.7888 11.2364 38.6793 11.8128 38.5763 12.3891C38.4581 13.0462 38.3263 13.7011 38.1966 14.356C38.0669 15.011 37.9394 15.6486 37.8047 16.2941C37.6901 16.8467 37.5626 17.3965 37.4487 17.9512C37.2434 18.9513 36.9905 19.9405 36.742 20.9311C36.5892 21.5371 36.4113 22.1372 36.2419 22.7388C36.0215 23.522 35.7571 24.2907 35.5027 25.0638C35.2484 25.8369 34.9263 26.5653 34.5985 27.3023C34.2974 27.9817 34.0128 28.6712 33.8867 29.409C33.8521 29.6086 33.8363 29.8125 33.8147 30.0142C33.7879 30.3395 33.791 30.6665 33.824 30.9912C33.8564 31.3896 33.9198 31.7837 33.9818 32.1821C34.1259 33.1036 34.4018 33.9833 34.7095 34.8616C34.7873 35.0828 34.8802 35.2989 34.966 35.5172C34.7102 35.6664 34.5207 35.8969 34.2873 36.0741C34.1014 36.2182 33.927 36.3739 33.7498 36.5252C33.4242 36.8018 33.0942 37.0734 32.775 37.358C32.5855 37.5266 32.378 37.6736 32.1842 37.8364C31.8838 38.0872 31.5596 38.3091 31.2433 38.5403C31.0077 38.7133 30.7692 38.8833 30.5314 39.0526C30.2937 39.2219 30.0559 39.3653 29.8398 39.5469C29.6323 39.7146 29.4146 39.869 29.1877 40.0094C28.9435 40.1672 28.6985 40.3221 28.4529 40.477C28.1358 40.6766 27.8224 40.8812 27.5004 41.0728C27.2035 41.2508 26.8973 41.4136 26.5955 41.5844C26.2669 41.771 25.9434 41.9655 25.6113 42.1442C25.3072 42.307 24.9989 42.4648 24.6876 42.6125C24.4801 42.7112 24.2669 42.8063 24.0565 42.9007C23.7935 43.0188 23.5277 43.1334 23.264 43.253C23.0421 43.3539 22.8021 43.4173 22.5788 43.5217C22.3756 43.6168 22.1551 43.6658 21.9477 43.7566C21.3396 44.0153 20.6991 44.1889 20.0744 44.3892C19.3664 44.607 18.6442 44.7755 17.913 44.8935C17.4408 44.9747 16.9696 45.0441 16.4994 45.1017C15.9879 45.1637 15.4749 45.2163 14.9619 45.2293C14.1694 45.2494 13.3732 45.261 12.58 45.1853C12.2572 45.1551 11.9352 45.1133 11.6117 45.0895C11.5605 45.0895 11.5108 45.0672 11.4596 45.0636C11.4085 45.0599 11.3638 45.0636 11.3285 45.0167C11.9164 44.784 12.5058 44.5664 13.0627 44.2638C13.6196 43.9612 14.1686 43.6874 14.6953 43.3467C15.403 42.9059 16.0781 42.415 16.7155 41.8776C17.2393 41.4251 17.7696 40.9806 18.2732 40.5087C18.7235 40.0836 19.1472 39.6326 19.5571 39.1686C19.7769 38.9193 20.006 38.678 20.2149 38.4207C20.5751 37.9769 20.9469 37.5439 21.2819 37.0792C21.8439 36.2989 22.4261 35.5338 22.9318 34.7132C23.4376 33.8925 23.9636 33.077 24.4052 32.2138C24.6401 31.7542 24.8908 31.3024 25.1127 30.8355C25.1215 30.8161 25.1329 30.7979 25.1466 30.7815C25.0662 30.8294 24.9913 30.8859 24.9232 30.9501C24.3901 31.5755 23.8231 32.1699 23.2604 32.7679C22.8396 33.2146 22.3763 33.6209 21.9347 34.0474C21.6515 34.3198 21.3497 34.5705 21.0665 34.8443C20.7385 35.151 20.3941 35.4396 20.0348 35.7089C19.3806 36.2175 18.7185 36.7175 18.0549 37.2132C17.6615 37.5079 17.2429 37.7658 16.8301 38.0367C15.9655 38.6073 15.0556 39.098 14.1564 39.6074C13.6168 39.9129 13.0512 40.1744 12.4871 40.433C11.6081 40.8372 10.7104 41.1989 9.80039 41.5289C9.70573 41.2919 9.62632 41.0491 9.56263 40.8019C9.28452 39.9085 9.01867 39.0108 8.74489 38.116C8.4567 37.1794 8.15698 36.2427 7.83636 35.3104C7.82484 35.2766 7.79385 35.2434 7.81691 35.2024C8.08997 35.0453 8.34718 34.8637 8.60944 34.6865C9.75284 33.9077 10.9229 33.1685 11.9914 32.2844C12.3912 31.9544 12.8177 31.6569 13.2162 31.3291C13.7205 30.9162 14.2328 30.5121 14.7104 30.0668L15.6903 29.1547C15.8379 29.0426 15.9749 28.9172 16.0995 28.78C16.5318 28.3211 17.0181 27.9154 17.4411 27.4385C17.9584 26.8571 18.5095 26.303 19.0261 25.7194C19.1702 25.5595 19.3143 25.4046 19.4425 25.2331C19.5982 25.017 19.7646 24.8159 19.9404 24.6193C20.0766 24.8188 20.2005 25.0206 20.4195 25.156C20.8727 25.4363 21.2682 25.3001 21.4772 24.8541C21.5651 24.6666 21.6123 24.4625 21.6155 24.2554C21.6155 23.996 21.6328 23.7338 21.6155 23.4715L21.5737 22.3908" fill="#A6A9AF"/>
</svg>
