<svg width="111" height="60" viewBox="0 0 111 60" fill="none" xmlns="http://www.w3.org/2000/svg">
<path fill-rule="evenodd" clip-rule="evenodd" d="M0.5 24.5389H7.15255L7.15255 39.968H7.28123C7.93748 38.6228 8.6452 37.3853 9.31431 36.1343L16.0569 24.5389H24.2922L14.4742 39.403L24.8327 59.4326H16.9834L9.71321 44.3667L7.15255 48.039L7.15255 59.4326H0.5L0.5 24.5389H0.5Z" fill="#686F7D"/>
<path fill-rule="evenodd" clip-rule="evenodd" d="M37.8302 54.0935C34.6905 54.0935 31.9626 52.5331 31.7438 49.2778H45.628C45.7181 48.7128 45.8467 47.5156 45.8467 46.1705C45.8467 39.902 43.196 33.5393 36.2346 33.5393C28.7457 33.5393 25.3486 40.6283 25.3486 47.0448C25.3486 54.9679 29.5435 59.9854 36.8523 59.9854C39.7604 59.9854 42.4497 59.4204 44.65 58.3846L43.7751 53.0577C41.9736 53.7303 40.1207 54.0935 37.8302 54.0935ZM35.8494 38.7721C38.9248 38.7721 39.6325 41.9871 39.6325 43.8972H31.7061C31.8862 41.7718 33.0314 38.7721 35.8494 38.7721Z" fill="#686F7D"/>
<path fill-rule="evenodd" clip-rule="evenodd" d="M58.2288 26.8685V34.1189H63.0413V39.9166H58.2417V49.0772C58.2417 52.1308 58.8593 53.5297 60.8796 53.5297C61.716 53.5297 62.3722 53.4221 62.8612 53.328L62.8998 59.2736C62.0119 59.6906 60.4292 60 58.5377 60C56.3759 60 54.5744 59.0718 53.5193 57.7805C52.284 56.2739 51.6664 53.8526 51.6664 50.2744V39.9166H48.7969V34.1189H51.6664V28.6306L58.2288 26.8685Z" fill="#686F7D"/>
<path fill-rule="evenodd" clip-rule="evenodd" d="M75.2825 26.8685V34.1189H80.095V39.9166H75.2954V49.0772C75.2954 52.1308 75.9131 53.5297 77.9333 53.5297C78.7697 53.5297 79.4259 53.4221 79.9149 53.328L79.9535 59.2736C79.0656 59.6906 77.4829 60 75.5914 60C73.4296 60 71.6281 59.0718 70.573 57.7805C69.3377 56.2739 68.7201 53.8526 68.7201 50.2744V39.9166H65.8506V34.1189H68.7201V28.6306L75.2825 26.8685Z" fill="#686F7D"/>
<path fill-rule="evenodd" clip-rule="evenodd" d="M93.4937 59.9902C98.8723 59.9902 105.036 56.2103 105.036 46.7403C105.036 38.5751 100.494 33.5442 94.0212 33.5442C87.6775 33.5442 82.5176 38.2523 82.5176 46.7941C82.5176 55.0669 87.3687 59.9902 93.4937 59.9902ZM93.7908 54.3539C90.7927 54.3539 89.4287 50.8833 89.4287 46.8478C89.4287 43.2831 90.4839 39.14 93.7908 39.14C97.0978 39.14 98.1144 43.2293 98.1144 46.8478C98.1144 50.9371 96.7375 54.3539 93.7908 54.3539Z" fill="#686F7D"/>
<path fill-rule="evenodd" clip-rule="evenodd" d="M99.1134 21.2805C99.0748 21.2132 99.0233 21.146 98.9847 21.0922C99.5509 16.2226 106.165 15.8864 106.165 11.6222C106.165 14.5412 100.078 13.4112 96.5914 15.7787C96.4756 15.1196 96.4369 14.4201 96.4498 13.6399C96.4498 7.08894 102.575 4.57347 102.575 -0.000106812C102.575 4.58692 92.4094 5.52854 91.1998 13.2767C90.0546 12.2813 88.8322 11.6087 87.3781 11.6087C85.0105 11.6087 83.7881 14.0569 83.7881 14.0569C83.7881 14.0569 85.8984 13.344 86.6061 15.9133C87.198 18.0924 88.8451 27.4952 110.926 25.0739C110.926 25.0739 104.158 24.4954 99.1134 21.2805Z" fill="#686F7D"/>
<path fill-rule="evenodd" clip-rule="evenodd" d="M85.0904 29.3125C85.0775 29.2856 85.0647 29.2721 85.0518 29.2452C85.2577 27.4561 87.6124 27.2678 87.754 25.7881C87.561 26.7163 85.3992 26.3666 84.1382 27.2275C84.0996 26.9719 84.0739 26.7163 84.0867 26.4204C84.0867 23.9318 86.4158 22.9767 86.4158 21.2415C86.4158 22.9902 82.5555 23.3399 82.1051 26.2859C81.6676 25.9092 81.2044 25.6536 80.6511 25.6536C79.7503 25.6536 79.2871 26.5818 79.2871 26.5818C79.2871 26.5818 80.0849 26.3128 80.3551 27.2813C80.5867 28.1153 81.2044 31.68 89.5812 30.7518C89.5812 30.7518 87.0077 30.5366 85.0904 29.3125Z" fill="#686F7D"/>
<path fill-rule="evenodd" clip-rule="evenodd" d="M87.7921 25.7837C87.811 25.7243 87.811 25.6452 87.811 25.566C87.811 25.6452 87.811 25.7243 87.7921 25.7837Z" fill="#686F7D"/>
</svg>
