<svg width="130" height="79" viewBox="0 0 130 79" fill="none" xmlns="http://www.w3.org/2000/svg">
<path d="M13.2833 53.7106C21.2034 53.7106 26.4372 47.921 26.4372 40.5567C26.4372 34.8598 22.6856 29.4871 15.3212 29.4871C7.40114 29.4871 2.12107 35.2767 2.12107 42.641C2.12107 48.3379 5.91902 53.7106 13.2833 53.7106ZM13.7928 47.7821C10.5043 47.7821 8.55905 45.5126 8.55905 42.0852C8.55905 38.3799 11.1528 35.4156 14.7655 35.4156C18.0539 35.4156 20.0455 37.6388 20.0455 41.1125C20.0455 44.8178 17.4055 47.7821 13.7928 47.7821ZM66.8186 53.7106C74.7387 53.7106 79.9724 47.921 79.9724 40.5567C79.9724 34.8598 76.2208 29.4871 68.8565 29.4871C60.9364 29.4871 55.6563 35.2767 55.6563 42.641C55.6563 48.3379 59.4543 53.7106 66.8186 53.7106ZM67.3281 47.7821C64.0396 47.7821 62.0943 45.5126 62.0943 42.0852C62.0943 38.3799 64.688 35.4156 68.3007 35.4156C71.5892 35.4156 73.5808 37.6388 73.5808 41.1125C73.5808 44.8178 70.9407 47.7821 67.3281 47.7821ZM78.986 53.1548H85.3314L87.7862 41.622C88.7125 37.2219 90.9357 35.2303 93.8999 35.2303C96.6326 35.2303 97.9758 37.2683 97.2347 40.6957L94.5947 53.1548H100.94L103.673 40.2325C104.831 34.8598 102.33 29.5334 96.5863 29.5334C93.761 29.5334 91.2599 30.7376 89.7314 32.405L90.2409 29.9966H83.8956L78.986 53.1548ZM115.699 53.6643C120.794 53.6643 124.082 51.719 126.305 48.7547L121.628 45.0957C120.331 46.7168 118.802 47.8747 116.162 47.8747C113.105 47.8747 110.651 46.161 110.465 43.0578H128.158C129.64 34.8598 124.545 29.4871 117.691 29.4871C109.539 29.4871 104.49 35.0451 104.49 42.641C104.49 48.5231 108.335 53.6643 115.699 53.6643ZM117.227 34.7209C119.821 34.7209 121.952 36.064 122.183 38.7504H110.882C111.855 36.0177 114.773 34.7209 117.227 34.7209Z" fill="#A6A9AF"/>
<path d="M32.761 50.1786L43.3521 42.9738L51.3896 36.2895L71.5923 21.6763L71.5923 21.6763L26.5154 30.0927L33.4772 32.1797L40.439 34.2668L20.0036 51.2616L32.761 50.1786Z" fill="#A6A9AF"/>
<path d="M53.5711 32.0103L43.2092 38.0516L34.5976 43.1693L10.8922 56.2149L56.1579 47.9635L42.1799 43.8057L65.9137 25.6114L53.5711 32.0103Z" fill="#A6A9AF"/>
</svg>
