<svg width="152" height="32" viewBox="0 0 152 32" fill="none" xmlns="http://www.w3.org/2000/svg">
<path d="M104.543 13.7363H126.298V18.1679H104.543V13.7363Z" fill="#A6A9AF"/>
<path d="M24.5286 27.6488C24.8654 28.1541 25.0339 28.6453 25.0339 29.1226C25.0339 29.7682 24.7672 30.3016 24.2338 30.7226C23.7286 31.1437 23.125 31.3542 22.4232 31.3542C21.9741 31.3542 21.539 31.256 21.1179 31.0595C20.7249 30.8349 20.3881 30.5121 20.1074 30.091L14.5071 21.5854C13.9457 20.6871 13.3422 20.0555 12.6965 19.6906C12.079 19.3257 11.2649 19.1432 10.2543 19.1432H6.12786V28.5752C6.12786 29.4173 5.88925 30.091 5.41204 30.5963C4.93483 31.0735 4.28919 31.3121 3.47512 31.3121C2.66105 31.3121 2.00137 31.0735 1.49609 30.5963C1.01888 30.091 0.780273 29.4173 0.780273 28.5752V3.9426C0.780273 3.12854 1.00484 2.49693 1.45398 2.04779C1.9312 1.59865 2.57684 1.37408 3.3909 1.37408H13.9176C17.2862 1.37408 19.8407 2.13201 21.5811 3.64786C23.3496 5.13563 24.2338 7.29712 24.2338 10.1323C24.2338 12.4342 23.5742 14.329 22.2548 15.8168C20.9635 17.2765 19.1249 18.2169 16.7388 18.6379C17.5529 18.8344 18.2687 19.1853 18.8863 19.6906C19.5038 20.1959 20.1074 20.8977 20.6969 21.7959L24.5286 27.6488ZM13.1597 14.9746C15.2089 14.9746 16.7107 14.5957 17.6652 13.8377C18.6196 13.0517 19.0968 11.8587 19.0968 10.2586C19.0968 8.63051 18.6196 7.45152 17.6652 6.72166C16.7107 5.96374 15.2089 5.58478 13.1597 5.58478H6.08575V14.9746H13.1597Z" fill="#A6A9AF"/>
<path d="M54.9509 27.8172C55.1193 28.1822 55.2035 28.5471 55.2035 28.912C55.2035 29.5577 54.9368 30.1051 54.4035 30.5542C53.8982 31.0033 53.3087 31.2279 52.635 31.2279C52.1858 31.2279 51.7648 31.1156 51.3718 30.8911C50.9788 30.6384 50.67 30.2594 50.4454 29.7542L47.919 24.1118H33.0974L30.5709 29.7542C30.3464 30.2594 30.0376 30.6384 29.6446 30.8911C29.2516 31.1156 28.8165 31.2279 28.3393 31.2279C27.6936 31.2279 27.1041 31.0033 26.5708 30.5542C26.0374 30.1051 25.7707 29.5577 25.7707 28.912C25.7707 28.5471 25.855 28.1822 26.0234 27.8172L37.6449 2.84782C37.8975 2.2864 38.2765 1.86533 38.7818 1.58461C39.3152 1.27583 39.8766 1.12144 40.4661 1.12144C41.0556 1.12144 41.603 1.27583 42.1082 1.58461C42.6416 1.86533 43.0346 2.2864 43.2872 2.84782L54.9509 27.8172ZM34.9501 19.9011H46.0663L40.5082 7.39537L34.9501 19.9011Z" fill="#A6A9AF"/>
<path d="M60.2221 31.0595C59.4081 31.0595 58.7624 30.8349 58.2852 30.3858C57.8361 29.9366 57.6115 29.305 57.6115 28.491V3.9426C57.6115 3.12854 57.8361 2.49693 58.2852 2.04779C58.7624 1.59865 59.4081 1.37408 60.2221 1.37408H68.5593C73.4156 1.37408 77.1772 2.67939 79.844 5.29003C82.5388 7.87259 83.8862 11.5078 83.8862 16.1957C83.8862 20.9117 82.5388 24.575 79.844 27.1856C77.1772 29.7682 73.4156 31.0595 68.5593 31.0595H60.2221ZM68.2224 26.6382C75.0438 26.6382 78.4544 23.1574 78.4544 16.1957C78.4544 9.26212 75.0438 5.79531 68.2224 5.79531H63.0433V26.6382H68.2224Z" fill="#A6A9AF"/>
<path d="M90.3668 31.3121C89.5527 31.3121 88.893 31.0595 88.3877 30.5542C87.9105 30.0489 87.6719 29.3892 87.6719 28.5752V3.85839C87.6719 3.04432 87.9105 2.39868 88.3877 1.92147C88.893 1.41619 89.5527 1.16355 90.3668 1.16355C91.2089 1.16355 91.8686 1.41619 92.3458 1.92147C92.8511 2.39868 93.1037 3.04432 93.1037 3.85839V28.5752C93.1037 29.3892 92.8511 30.0489 92.3458 30.5542C91.8686 31.0595 91.2089 31.3121 90.3668 31.3121Z" fill="#A6A9AF"/>
<path d="M108.104 31.4384C105.943 31.4384 103.894 31.1577 101.957 30.5963C100.048 30.0068 98.4899 29.2208 97.2828 28.2383C96.6372 27.7611 96.3144 27.0874 96.3144 26.2172C96.3144 25.6277 96.4828 25.1224 96.8196 24.7013C97.1846 24.2522 97.6056 24.0276 98.0828 24.0276C98.5881 24.0276 99.1636 24.2241 99.8092 24.6171C101.016 25.4873 102.28 26.1189 103.599 26.5119C104.918 26.9049 106.378 27.1014 107.978 27.1014C110.027 27.1014 111.599 26.7505 112.694 26.0488C113.789 25.3189 114.336 24.2662 114.336 22.8907C114.336 21.824 113.817 21.01 112.778 20.4485C111.768 19.859 110.069 19.2976 107.683 18.7642C105.213 18.2309 103.206 17.6133 101.662 16.9115C100.118 16.2098 98.9531 15.3115 98.1671 14.2167C97.3811 13.1219 96.9881 11.7324 96.9881 10.0481C96.9881 8.30769 97.4793 6.74973 98.4618 5.37424C99.4443 3.99875 100.806 2.93204 102.546 2.17411C104.315 1.38812 106.294 0.995117 108.483 0.995117C112.497 0.995117 115.768 2.06183 118.294 4.19525C118.659 4.50403 118.912 4.81281 119.052 5.1216C119.221 5.40231 119.305 5.76724 119.305 6.21638C119.305 6.80588 119.122 7.3252 118.757 7.77434C118.421 8.19541 118.013 8.40594 117.536 8.40594C117.256 8.40594 116.989 8.36383 116.736 8.27962C116.512 8.19541 116.203 8.04101 115.81 7.81644C114.659 6.9743 113.536 6.35674 112.441 5.96374C111.375 5.54267 110.055 5.33213 108.483 5.33213C106.574 5.33213 105.059 5.72513 103.936 6.51113C102.841 7.26905 102.294 8.33576 102.294 9.71126C102.294 10.8622 102.785 11.7464 103.767 12.364C104.75 12.9816 106.42 13.557 108.778 14.0904C111.276 14.6518 113.297 15.2834 114.841 15.9852C116.413 16.6589 117.606 17.5291 118.421 18.5958C119.263 19.6625 119.684 20.9959 119.684 22.596C119.684 24.3364 119.192 25.8803 118.21 27.2277C117.256 28.5471 115.894 29.5857 114.126 30.3437C112.385 31.0735 110.378 31.4384 108.104 31.4384Z" fill="#A6A9AF"/>
<path d="M149.347 1.16357C150.161 1.16357 150.807 1.41622 151.284 1.9215C151.762 2.39871 152 3.04435 152 3.85842V28.5752C152 29.3893 151.748 30.0489 151.242 30.5542C150.765 31.0595 150.133 31.3121 149.347 31.3121C148.533 31.3121 147.888 31.0595 147.41 30.5542C146.933 30.0489 146.695 29.3893 146.695 28.5752V18.1748H131.494V28.5752C131.494 29.3893 131.241 30.0489 130.736 30.5542C130.259 31.0595 129.613 31.3121 128.799 31.3121C128.013 31.3121 127.368 31.0595 126.862 30.5542C126.385 30.0489 126.146 29.3893 126.146 28.5752V3.85842C126.146 3.04435 126.385 2.39871 126.862 1.9215C127.34 1.41622 127.985 1.16357 128.799 1.16357C129.613 1.16357 130.259 1.41622 130.736 1.9215C131.241 2.39871 131.494 3.04435 131.494 3.85842V13.7957H146.695V3.85842C146.695 3.04435 146.933 2.39871 147.41 1.9215C147.888 1.41622 148.533 1.16357 149.347 1.16357Z" fill="#A6A9AF"/>
<circle cx="129.823" cy="4.97332" r="0.503589" fill="#A6A9AF"/>
<circle cx="129.823" cy="6.98796" r="0.503589" fill="#A6A9AF"/>
<circle cx="129.823" cy="9.00261" r="0.503589" fill="#A6A9AF"/>
<circle cx="129.823" cy="11.0168" r="0.503589" fill="#A6A9AF"/>
<circle cx="127.808" cy="4.97332" r="0.503589" fill="#A6A9AF"/>
<circle cx="127.808" cy="6.98796" r="0.503589" fill="#A6A9AF"/>
<circle cx="127.808" cy="9.00212" r="0.503589" fill="#A6A9AF"/>
<circle cx="127.808" cy="11.0168" r="0.503589" fill="#A6A9AF"/>
<circle cx="129.823" cy="19.6784" r="0.503589" fill="#A6A9AF"/>
<circle cx="129.823" cy="21.693" r="0.503589" fill="#A6A9AF"/>
<circle cx="129.823" cy="23.7067" r="0.503589" fill="#A6A9AF"/>
<circle cx="129.823" cy="25.7214" r="0.503589" fill="#A6A9AF"/>
<circle cx="127.745" cy="19.6442" r="0.503589" fill="#A6A9AF"/>
<circle cx="127.808" cy="21.693" r="0.503589" fill="#A6A9AF"/>
<circle cx="127.808" cy="23.7072" r="0.503589" fill="#A6A9AF"/>
<circle cx="127.808" cy="25.7214" r="0.503589" fill="#A6A9AF"/>
</svg>
