<svg width="143" height="50" viewBox="0 0 143 50" fill="none" xmlns="http://www.w3.org/2000/svg">
<path d="M31.819 41.2353C24.5982 48.4512 13.0669 48.7998 5.42948 42.2811L8.28755 39.4253C14.3657 44.4065 23.3524 44.0624 29.0277 38.3909C34.703 32.7194 35.0473 23.7391 30.0624 17.6648L32.8651 14.864C39.3882 22.4963 39.0397 34.0194 31.819 41.2353ZM9.26758 8.76469C16.4884 1.54877 28.0193 1.20018 35.6567 7.71893L32.7986 10.5751C26.7205 5.59351 17.7342 5.93794 12.0589 11.6094C6.38356 17.2806 6.03889 26.2612 11.0238 32.3352L8.22076 35.136C1.69797 27.5041 2.04679 15.9806 9.26758 8.76469ZM35.0449 12.6849L40.0571 7.67604L38.9678 6.58739C30.1787 -2.19579 15.8779 -2.19579 7.08882 6.58739C-1.33416 15.0047 -1.67918 28.4769 6.04131 37.3154L1.02939 42.324L2.11877 43.4126C10.9079 52.1958 25.2086 52.1958 33.9977 43.4126C42.42 34.9956 42.7654 21.5235 35.0449 12.6849Z" fill="#A6A9AF"/>
<path d="M79.5498 19.9956H84.0347V22.1621V23.4479C86.3301 18.8602 93.9156 17.8317 95.6147 23.4119H95.6874C97.2523 20.3393 101.08 18.862 104.341 19.8583C107.342 20.7754 108.223 23.8394 108.223 26.681V38.7305H103.554V27.5632C103.554 25.6107 103.046 23.6706 100.698 23.8248C98.4015 23.9756 96.9481 25.9938 96.4594 28.0774C96.2757 28.8119 96.239 29.6201 96.239 30.5023V38.7305H91.5704V27.5632C91.5704 25.4934 90.972 23.5368 88.4894 23.8491C86.2861 24.1261 84.9348 26.101 84.4385 28.1144C84.2551 28.8119 84.2184 29.6571 84.2184 30.5023V38.7305H79.5498V19.9956Z" fill="#A6A9AF"/>
<path d="M141.801 34.7651C140.589 34.7651 139.889 34.2509 139.889 32.1939V16.8014V12.6505L135.258 17.2852V32.8914C135.258 38.2555 138.456 38.916 141.029 38.916C141.801 38.916 142.499 38.8064 142.499 38.8064V34.7281C142.499 34.7281 142.169 34.7651 141.801 34.7651Z" fill="#A6A9AF"/>
<path d="M121.924 35.2426C119.059 35.2426 117.452 32.6167 117.274 30.0182C117.125 27.8451 117.712 25.2701 119.75 24.1223C121.432 23.1748 123.663 23.4397 125.024 24.8209C128.002 27.8413 126.924 35.2426 121.924 35.2426ZM129.782 23.2591C128.145 20.5991 125.164 19.2732 122.081 19.6059C120.095 19.8203 118.015 20.8536 116.998 22.6429V21.3571V19.9977H112.733V47.5933L117.402 42.9164V38.2187V36.602C118.968 38.882 122.072 39.5335 124.641 38.9764C131.355 37.5202 133.017 28.517 129.782 23.2591Z" fill="#A6A9AF"/>
<path d="M70.3789 38.7314H75.0475V19.9889H70.3789V38.7314Z" fill="#A6A9AF"/>
<path d="M66.2069 29.9541C65.4854 26.6861 62.3896 25.1271 59.5633 23.9409C57.6988 23.158 53.9922 22.1817 54.0981 19.5794C54.2033 17.0017 57.2288 16.3353 59.2896 16.6911C60.452 16.8917 61.6047 17.3592 62.6259 18.0011L65.7321 14.8973C62.9381 12.2158 58.0542 11.5335 54.5223 12.8055C50.7116 14.178 48.0809 18.4486 49.8437 22.3937C51.1407 25.2969 54.4476 26.5194 57.162 27.699C59.2474 28.605 62.9124 30.2007 61.2597 33.1405C60.0817 35.2362 57.0624 34.991 55.1373 34.3242C54.0482 33.9469 52.9907 33.3729 52.0653 32.6577L48.9453 35.776C51.667 38.5256 56.1547 39.6862 59.8775 38.9825C64.1112 38.1826 67.1693 34.3132 66.2069 29.9541Z" fill="#A6A9AF"/>
</svg>
