<svg width="176" height="35" viewBox="0 0 176 35" fill="none" xmlns="http://www.w3.org/2000/svg">
<path d="M48.6129 27.7966C53.8024 27.7966 56.9625 25.3323 56.9625 21.0705C56.9625 13.8806 46.2066 15.4461 46.2066 13.6197C46.2066 13.1268 46.5255 12.7499 47.6852 12.7499C49.5116 12.7499 51.686 13.3877 53.3675 14.6634L56.4986 10.5175C54.2953 8.72005 51.4541 7.82131 48.294 7.82131C42.9885 7.82131 40.2633 10.9524 40.2633 14.2285C40.2633 21.8533 51.0482 19.9688 51.0482 21.8243C51.0482 22.5781 50.0045 22.868 48.9028 22.868C46.2935 22.868 44.1192 21.7663 42.6696 20.3747L39.6255 24.7235C41.6839 26.579 44.4961 27.7966 48.6129 27.7966Z" fill="#A6A9AF"/>
<path d="M77.2939 27.4487L69.669 17.0987L76.9749 8.11122H69.814L64.7404 15.3592V8.11122H58.8841V27.4487H64.7404V22.0852L65.8131 20.6356L70.1619 27.4487H77.2939Z" fill="#A6A9AF"/>
<path d="M86.7121 27.7966C92.6844 27.7966 97.2941 23.7378 97.2941 17.7945C97.2941 11.8512 92.6844 7.79232 86.7121 7.79232C80.7398 7.79232 76.1301 11.8512 76.1301 17.7945C76.1301 23.7378 80.7398 27.7966 86.7121 27.7966ZM86.7121 22.6361C83.8999 22.6361 82.0734 20.4907 82.0734 17.7945C82.0734 15.0982 83.8999 12.9528 86.7121 12.9528C89.5243 12.9528 91.3508 15.0982 91.3508 17.7945C91.3508 20.4907 89.5243 22.6361 86.7121 22.6361Z" fill="#A6A9AF"/>
<path d="M116.679 27.4487L113.171 20.6067C114.707 19.8529 116.65 18.0844 116.65 14.7503C116.65 11.1264 114.214 8.11122 109.692 8.11122H99.3706V27.4487H105.227V21.3604H107.343L110.011 27.4487H116.679ZM108.793 16.2579H105.227V13.2138H108.793C109.779 13.2138 110.706 13.6776 110.706 14.7213C110.706 15.794 109.779 16.2579 108.793 16.2579Z" fill="#A6A9AF"/>
<path d="M132.211 27.4487V22.3462H124.876V8.11122H119.019V27.4487H132.211Z" fill="#A6A9AF"/>
<path d="M140.419 27.4487V8.11122H134.563V27.4487H140.419Z" fill="#A6A9AF"/>
<path d="M149.394 27.4487V20.2298H158.005V15.1272H149.394V13.2138H158.207V8.11122H143.538V27.4487H149.394Z" fill="#A6A9AF"/>
<path d="M175.365 27.4487V22.3462H166.551V20.2298H175.162V15.1272H166.551V13.2138H175.365V8.11122H160.695V27.4487H175.365Z" fill="#A6A9AF"/>
<path d="M11.2278 24.7554L0 18.2452V25.1023C0.000539143 25.9467 0.22264 26.7759 0.643967 27.5067C1.06529 28.2376 1.67099 28.8442 2.40013 29.2656L12.1838 34.9391V26.4085C12.1813 26.0734 12.0918 25.7446 11.9242 25.4548C11.7565 25.1649 11.5165 24.9239 11.2278 24.7554Z" fill="#A6A9AF"/>
<path d="M13.8517 11.3878C13.3444 11.0944 12.9231 10.6721 12.6303 10.1633C12.3375 9.65455 12.1835 9.07733 12.1838 8.48982V0.0204614L2.40017 5.69393C1.67102 6.11535 1.06533 6.722 0.644005 7.45284C0.222679 8.18363 0.000577341 9.01291 3.81978e-05 9.85717V14.7755C-0.00277799 15.3635 0.150173 15.9418 0.443237 16.4509C0.736301 16.9601 1.15895 17.3821 1.66793 17.6735L11.9804 23.6531C12.4589 23.9296 12.8558 24.3282 13.1309 24.8086C13.4061 25.2889 13.5494 25.8338 13.5465 26.3878V35L23.3301 29.3266C24.0593 28.9051 24.665 28.2985 25.0863 27.5676C25.5076 26.8369 25.7298 26.0076 25.7303 25.1633V20.2449C25.7331 19.6569 25.5801 19.0787 25.2871 18.5695C24.9941 18.0603 24.5714 17.6384 24.0624 17.347L13.8517 11.3878Z" fill="#A6A9AF"/>
<path d="M14.5022 10.1837L25.73 16.6938V9.83674C25.7294 8.99242 25.5073 8.16319 25.086 7.43235C24.6646 6.70151 24.0589 6.09491 23.3298 5.67344L13.5462 0V8.51019C13.5459 8.84865 13.6341 9.1812 13.8018 9.47482C13.9695 9.76843 14.211 10.0128 14.5022 10.1837Z" fill="#A6A9AF"/>
</svg>
