<svg width="148" height="37" viewBox="0 0 148 37" fill="none" xmlns="http://www.w3.org/2000/svg">
<path d="M38.8835 33.5798C44.0948 33.5798 48.1217 30.3109 48.1217 25.7154C48.1217 21.4516 45.4687 19.3671 41.1575 18.23L38.9782 17.6615C37.1779 17.1878 36.9884 16.4771 36.9884 15.956C36.9884 15.0559 38.0307 14.7242 38.9308 14.7242C40.3047 14.7242 41.5839 15.2454 42.6735 16.6193L47.3163 12.7818C45.4213 10.1761 42.6261 8.84961 38.9782 8.84961C33.8143 8.84961 29.9768 11.7396 29.8821 16.1455C29.7873 19.9356 32.1087 22.8255 36.6094 23.9151L38.1728 24.2941C40.6364 24.91 41.0627 25.3364 41.0627 26.1418C41.0627 27.0893 39.9731 27.4683 38.8835 27.4683C36.7042 27.4683 34.8565 26.5681 33.7669 25.0047L29.0293 29.3159C31.2086 32.2059 34.7618 33.5798 38.8835 33.5798Z" fill="#A6A9AF"/>
<path d="M49.7949 33.058H56.9487V22.4458L65.7606 33.058H74.4306L63.6287 20.077L72.3461 9.37012H63.8656L56.9487 17.8504V9.51638H49.7949V33.058Z" fill="#A6A9AF"/>
<path d="M83.2557 33.058C86.3353 33.058 84.4043 33.058 87.2038 33.058C90.004 33.058 95.6523 28.9638 95.6523 22.8722V9.37012H88.4983V20.8824C88.4983 25.241 86.7452 27.0886 84.0451 27.0886C81.3922 27.0886 80.3972 25.0989 80.3972 21.6404V9.37012H73.2432V22.8722C73.2432 29.3153 77.3816 33.058 83.2557 33.058Z" fill="#A6A9AF"/>
<path d="M107.972 33.5798C111.146 33.5798 113.468 31.969 114.416 30.6898V33.0587H121.569V9.37074H114.416V11.7396C113.468 10.4604 111.146 8.84961 107.972 8.84961C101.766 8.84961 96.9814 14.4874 96.9814 21.2147C96.9814 27.942 101.766 33.5798 107.972 33.5798ZM109.583 27.0893C106.362 27.0893 104.182 24.6258 104.182 21.2147C104.182 17.8036 106.362 15.3401 109.583 15.3401C112.805 15.3401 114.984 17.8036 114.984 21.2147C114.984 24.6258 112.805 27.0893 109.583 27.0893Z" fill="#A6A9AF"/>
<path d="M134.25 33.5796C137.424 33.5796 139.745 31.9688 140.693 30.6896V33.0585H147.846V0H140.693V11.7394C139.745 10.4602 137.424 8.84943 134.25 8.84943C128.043 8.84943 123.259 14.4872 123.259 21.2145C123.259 27.9418 128.043 33.5796 134.25 33.5796ZM135.86 27.0891C132.639 27.0891 130.459 24.6256 130.459 21.2145C130.459 17.8034 132.639 15.3399 135.86 15.3399C139.082 15.3399 141.261 17.8034 141.261 21.2145C141.261 24.6256 139.082 27.0891 135.86 27.0891Z" fill="#A6A9AF"/>
<path d="M4.05738 17.4151C5.77106 15.7015 8.54948 15.7015 10.2631 17.4151L14.3208 21.4728L10.2631 25.5304C8.54948 27.2441 5.77106 27.2441 4.05738 25.5304L3.10264 24.5756C1.38896 22.862 1.38896 20.0835 3.10264 18.3698L4.05738 17.4151Z" fill="#A6A9AF"/>
<path d="M26.1161 16.3618C28.6208 18.8665 28.6208 22.9273 26.1161 25.4319L23.4906 28.0574L16.3301 20.8969L23.4906 13.7363L26.1161 16.3618Z" fill="#A6A9AF"/>
<path d="M19.3353 10.5346L17.9033 9.10249C16.3214 7.52063 13.7567 7.52063 12.1749 9.10249L10.7428 10.5346C9.16092 12.1164 9.16092 14.6811 10.7428 16.263L12.1749 17.6951C13.7567 19.2769 16.3214 19.2769 17.9033 17.6951L19.3353 16.263C20.9172 14.6811 20.9172 12.1164 19.3353 10.5346Z" fill="#A6A9AF"/>
<path d="M11.4574 32.3126C9.61187 30.4672 9.61187 27.475 11.4574 25.6295L15.2763 21.8105L22.4369 28.9711L18.6179 32.7901C16.7724 34.6355 13.7803 34.6355 11.9348 32.7901L11.4574 32.3126Z" fill="#A6A9AF"/>
</svg>
