<svg width="168" height="41" viewBox="0 0 168 41" fill="none" xmlns="http://www.w3.org/2000/svg">
<path d="M146.365 0.218725C145.606 0.510696 144.906 1.05084 144.541 1.64938L144.234 2.14573L142.322 2.32092C140.205 2.5253 139.008 2.81726 138.876 3.15303C138.833 3.26982 138.818 3.38661 138.847 3.41581C138.876 3.445 139.767 3.64938 140.803 3.86836C141.855 4.07274 142.935 4.32092 143.212 4.39391L143.738 4.5253L143.928 5.79537C144.599 10.4815 146.409 14.2917 149.008 16.4523C151.081 18.1749 154.701 19.4158 157.665 19.4158H158.468L160.935 21.3136C162.292 22.3647 163.475 23.2114 163.563 23.2114C163.782 23.2114 167.3 21.5472 167.3 21.445C167.3 21.4012 165.84 20.3793 164.059 19.1968L160.803 17.0362L160.015 15.7808C158.19 12.8903 151.49 2.90486 150.701 1.91216C150.132 1.16763 149.636 0.700478 149.183 0.4669C148.336 0.0435429 147.125 -0.073246 146.365 0.218725ZM147.884 2.30632C148.146 2.5107 148.19 2.67128 148.117 2.96325C148.015 3.41581 147.417 3.63478 147.081 3.35741C146.774 3.10924 146.803 2.37931 147.125 2.20413C147.46 1.99975 147.519 1.99975 147.884 2.30632ZM155.168 10.4377C156.395 12.4085 157.387 14.0435 157.358 14.0727C156.876 14.4961 154.906 15.0362 153.84 15.0362C152.818 15.0362 151.65 14.5399 150.906 13.7954C149.65 12.5545 149.329 11.1238 149.971 9.75157C150.176 9.32821 150.497 8.80267 150.687 8.59829C151.125 8.13113 152.672 6.86106 152.818 6.86106C152.876 6.86106 153.928 8.4669 155.168 10.4377Z" fill="#A6A9AF"/>
<path d="M157.957 4.62773C156.862 4.80292 154.526 5.86861 154.628 6.16058C154.76 6.49635 159.227 13.2847 159.329 13.2847C159.387 13.2847 159.825 12.8905 160.292 12.4234C162.103 10.5693 162.584 8.29197 161.533 6.48175C161.154 5.82481 160.292 5.0073 159.796 4.83211C159.358 4.67153 158.38 4.55474 157.957 4.62773Z" fill="#A6A9AF"/>
<path d="M58.5404 12.2918C57.3142 13.2407 56.555 13.9122 56.5258 14.0874C56.4966 14.3356 56.9054 14.6859 58.5404 15.8246C59.7521 16.6713 60.6864 17.2261 60.8032 17.1677C60.9638 17.1093 61.0222 16.8611 61.0222 16.2772V15.4742H66.4237H71.2044C71.6045 15.4742 71.9911 15.329 72.2923 15.0655C72.6864 14.7005 72.7448 14.5545 72.7302 13.9998C72.7156 13.4888 72.6134 13.2845 72.2631 12.9487C71.9811 12.6949 71.6152 12.5545 71.2359 12.5545H66.4237H61.0368L60.993 11.7224C60.9638 11.1093 60.8908 10.8611 60.7302 10.8465C60.6134 10.8173 59.6207 11.4742 58.5404 12.2918Z" fill="#A6A9AF"/>
<path d="M0.146484 13.6059C0.146484 13.8103 5.82532 34.3067 5.92751 34.4818C5.9713 34.5402 6.48225 34.5986 7.06619 34.5986H8.11729L10.7158 25.3724C12.1465 20.2921 13.3582 16.0585 13.4166 15.9563C13.4604 15.8687 14.5844 19.5767 15.8837 24.2045C17.1976 28.8322 18.3947 33.0658 18.5552 33.6059L18.8472 34.5986H19.8983H20.964L23.7961 24.3359C25.3436 18.7008 26.6574 13.9417 26.6866 13.7519C26.745 13.4453 26.7158 13.4307 25.7523 13.4307H24.745L22.9348 20.4089C21.9275 24.2337 20.8618 28.3797 20.5406 29.6059C20.2195 30.8322 19.9421 31.8103 19.9129 31.7957C19.8983 31.7665 18.7888 27.8395 17.4458 23.0658C16.1173 18.2921 14.9494 14.1607 14.8764 13.8979L14.7158 13.4307H13.4604H12.1903L9.63554 22.6278C8.23408 27.6789 7.05159 31.7373 6.9932 31.6351C6.9494 31.5329 5.86911 27.4016 4.58444 22.4526L2.26327 13.4307H1.21218C0.496849 13.4307 0.146484 13.4891 0.146484 13.6059Z" fill="#A6A9AF"/>
<path d="M40.4385 24.0146V34.5986H41.3144H42.1757L42.2195 33.1679L42.2633 31.7519L42.6721 32.4526C43.5772 33.9709 45.475 34.9344 47.5918 34.9198C49.1392 34.9052 49.694 34.7884 50.7596 34.2774C53.037 33.1679 54.3801 30.73 54.5261 27.4453C54.7304 22.5256 52.2925 19.1533 48.3217 18.876C45.8399 18.7008 43.5918 19.7665 42.6429 21.5621L42.3509 22.1168L42.3363 17.7665V13.4307H41.3874H40.4385V24.0146ZM49.7231 20.9198C50.5407 21.3285 51.3728 22.1752 51.8107 23.0219C53.0954 25.5621 52.8764 29.5329 51.3144 31.5767C50.2195 33.0073 48.6575 33.6059 46.7888 33.2993C45.548 33.0949 44.7742 32.657 43.8983 31.6789C42.4093 30.0292 41.9421 26.876 42.7742 24.1898C43.2998 22.4818 44.4531 21.2263 45.9859 20.6716C46.964 20.3212 48.7742 20.438 49.7231 20.9198Z" fill="#A6A9AF"/>
<path d="M81.7232 18.7008C80.5845 18.876 79.3144 19.5329 78.6137 20.3212C78.2779 20.7008 77.9567 21.022 77.9129 21.022C77.8691 21.022 77.8545 20.657 77.8837 20.2044C77.9421 19.0074 77.8399 18.949 75.7086 19.0074L73.9421 19.0512L73.8983 26.6716L73.8691 34.3066H75.9713H78.0881L78.1465 29.3723C78.2049 24.0585 78.2487 23.6935 78.9932 22.8468C79.9275 21.7811 82.1173 21.6789 83.1538 22.6424C83.8545 23.2993 83.9421 24.0147 83.9421 29.3723V34.3066H86.0589H88.1757V28.8176C88.1757 24.3942 88.1319 23.1534 87.9421 22.3504C87.4166 20.0147 85.9275 18.8176 83.2852 18.6424C82.8034 18.6132 82.1027 18.6424 81.7232 18.7008Z" fill="#A6A9AF"/>
<path d="M95.2562 18.7006C92.7161 19.0802 90.7015 21.0656 89.9861 23.9415C89.6504 25.2554 89.7672 28.1605 90.2051 29.5035C90.6285 30.8466 91.5044 32.1167 92.4533 32.759C93.6942 33.6057 94.3073 33.7663 96.2051 33.7809C97.8256 33.7955 97.9278 33.7809 98.8621 33.3138C99.446 33.0218 100.059 32.5838 100.38 32.2189L100.906 31.6057L100.847 33.2846C100.804 34.6422 100.731 35.0802 100.468 35.5619C99.8256 36.8028 98.8183 37.2992 97.2124 37.197C95.884 37.0948 95.2124 36.7298 94.7453 35.8685L94.3803 35.1824H92.3073C89.9715 35.1824 90.0883 35.1094 90.4387 36.3211C90.9059 37.8685 92.4387 39.1824 94.4241 39.7225C95.665 40.0729 98.6139 40.1021 100.001 39.7663C101.826 39.343 103.49 38.1021 104.249 36.6276C104.862 35.4159 104.935 34.3795 104.95 26.5546C104.964 19.343 104.964 19.1532 104.687 19.0802C104.526 19.051 103.621 19.0218 102.672 19.0364L100.95 19.051L100.906 20.0437L100.862 21.051L100.424 20.4378C99.4314 19.0802 97.3876 18.3795 95.2562 18.7006ZM99.0372 22.2335C101.11 23.3722 101.519 27.7809 99.738 29.6933C98.6139 30.8904 96.3803 30.978 95.2124 29.8831C94.1175 28.8758 93.665 26.2627 94.2197 24.3211C94.4679 23.4889 95.2124 22.4962 95.8256 22.1605C96.6577 21.7079 98.1613 21.7517 99.0372 22.2335Z" fill="#A6A9AF"/>
<path d="M111.972 18.7298C108.745 19.0947 106.774 20.6568 106.351 23.1677L106.249 23.7955H108.366H110.482L110.628 23.1677C110.906 22.0728 111.899 21.4597 113.431 21.4597C114.424 21.4597 115.125 21.7079 115.548 22.2188C115.869 22.5984 115.928 22.7736 115.884 23.4743C115.84 24.2188 115.796 24.321 115.358 24.613C114.891 24.9342 114.424 25.0364 111.329 25.4889C109.066 25.8101 108.059 26.1604 107.242 26.8758C106.293 27.7079 105.957 28.4378 105.869 29.7955C105.782 31.3867 106.103 32.3794 106.993 33.2845C108.03 34.321 109.008 34.6568 111.023 34.6568C112.935 34.6714 114.278 34.321 115.402 33.5035L116.132 32.9926L116.264 33.6495L116.395 34.3064H118.555H120.701L120.497 33.6495C120.351 33.1531 120.293 31.5911 120.264 27.4743C120.205 21.4159 120.22 21.4597 119.271 20.3794C118.074 19.0218 115.154 18.3648 111.972 18.7298ZM115.972 28.3648C115.84 30.5838 115.037 31.6057 113.227 31.8247C111.066 32.0874 109.928 31.3137 110.118 29.6933C110.249 28.5108 111.037 27.9999 113.315 27.6495C114.132 27.5181 115.037 27.3283 115.329 27.2261C115.607 27.1239 115.884 27.0655 115.942 27.0947C116.001 27.1385 116.015 27.6933 115.972 28.3648Z" fill="#A6A9AF"/>
<path d="M127.402 18.7007C123.942 19.0657 121.519 22.6131 121.796 26.8613C122.015 30.1898 123.183 32.2336 125.504 33.3139C126.307 33.6934 126.687 33.781 127.869 33.8394C129.037 33.8832 129.431 33.854 130.19 33.5912C131.256 33.2263 132.146 32.6715 132.482 32.1752C132.599 31.9854 132.76 31.8248 132.818 31.8248C132.876 31.8248 132.905 32.4964 132.876 33.3139C132.803 35.4599 132.351 36.4088 131.168 36.9489C130.511 37.2555 129.139 37.3139 128.278 37.0657C127.562 36.8759 126.76 36.1606 126.643 35.6204L126.541 35.1825H124.424H122.292L122.395 35.8686C122.628 37.6204 124.322 39.1679 126.672 39.781C127.796 40.073 130.905 40.073 132.015 39.781C134.643 39.0949 136.336 37.4161 136.789 35.0365C136.876 34.5839 136.935 31.1533 136.935 26.6277V18.9781H135.037C132.876 18.9781 132.876 18.9781 132.92 20.2482C132.92 20.5985 132.935 20.8759 132.92 20.8759C132.92 20.8759 132.511 20.4964 132.044 20.0292C130.818 18.8467 129.519 18.4818 127.402 18.7007ZM130.76 22.0584C131.446 22.2774 132.351 23.3431 132.614 24.2336C132.891 25.1533 132.935 27.1387 132.716 27.9854C132.453 28.9343 131.694 29.9416 130.949 30.3212C130.19 30.7007 128.876 30.7737 128.132 30.4526C125.635 29.4015 125.227 24.146 127.489 22.4234C128.292 21.8102 129.548 21.6642 130.76 22.0584Z" fill="#A6A9AF"/>
<path d="M145.037 18.7005C144.059 18.8173 142.833 19.2406 141.986 19.7516C140.453 20.7005 139.066 22.6713 138.614 24.5399C138.147 26.5545 138.468 29.2844 139.373 30.9925C140.687 33.445 143.577 34.9049 146.73 34.6859C149.738 34.4815 151.679 33.2698 152.818 30.8757C153.533 29.4012 153.577 29.445 151.548 29.5034L149.796 29.5618L149.256 30.2042C148.511 31.0655 147.49 31.5326 146.336 31.5326C144.19 31.5326 142.949 30.4961 142.687 28.4523L142.584 27.737H148.074C154.322 27.737 153.723 27.8976 153.621 26.2771C153.431 23.2406 151.942 20.6567 149.709 19.4596C148.307 18.7297 146.818 18.4815 145.037 18.7005ZM147.606 22.1166C148.249 22.4523 148.73 23.0655 149.052 23.9122C149.212 24.3355 149.344 24.7589 149.344 24.8611C149.344 24.9925 148.541 25.0363 146.044 25.0071C144.22 24.9925 142.701 24.9487 142.657 24.9049C142.628 24.8611 142.672 24.5399 142.774 24.175C142.979 23.4304 143.636 22.5691 144.263 22.2479C145.198 21.7662 146.789 21.7078 147.606 22.1166Z" fill="#A6A9AF"/>
<path d="M30.5111 19.0657C28.2629 19.6789 26.4819 21.6789 25.8249 24.3796C25.533 25.5621 25.5622 28.5986 25.8833 29.7811C26.9052 33.5913 29.752 35.4161 33.7958 34.8614C35.679 34.6132 37.0074 33.7665 38.0439 32.1752C38.4381 31.5621 39.1242 29.8979 39.1242 29.5621C39.1242 29.5183 38.7155 29.4891 38.2045 29.4891H37.2848L36.8906 30.4234C36.3505 31.6643 35.6498 32.4526 34.6571 32.9343C33.9709 33.2701 33.6498 33.3285 32.5695 33.3431C31.4746 33.3431 31.1826 33.2993 30.4819 32.9489C29.5768 32.511 28.6425 31.5913 28.1899 30.6716C27.8541 30.0292 27.4454 28.4818 27.4454 27.8395V27.4453H33.2848H39.1242V26.3796C39.1242 23.5767 37.7374 20.8176 35.7228 19.6351C34.3943 18.8614 32.1753 18.6278 30.5111 19.0657ZM34.3505 20.8614C35.7812 21.5475 36.9782 23.3285 37.168 24.9927L37.2702 25.8395H32.3505H27.4162L27.5184 25.3577C28.0001 22.9781 29.4016 21.1241 31.1534 20.584C31.9125 20.3504 33.5914 20.4964 34.3505 20.8614Z" fill="#A6A9AF"/>
<path d="M64.2204 19.4797C64.1766 19.6694 64.1175 20.3467 64.1175 20.8028C64.1175 21.3872 64.1613 21.4598 63.8839 21.4598C63.7087 21.4744 61.9861 21.4744 60.0445 21.4744L56.4971 21.4598V23.4306V25.4014H60.3365H64.1759V27.4565C64.1759 27.4565 64.0154 27.4565 64.2782 27.4565C64.4096 27.4565 65.8401 26.6422 67.2416 25.6787C69.2562 24.2773 69.7817 23.8393 69.7817 23.5765C69.7817 23.3284 69.2124 22.8174 67.227 21.3284C65.8255 20.2773 64.5847 19.416 64.4533 19.416C64.3365 19.416 64.2788 19.2753 64.2204 19.4797Z" fill="#A6A9AF"/>
<path d="M58.5404 30.8464C57.3433 31.7515 56.555 32.4668 56.5258 32.642C56.4966 32.861 56.9345 33.2406 58.5404 34.3646C59.752 35.2114 60.6863 35.7661 60.8031 35.7077C60.9637 35.6493 61.0221 35.4011 61.0221 34.8172V34.0143H66.4236H71.1946C71.6003 34.0143 71.9915 33.8634 72.2922 33.5909C72.6863 33.2406 72.7593 33.0654 72.7593 32.5544C72.7593 32.0435 72.6717 31.8537 72.2922 31.5179C71.9915 31.2455 71.6003 31.0946 71.1946 31.0946H66.4236H61.0367L60.9929 30.2625C60.9637 29.6493 60.8907 29.4011 60.7301 29.3865C60.6134 29.3573 59.6207 30.0143 58.5404 30.8464Z" fill="#A6A9AF"/>
</svg>
